<svg width="100" height="26" viewBox="0 0 100 26" fill="none" xmlns="http://www.w3.org/2000/svg">
<path fill-rule="evenodd" clip-rule="evenodd" d="M28.8739 10.7972L27.6146 12.979L28.8739 15.1608H35.2289L33.9696 12.979L35.2289 10.7972H28.8739Z" fill="#CFFA1D"/>
<path fill-rule="evenodd" clip-rule="evenodd" d="M27.7318 3.94443C31.1728 7.38549 29.9282 14.2383 24.935 19.2169C19.9418 24.2101 13.1036 25.4548 9.66251 22.0137C6.22144 18.5726 7.46608 11.7198 12.4593 6.74121C17.4379 1.74801 24.2761 0.503364 27.7318 3.94443ZM27.395 4.26657C24.6714 1.54301 18.5653 3.24157 13.7625 8.04442C8.95965 12.8473 7.26108 18.9533 9.98465 21.6769C12.7082 24.4005 18.8143 22.7019 23.6171 17.899C28.4346 13.0962 30.1185 6.99014 27.395 4.26657Z" fill="#285300"/>
<path d="M7.36363 15.5708V10.3872L3.00006 12.979L7.36363 15.5708Z" fill="#CFFA1D"/>
<path d="M21.9332 12.2323C21.7868 11.6173 21.4793 11.0608 21.04 10.6215C20.6007 10.1823 20.0443 9.87475 19.4293 9.72832V6.36047H17.9357V9.72832C17.3207 9.87475 16.7643 10.1823 16.325 10.6215C15.8711 11.0755 15.5636 11.6465 15.4172 12.2908H9.19397V13.6673H15.4172C15.549 14.3115 15.8711 14.8826 16.325 15.3365C16.7643 15.7758 17.3207 16.0833 17.9357 16.2297V19.5976H19.444V16.2297C20.059 16.0833 20.6154 15.7758 21.0547 15.3365C21.4939 14.8972 21.8014 14.3408 21.9479 13.7258H25.8868V12.2323H21.9332ZM20.0004 14.2822C19.6636 14.619 19.2097 14.824 18.6972 14.824C18.1847 14.824 17.7307 14.619 17.394 14.2822C17.0572 13.9455 16.8522 13.4915 16.8522 12.979C16.8522 12.4665 17.0572 12.0126 17.394 11.6758C17.7307 11.339 18.1847 11.134 18.6972 11.134C19.2097 11.134 19.6636 11.339 20.0004 11.6758C20.3372 12.0126 20.5422 12.4665 20.5422 12.979C20.5275 13.4915 20.3225 13.9455 20.0004 14.2822Z" fill="#CFFA1D"/>
<path d="M40.676 5.84806H41.5253H41.6131V5.93591V9.91877L43.8535 5.4527L43.9267 5.30627L43.9999 5.4527L46.2696 9.97734V5.93591V5.84806H46.3574H47.2067H47.2946V5.93591V11.4416V11.5295H47.2067H45.9621H45.9035L45.8742 11.4855L43.9121 7.51734L41.9499 11.4855L41.9206 11.5295H41.8621H40.676H40.5881V11.4416V5.93591V5.84806H40.676ZM67.0624 6.82913V10.5631H68.4534C68.5706 10.5631 68.6877 10.5484 68.8049 10.5338C68.922 10.5045 69.0392 10.4752 69.1417 10.4166C69.2588 10.3727 69.3613 10.3141 69.4638 10.2409C69.5663 10.1677 69.6542 10.0945 69.742 10.0066C69.8299 9.91877 69.9177 9.83091 69.9763 9.72841C70.0495 9.62591 70.1081 9.52341 70.1667 9.40627C70.2252 9.28912 70.2692 9.18662 70.2838 9.06948C70.3131 8.95234 70.3277 8.83519 70.3277 8.70341C70.3277 8.45448 70.2838 8.20555 70.1813 7.98591C70.1374 7.86877 70.0642 7.76627 70.0056 7.66377C69.9324 7.56127 69.8592 7.47341 69.7713 7.38555C69.6834 7.2977 69.5956 7.22449 69.4931 7.15127C69.3906 7.07806 69.2881 7.01948 69.1709 6.97556C68.9513 6.87306 68.7024 6.81448 68.4534 6.81448H67.0624V6.82913ZM66.0667 11.4416V5.95056V5.8627H66.1545H68.4534C68.6584 5.8627 68.8488 5.87734 69.0392 5.92127C69.2295 5.9652 69.4052 6.00913 69.5809 6.08234C69.7567 6.15556 69.9177 6.24342 70.0642 6.34592C70.2106 6.44842 70.357 6.56556 70.4888 6.69734C70.7524 6.96091 70.9574 7.25377 71.1038 7.6052C71.177 7.78091 71.2356 7.95663 71.2649 8.14698C71.3088 8.33734 71.3234 8.5277 71.3234 8.71805C71.3234 9.11341 71.2356 9.47948 71.0745 9.83091C70.9867 10.0066 70.8988 10.1677 70.7963 10.3141C70.6938 10.4605 70.562 10.607 70.4302 10.7241C70.2984 10.8559 70.152 10.9584 70.0056 11.0609C69.8592 11.1634 69.6981 11.2513 69.5224 11.3245C69.3467 11.3977 69.1856 11.4563 69.0099 11.4855C68.8342 11.5148 68.6584 11.5441 68.4827 11.5441H66.1545H66.0667V11.4416ZM58.8477 7.22449V11.4416V11.5295H58.7599H57.9252H57.8374V11.4416V5.95056V5.8627H57.9252H59.082H59.126L59.1552 5.90663L62.1131 10.1531V5.95056V5.8627H62.201H63.0502H63.1381V5.95056V11.4416V11.5295H63.0502H61.9374H61.8935L61.8642 11.5002L58.8477 7.22449ZM50.1353 5.8627H54.8503H54.9381V5.95056V6.74127V6.82913H54.8503H52.9906V10.5777H54.8503H54.9381V10.6656V11.4563V11.5441H54.8503H50.1353H50.0474V11.4563V10.6656V10.5777H50.1353H51.9803V6.82913H50.1353H50.0474V6.74127V5.95056V5.8627H50.1353Z" fill="#CFFA1D"/>
<path d="M47.0017 14.5605L44.0146 20.5055L43.9414 20.652L43.8682 20.4909L40.925 14.5459L40.8664 14.4288H40.9982H41.9646H42.0232L42.0525 14.4727L43.9707 18.4116L45.9035 14.4727L45.9328 14.4288H45.9914H46.9725H47.1189L47.0017 14.5605ZM70.3278 20.1102H66.1546H66.0667V20.0223V14.5313V14.4434H66.1546H70.3424H70.4303V14.5313V15.322V15.4098H70.3424H67.0771V19.1584H70.3424H70.4303V19.2462V20.037V20.1248H70.3278V20.1102ZM67.5456 16.9327H67.4578V17.0205V17.8112V17.8991H67.5456H70.2692H70.3571V17.8112V17.0205V16.9327H70.2692H67.5456ZM58.8478 15.8052V20.0223V20.1102H58.7599H57.9253H57.8374V20.0223V14.5313V14.4434H57.9253H59.0821H59.126L59.1553 14.4873L62.1131 18.7337V14.5459V14.4434H62.201H63.0503H63.1381V14.5313V20.0223V20.1102H63.0503H61.9374H61.8935L61.8642 20.0809L58.8478 15.8052ZM52.5514 14.0334L55.5385 19.9784L55.5971 20.1102H55.4507H54.4842H54.4257L54.3964 20.0662L52.4342 16.1127L50.9407 19.1584H53.1664H53.2103L53.2396 19.2023L53.7521 19.993L53.8399 20.1248H53.6789H49.4764H49.3446L49.4032 20.0077L52.3464 14.0627L52.4196 13.9016L52.5514 14.0334Z" fill="#CFFA1D"/>
<path d="M78.3814 6.03839C78.2789 5.96517 78.1471 5.92124 77.986 5.89196C77.8689 5.87732 77.7078 5.86267 77.5028 5.86267H76.2875V9.08409H76.7121V7.78088H77.5321C77.986 7.78088 78.3082 7.69303 78.4693 7.50267C78.645 7.31231 78.7328 7.07803 78.7328 6.81445C78.7328 6.65338 78.7035 6.50696 78.6303 6.37517C78.5718 6.2141 78.4839 6.1116 78.3814 6.03839ZM78.1325 7.2391C78.0153 7.3416 77.825 7.38552 77.5468 7.38552H76.7121V6.24339H77.5321C77.7225 6.24339 77.8543 6.25803 77.9275 6.27267C78.0446 6.30196 78.1325 6.36053 78.191 6.46303C78.2643 6.56553 78.2935 6.66803 78.2935 6.81445C78.2935 6.99017 78.235 7.1366 78.1325 7.2391Z" fill="white"/>
<path d="M80.1678 6.69727C79.8749 6.69727 79.6407 6.78512 79.4357 6.96083C79.2014 7.16583 79.0696 7.48798 79.0696 7.91262C79.0696 8.30798 79.1721 8.60083 79.3771 8.82048C79.5821 9.02548 79.8457 9.12798 80.1678 9.12798C80.3728 9.12798 80.5631 9.08405 80.7242 8.98155C80.8999 8.89369 81.0317 8.74726 81.1196 8.58619C81.2074 8.41048 81.2514 8.17619 81.2514 7.88334C81.2514 7.51727 81.1489 7.2244 80.9439 7.01941C80.7389 6.79976 80.4899 6.69727 80.1678 6.69727ZM80.651 8.58619C80.5192 8.73262 80.3581 8.80583 80.1678 8.80583C79.9774 8.80583 79.8017 8.73262 79.6699 8.58619C79.5381 8.43976 79.4796 8.22012 79.4796 7.91262C79.4796 7.61976 79.5381 7.38548 79.6699 7.23905C79.8017 7.09262 79.9628 7.01941 80.1678 7.01941C80.3581 7.01941 80.5192 7.09262 80.651 7.23905C80.7828 7.38548 80.8414 7.60512 80.8414 7.89798C80.8414 8.20547 80.7828 8.43976 80.651 8.58619Z" fill="white"/>
<path d="M83.111 7.67835L83.4771 9.06942H83.8871L84.6193 6.74121H84.2385L83.8432 8.08835L83.7114 8.54228L83.5943 8.103L83.2428 6.75585H82.8328L82.4668 8.11764C82.3936 8.41049 82.3496 8.57157 82.3496 8.60085L82.2178 8.103L81.8518 6.75585H81.4418L82.1593 9.08406H82.5693L83.0378 7.29764L83.111 7.67835Z" fill="white"/>
<path d="M85.9224 9.12798C86.186 9.12798 86.4203 9.06941 86.596 8.93762C86.7717 8.80584 86.8888 8.61548 86.9474 8.3812L86.5374 8.33727C86.4789 8.49834 86.391 8.63012 86.2885 8.70334C86.186 8.77655 86.0689 8.82048 85.9224 8.82048C85.7321 8.82048 85.571 8.74727 85.4392 8.61548C85.3074 8.4837 85.2342 8.2787 85.2196 8.02977H86.9474C86.9474 7.98584 86.9474 7.94191 86.9474 7.92727C86.9474 7.54655 86.8449 7.23905 86.6546 7.03405C86.4642 6.82905 86.2006 6.71191 85.8931 6.71191C85.571 6.71191 85.3074 6.81441 85.1024 7.03405C84.8974 7.2537 84.7949 7.5612 84.7949 7.94191C84.7949 8.32262 84.8974 8.61548 85.0878 8.82048C85.3074 9.02548 85.571 9.12798 85.9224 9.12798ZM85.4392 7.19513C85.5564 7.07798 85.7174 7.01941 85.8931 7.01941C86.0981 7.01941 86.2592 7.09263 86.3763 7.2537C86.4642 7.3562 86.5081 7.50262 86.5228 7.69298H85.2196C85.2489 7.48798 85.3221 7.32691 85.4392 7.19513Z" fill="white"/>
<path d="M88.5435 7.19512L88.6753 6.82905C88.5435 6.74119 88.3971 6.69727 88.2653 6.69727C88.1774 6.69727 88.0896 6.72655 88.0164 6.77048C87.9432 6.82905 87.8553 6.93155 87.7674 7.09262V6.74119H87.416V9.0694H87.8114V7.85405C87.8114 7.69298 87.826 7.53191 87.8846 7.40012C87.9139 7.31226 87.9578 7.23905 88.031 7.18048C88.1042 7.12191 88.1774 7.10726 88.2653 7.10726C88.3532 7.10726 88.4557 7.13655 88.5435 7.19512Z" fill="white"/>
<path d="M89.8907 9.12798C90.1543 9.12798 90.3885 9.06941 90.5643 8.93762C90.74 8.80584 90.8571 8.61548 90.9157 8.3812L90.5057 8.33727C90.4471 8.49834 90.3593 8.63012 90.2568 8.70334C90.1543 8.77655 90.0371 8.82048 89.8907 8.82048C89.7003 8.82048 89.5393 8.74727 89.4075 8.61548C89.2757 8.4837 89.2025 8.2787 89.1878 8.02977H90.9303C90.9303 7.98584 90.9303 7.94191 90.9303 7.92727C90.9303 7.54655 90.8278 7.23905 90.6375 7.03405C90.4471 6.82905 90.1835 6.71191 89.876 6.71191C89.5539 6.71191 89.2903 6.81441 89.0853 7.03405C88.8803 7.2537 88.7778 7.5612 88.7778 7.94191C88.7778 8.32262 88.8803 8.61548 89.0707 8.82048C89.2757 9.02548 89.5393 9.12798 89.8907 9.12798ZM89.4075 7.19513C89.5246 7.07798 89.6857 7.01941 89.8614 7.01941C90.0664 7.01941 90.2275 7.09263 90.3446 7.2537C90.4325 7.3562 90.4764 7.50262 90.491 7.69298H89.1878C89.2171 7.48798 89.2903 7.32691 89.4075 7.19513Z" fill="white"/>
<path d="M91.7942 8.98159C91.9553 9.08409 92.1164 9.12802 92.3067 9.12802C92.5996 9.12802 92.8046 9.01087 92.951 8.77659V9.06945H93.3171V5.84802H92.9217V7.00481C92.8485 6.90231 92.7607 6.82909 92.6582 6.77052C92.5557 6.71195 92.4239 6.68267 92.2775 6.68267C92.0871 6.68267 91.9114 6.72659 91.7503 6.82909C91.5892 6.93159 91.4721 7.07802 91.3989 7.26838C91.3257 7.45874 91.2817 7.66373 91.2817 7.89802C91.2817 8.1323 91.3257 8.35195 91.4135 8.52766C91.516 8.73266 91.6332 8.87909 91.7942 8.98159ZM91.8821 7.23909C91.9992 7.09266 92.1457 7.01945 92.3214 7.01945C92.4971 7.01945 92.6582 7.09266 92.7753 7.23909C92.8925 7.38552 92.9657 7.61981 92.9657 7.94195C92.9657 8.23481 92.9071 8.45445 92.79 8.58623C92.6728 8.73266 92.5264 8.79123 92.3507 8.79123C92.175 8.79123 92.0285 8.71802 91.9114 8.57159C91.7796 8.42516 91.721 8.20552 91.721 7.89802C91.7064 7.60516 91.765 7.38552 91.8821 7.23909Z" fill="white"/>
<path d="M78.1032 13.1988C78.2496 13.1255 78.3668 13.023 78.44 12.9059C78.5132 12.7888 78.5571 12.657 78.5571 12.5252C78.5571 12.3788 78.5132 12.2323 78.4253 12.1005C78.3375 11.9688 78.2203 11.8663 78.0739 11.793C77.9275 11.7345 77.7225 11.6906 77.4882 11.6906H76.2875V14.912H77.5175C77.7225 14.912 77.8982 14.8973 78.03 14.8534C78.1764 14.8241 78.2935 14.7655 78.3814 14.6923C78.4693 14.6191 78.5571 14.5166 78.6157 14.3995C78.6743 14.2677 78.7182 14.1359 78.7182 13.9748C78.7182 13.7845 78.6596 13.6234 78.5571 13.4916C78.4546 13.3452 78.3082 13.2427 78.1032 13.1988ZM76.7121 12.0713H77.3564C77.5907 12.0713 77.7518 12.0859 77.8396 12.1152C77.9275 12.1445 78.0007 12.2031 78.0593 12.2763C78.1032 12.3641 78.1325 12.452 78.1325 12.5545C78.1325 12.6716 78.1032 12.7595 78.0446 12.8327C77.986 12.9059 77.9128 12.9645 77.7957 12.9938C77.7078 13.023 77.576 13.0377 77.3857 13.0377H76.6828V12.0713H76.7121ZM78.2057 14.2384C78.1618 14.3116 78.1032 14.3702 78.0446 14.4141C77.9714 14.458 77.8982 14.4873 77.7957 14.502C77.7371 14.5166 77.6493 14.5166 77.5028 14.5166H76.6975V13.4184H77.4443C77.6493 13.4184 77.8103 13.433 77.9128 13.477C78.0153 13.5063 78.1032 13.5795 78.1618 13.6673C78.2203 13.7552 78.2496 13.8577 78.2496 13.9748C78.2789 14.0773 78.2496 14.1652 78.2057 14.2384Z" fill="white"/>
<path d="M80.2557 13.9309C80.1971 14.1066 80.1385 14.2823 80.0946 14.458C80.0507 14.2677 79.9921 14.0919 79.9189 13.9162L79.4357 12.5691H79.011L79.8896 14.8973C79.875 14.9412 79.8603 14.9705 79.8603 14.9998C79.8018 15.1609 79.7578 15.2487 79.7432 15.2927C79.7139 15.3512 79.67 15.3805 79.6114 15.4098C79.5528 15.4391 79.4943 15.4537 79.4064 15.4537C79.3478 15.4537 79.26 15.4391 79.1868 15.4244L79.2307 15.7905C79.3185 15.8198 79.4064 15.8344 79.4796 15.8344C79.6114 15.8344 79.7139 15.8052 79.8018 15.7466C79.8896 15.688 79.9775 15.5855 80.036 15.4537C80.0946 15.3512 80.1678 15.1755 80.2557 14.9266L81.1489 12.5544H80.7535L80.2557 13.9309Z" fill="white"/>
<path d="M85.366 11.6906H84.7803L83.1842 13.2866V11.6906H82.7596V14.8973H83.1842V13.7845L83.7114 13.272L84.8681 14.8973H85.4246L84.0189 12.9938L85.366 11.6906Z" fill="white"/>
<path d="M87.1964 13.8284C87.1964 14.0334 87.1671 14.1798 87.1378 14.2823C87.0939 14.3848 87.0207 14.4727 86.9182 14.5312C86.8157 14.5898 86.6985 14.6191 86.5814 14.6191C86.4642 14.6191 86.3617 14.5898 86.2885 14.5312C86.2153 14.4727 86.1568 14.3848 86.1275 14.2823C86.1128 14.2091 86.0982 14.0773 86.0982 13.8723V12.5837H85.7028V14.0334C85.7028 14.2091 85.7175 14.3262 85.7321 14.3995C85.7614 14.5166 85.7907 14.6191 85.8492 14.6923C85.9078 14.7655 85.9957 14.8387 86.1128 14.8973C86.23 14.9559 86.3618 14.9705 86.4935 14.9705C86.801 14.9705 87.05 14.8387 87.2403 14.5752V14.912H87.5917V12.5837H87.1964V13.8284Z" fill="white"/>
<path d="M90.2128 14.3848C90.0517 14.5166 89.8467 14.5898 89.6124 14.5898C89.4221 14.5898 89.2317 14.5459 89.0706 14.4434C88.9096 14.3409 88.7778 14.1945 88.7046 13.9895C88.6314 13.7845 88.5874 13.5502 88.5874 13.272C88.5874 13.067 88.6167 12.8473 88.6899 12.657C88.7631 12.452 88.8803 12.2909 89.0414 12.1737C89.2024 12.0566 89.4074 11.998 89.6564 11.998C89.876 11.998 90.0517 12.0566 90.1981 12.1591C90.3446 12.2616 90.4471 12.4373 90.5203 12.6716L90.9449 12.5691C90.8571 12.2762 90.7106 12.042 90.491 11.8809C90.2714 11.7198 90.0078 11.632 89.6856 11.632C89.4074 11.632 89.1439 11.6905 88.9096 11.8223C88.6753 11.9541 88.4849 12.1445 88.3678 12.3934C88.236 12.6423 88.1774 12.9352 88.1774 13.272C88.1774 13.5795 88.236 13.8723 88.3531 14.1359C88.4703 14.3995 88.6314 14.6045 88.851 14.7509C89.0706 14.8973 89.3489 14.9559 89.7003 14.9559C90.0371 14.9559 90.3153 14.868 90.5496 14.6777C90.7838 14.4873 90.9449 14.2237 91.0328 13.8723L90.6081 13.7698C90.491 14.048 90.3738 14.253 90.2128 14.3848Z" fill="white"/>
<path d="M92.38 12.5251C92.0871 12.5251 91.8528 12.613 91.6478 12.7887C91.4135 12.9937 91.2817 13.3159 91.2817 13.7405C91.2817 14.1359 91.3842 14.4287 91.5892 14.6484C91.7942 14.8534 92.0578 14.9559 92.38 14.9559C92.585 14.9559 92.7753 14.9119 92.9364 14.8094C93.1121 14.7216 93.2439 14.5751 93.3317 14.4141C93.4196 14.2384 93.4635 14.0041 93.4635 13.7112C93.4635 13.3451 93.361 13.0523 93.156 12.8473C92.9657 12.6276 92.7021 12.5251 92.38 12.5251ZM92.8778 14.4141C92.746 14.5605 92.585 14.6337 92.3946 14.6337C92.2042 14.6337 92.0285 14.5605 91.8967 14.4141C91.765 14.2676 91.7064 14.048 91.7064 13.7405C91.7064 13.4476 91.765 13.2134 91.8967 13.0669C92.0285 12.9205 92.1896 12.8473 92.3946 12.8473C92.585 12.8473 92.746 12.9205 92.8778 13.0669C93.0096 13.2134 93.0682 13.433 93.0682 13.7259C93.0682 14.0334 92.995 14.253 92.8778 14.4141Z" fill="white"/>
<path d="M94.3128 11.2219H93.9174V11.6759H94.3128V11.2219Z" fill="white"/>
<path d="M94.3128 12.5691H93.9174V14.8973H94.3128V12.5691Z" fill="white"/>
<path d="M96.7874 13.0816C96.7582 12.9644 96.7289 12.8766 96.6703 12.7887C96.6117 12.7009 96.5239 12.6423 96.4067 12.5837C96.2896 12.5398 96.1578 12.5105 96.026 12.5105C95.7039 12.5105 95.4549 12.6423 95.2792 12.8912V12.5544H94.9278V14.8826H95.3232V13.6087C95.3232 13.3159 95.3817 13.1109 95.4989 12.9937C95.616 12.8912 95.7624 12.8326 95.9382 12.8326C96.0407 12.8326 96.1285 12.8619 96.2164 12.9059C96.2896 12.9498 96.3482 13.023 96.3774 13.0962C96.4067 13.1694 96.4214 13.3012 96.4214 13.4623V14.8826H96.8167V13.4476C96.8021 13.2866 96.8021 13.1548 96.7874 13.0816Z" fill="white"/>
</svg>
