<svg width="240" height="56" viewBox="0 0 240 56" fill="none" xmlns="http://www.w3.org/2000/svg">
<rect x="8" width="224" height="56" rx="28" fill="#FFC233"/>
<path fill-rule="evenodd" clip-rule="evenodd" d="M42.998 24.5197C42.998 24.2725 42.908 24.1285 42.72 23.9838C41.2268 22.8338 39.7381 21.6783 38.2537 20.5174C37.1771 19.6822 36.0991 18.8431 35.0198 18C34.9338 18.0579 34.861 18.1 34.7955 18.1506C32.268 20.1156 29.7439 22.0837 27.223 24.0548C27.0993 24.1521 27.0152 24.3757 27.0152 24.5408C27.0033 28.2235 27.0093 31.9062 27 35.589C27 35.8967 27.0662 36.0007 27.3971 36C32.46 35.9886 37.5226 35.9886 42.585 36C42.8921 36 43.0013 35.9342 43 35.6054C42.9876 31.9091 42.987 28.2139 42.998 24.5197ZM38.8143 22.8053C39.3015 22.5508 39.5483 22.6738 39.5914 23.2124C39.6893 24.4487 39.2538 25.5016 38.4159 26.3993C37.9996 26.8622 37.4521 27.1891 36.8453 27.337C36.5613 26.2789 36.7341 25.3339 37.2126 24.4297C37.5826 23.7312 38.1048 23.1749 38.8143 22.8053ZM36.1907 20.2682C36.7712 20.7213 37.3503 21.1704 37.9235 21.6268C37.9491 21.6505 37.9691 21.6795 37.9821 21.7118C37.995 21.7441 38.0005 21.7789 37.9983 21.8136C37.8295 22.7198 37.4026 23.4715 36.6659 24.0416C35.779 23.2426 35.5308 21.2829 36.1907 20.2682ZM34.9934 23.0236C36.4098 24.1502 36.7347 26.9655 35.0152 28.5806C33.4446 27.2943 33.4373 24.2843 34.9934 23.0236ZM32.0646 21.6492C32.6424 21.1829 33.2295 20.7285 33.8179 20.2682C34.4679 21.3046 34.2415 23.1361 33.3546 24.0509C32.6153 23.4873 32.1884 22.7606 32.013 21.8807C32.0004 21.8064 32.0163 21.6886 32.0646 21.6492ZM30.2398 23.3531C30.2809 22.827 30.5172 22.6955 30.9825 22.921C32.4346 23.6227 33.3281 25.426 33.0031 27.0049C32.9745 27.1162 32.9403 27.2259 32.9005 27.3337C32.3719 27.2082 31.8876 26.9423 31.4994 26.5643C30.582 25.6916 30.1412 24.623 30.2398 23.3531ZM28.5752 24.3593C28.6593 24.3093 28.8367 24.3297 28.9267 24.3876C29.8957 25.0044 30.4139 25.8955 30.5403 27.0838C29.6422 27.2259 28.8731 27.0181 28.1781 26.5216C28.102 26.4676 28.0689 26.3164 28.0643 26.2079C28.0491 25.8843 28.0484 25.9764 28.0484 25.2366C28.0484 24.4967 28.2496 24.552 28.5752 24.3593ZM30.0314 29.2257C29.4438 29.567 28.7571 29.7003 28.0835 29.6039V27.3568C29.02 27.5942 29.6832 28.1328 30.1439 28.9246C30.1776 28.9864 30.1055 29.181 30.0314 29.2231V29.2257ZM29.1219 34.7433C29.0518 34.8432 28.8638 34.8873 28.7248 34.9064C28.5263 34.9333 28.3191 34.9136 28.063 34.9136C28.063 34.4046 28.0563 33.9271 28.0702 33.453C28.079 33.4091 28.0987 33.368 28.1275 33.3336C28.1562 33.2991 28.1932 33.2724 28.235 33.2557C28.6884 33.1689 29.1464 33.1038 29.6653 33.0222C29.6316 33.7397 29.4522 34.2704 29.1219 34.7406V34.7433ZM28.1914 31.7655C28.0775 31.659 28.0636 31.269 28.1675 31.1395C29.1067 29.9636 31.3988 29.9557 32.3532 31.1013C31.5609 32.4041 29.2808 32.7829 28.1914 31.7629V31.7655ZM32.2453 34.7998C32.1985 34.854 32.1341 34.8903 32.0633 34.9024C31.4755 34.9096 30.8878 34.907 30.304 34.907C30.212 33.5543 31.7727 31.9865 33.1547 32.0516C33.2772 33.1215 32.9886 34.033 32.2453 34.7972V34.7998ZM30.6409 27.9039C31.1399 27.7307 31.6807 27.716 32.1884 27.8618C33.346 28.1755 34.074 28.9311 34.444 30.055C34.544 30.3595 34.4361 30.4568 34.1435 30.5016C32.518 30.7521 30.9811 29.6394 30.6409 27.9039ZM36.063 34.715C36.0395 34.7638 36.0045 34.8062 35.9609 34.8386C35.9173 34.871 35.8665 34.8925 35.8128 34.9011C35.2687 34.9182 34.7233 34.9169 34.1786 34.9011C34.1297 34.8928 34.0834 34.8734 34.0432 34.8444C34.003 34.8154 33.9701 34.7777 33.947 34.7341C33.4949 33.6661 34.0648 31.6761 35.0119 30.9803C35.9683 31.7826 36.4382 33.4175 36.063 34.715ZM35.7386 29.6124C36.3019 28.3116 37.717 27.5672 39.048 27.8086C39.32 27.8585 39.3789 27.9539 39.3015 28.2183C38.9004 29.5947 37.7064 30.5279 36.3178 30.5285C35.3594 30.4779 35.3673 30.4713 35.7386 29.6124ZM39.8753 34.907C39.2796 34.907 38.676 34.907 38.075 34.9031C38.0033 34.8985 37.9358 34.8676 37.8857 34.8163C37.1901 34.0508 36.9154 33.1571 37.0405 32.1377C38.3298 32.0226 39.9488 33.601 39.8753 34.907ZM41.209 34.9018C41.0912 34.9018 40.9091 34.8103 40.8674 34.7137C40.6775 34.279 40.5173 33.8298 40.3664 33.38C40.2936 33.1636 40.4161 33.065 40.6312 33.0834C40.9303 33.1084 41.2268 33.1367 41.5267 33.1722C41.851 33.211 41.9662 33.4227 41.9662 33.7226C41.9662 34.0225 41.9628 33.962 41.9628 34.0817C41.9628 34.1172 41.9628 34.1534 41.9628 34.1889C41.9384 35.0175 42.1435 34.9064 41.209 34.9018ZM41.7934 31.803C40.5412 32.7526 38.5198 32.4113 37.6422 31.1033C38.635 29.9472 40.9078 29.9682 41.8662 31.1414C41.9065 31.189 41.9366 31.2443 41.9548 31.3038C41.973 31.3633 41.9789 31.4258 41.9721 31.4877C41.9653 31.5495 41.946 31.6093 41.9153 31.6635C41.8845 31.7177 41.8431 31.7652 41.7934 31.803ZM39.8376 28.9601C40.0481 28.3024 41.2315 27.4298 41.9602 27.4035C41.9602 28.0848 41.9662 28.7654 41.9509 29.4454C41.9509 29.5079 41.8225 29.6151 41.7464 29.6216C41.1162 29.677 40.4846 29.5319 39.9428 29.2073C39.906 29.178 39.8772 29.1401 39.8588 29.0969C39.8404 29.0537 39.8331 29.0067 39.8376 28.9601ZM41.9688 25.7521C41.9688 26.2782 41.7901 26.5413 41.3619 26.7537C40.7285 27.0661 40.0778 27.2095 39.3796 27.0911C39.3001 26.0856 40.2466 24.5868 41.1355 24.281C41.1964 24.26 41.293 24.2488 41.3341 24.281C41.6451 24.5217 41.9681 24.6098 41.9681 25.2142C41.9714 25.3148 41.9827 25.7508 41.9688 25.7521Z" fill="#12022F"/>
<path d="M61.1615 33.192C60.1055 33.192 59.1828 32.952 58.3935 32.472C57.6042 31.992 56.9908 31.3253 56.5535 30.472C56.1162 29.608 55.8975 28.6053 55.8975 27.464C55.8975 26.312 56.1215 25.2987 56.5695 24.424C57.0282 23.5387 57.6735 22.8507 58.5055 22.36C59.3482 21.8587 60.3455 21.608 61.4975 21.608C62.8095 21.608 63.8975 21.9227 64.7615 22.552C65.6255 23.1813 66.1855 24.0507 66.4415 25.16H64.1535C63.9828 24.6373 63.6735 24.232 63.2255 23.944C62.7775 23.6453 62.2015 23.496 61.4975 23.496C60.3775 23.496 59.5135 23.8533 58.9055 24.568C58.2975 25.272 57.9935 26.2427 57.9935 27.48C57.9935 28.7173 58.2922 29.6773 58.8895 30.36C59.4975 31.032 60.3188 31.368 61.3535 31.368C62.3668 31.368 63.1295 31.096 63.6415 30.552C64.1642 29.9973 64.4788 29.272 64.5855 28.376H61.7535V26.84H66.6495V33H64.7615L64.6015 31.528C64.2388 32.0613 63.7855 32.472 63.2415 32.76C62.6975 33.048 62.0042 33.192 61.1615 33.192ZM72.0405 33.192C71.2725 33.192 70.5792 33.016 69.9605 32.664C69.3525 32.312 68.8672 31.8267 68.5045 31.208C68.1525 30.5787 67.9765 29.8533 67.9765 29.032C67.9765 28.2107 68.1578 27.4907 68.5205 26.872C68.8832 26.2427 69.3685 25.752 69.9765 25.4C70.5952 25.048 71.2885 24.872 72.0565 24.872C72.8138 24.872 73.4965 25.048 74.1045 25.4C74.7232 25.752 75.2085 26.2427 75.5605 26.872C75.9232 27.4907 76.1045 28.2107 76.1045 29.032C76.1045 29.8533 75.9232 30.5787 75.5605 31.208C75.2085 31.8267 74.7232 32.312 74.1045 32.664C73.4858 33.016 72.7978 33.192 72.0405 33.192ZM72.0405 31.416C72.5738 31.416 73.0378 31.2187 73.4325 30.824C73.8272 30.4187 74.0245 29.8213 74.0245 29.032C74.0245 28.2427 73.8272 27.6507 73.4325 27.256C73.0378 26.8507 72.5792 26.648 72.0565 26.648C71.5125 26.648 71.0432 26.8507 70.6485 27.256C70.2645 27.6507 70.0725 28.2427 70.0725 29.032C70.0725 29.8213 70.2645 30.4187 70.6485 30.824C71.0432 31.2187 71.5072 31.416 72.0405 31.416ZM84.5641 33C83.7321 33 83.0655 32.7973 82.5641 32.392C82.0628 31.9867 81.8121 31.2667 81.8121 30.232V26.776H80.4521V25.064H81.8121L82.0521 22.936H83.8601V25.064H86.0041V26.776H83.8601V30.248C83.8601 30.632 83.9401 30.8987 84.1001 31.048C84.2708 31.1867 84.5588 31.256 84.9641 31.256H85.9561V33H84.5641ZM91.0074 33.192C90.2394 33.192 89.546 33.016 88.9274 32.664C88.3194 32.312 87.834 31.8267 87.4714 31.208C87.1194 30.5787 86.9434 29.8533 86.9434 29.032C86.9434 28.2107 87.1247 27.4907 87.4874 26.872C87.85 26.2427 88.3354 25.752 88.9434 25.4C89.562 25.048 90.2554 24.872 91.0234 24.872C91.7807 24.872 92.4634 25.048 93.0714 25.4C93.69 25.752 94.1754 26.2427 94.5274 26.872C94.89 27.4907 95.0714 28.2107 95.0714 29.032C95.0714 29.8533 94.89 30.5787 94.5274 31.208C94.1754 31.8267 93.69 32.312 93.0714 32.664C92.4527 33.016 91.7647 33.192 91.0074 33.192ZM91.0074 31.416C91.5407 31.416 92.0047 31.2187 92.3994 30.824C92.794 30.4187 92.9914 29.8213 92.9914 29.032C92.9914 28.2427 92.794 27.6507 92.3994 27.256C92.0047 26.8507 91.546 26.648 91.0234 26.648C90.4794 26.648 90.01 26.8507 89.6154 27.256C89.2314 27.6507 89.0394 28.2427 89.0394 29.032C89.0394 29.8213 89.2314 30.4187 89.6154 30.824C90.01 31.2187 90.474 31.416 91.0074 31.416ZM100.043 33V21.8H102.475L106.043 28.904L109.563 21.8H111.995V33H109.947V25.272L106.827 31.4H105.211L102.091 25.272V33H100.043ZM117.616 33.192C116.816 33.192 116.107 33.0213 115.488 32.68C114.869 32.3387 114.384 31.8587 114.032 31.24C113.68 30.6213 113.504 29.9067 113.504 29.096C113.504 28.2747 113.675 27.544 114.016 26.904C114.368 26.264 114.848 25.768 115.456 25.416C116.075 25.0533 116.8 24.872 117.632 24.872C118.411 24.872 119.099 25.0427 119.696 25.384C120.293 25.7253 120.757 26.1947 121.088 26.792C121.429 27.3787 121.6 28.0347 121.6 28.76C121.6 28.8773 121.595 29 121.584 29.128C121.584 29.256 121.579 29.3893 121.568 29.528H115.536C115.579 30.1467 115.792 30.632 116.176 30.984C116.571 31.336 117.045 31.512 117.6 31.512C118.016 31.512 118.363 31.4213 118.64 31.24C118.928 31.048 119.141 30.8027 119.28 30.504H121.36C121.211 31.0053 120.96 31.464 120.608 31.88C120.267 32.2853 119.84 32.6053 119.328 32.84C118.827 33.0747 118.256 33.192 117.616 33.192ZM117.632 26.536C117.131 26.536 116.688 26.68 116.304 26.968C115.92 27.2453 115.675 27.672 115.568 28.248H119.52C119.488 27.7253 119.296 27.3093 118.944 27C118.592 26.6907 118.155 26.536 117.632 26.536ZM126.358 33C125.526 33 124.859 32.7973 124.358 32.392C123.857 31.9867 123.606 31.2667 123.606 30.232V26.776H122.246V25.064H123.606L123.846 22.936H125.654V25.064H127.798V26.776H125.654V30.248C125.654 30.632 125.734 30.8987 125.894 31.048C126.065 31.1867 126.353 31.256 126.758 31.256H127.75V33H126.358ZM131.932 33.192C131.25 33.192 130.69 33.0853 130.252 32.872C129.815 32.648 129.49 32.3547 129.276 31.992C129.063 31.6293 128.956 31.2293 128.956 30.792C128.956 30.056 129.244 29.4587 129.82 29C130.396 28.5413 131.26 28.312 132.412 28.312H134.428V28.12C134.428 27.576 134.274 27.176 133.964 26.92C133.655 26.664 133.271 26.536 132.812 26.536C132.396 26.536 132.034 26.6373 131.724 26.84C131.415 27.032 131.223 27.32 131.148 27.704H129.148C129.202 27.128 129.394 26.6267 129.724 26.2C130.066 25.7733 130.503 25.448 131.036 25.224C131.57 24.9893 132.167 24.872 132.828 24.872C133.959 24.872 134.85 25.1547 135.5 25.72C136.151 26.2853 136.476 27.0853 136.476 28.12V33H134.732L134.54 31.72C134.306 32.1467 133.975 32.4987 133.548 32.776C133.132 33.0533 132.594 33.192 131.932 33.192ZM132.396 31.592C132.983 31.592 133.436 31.4 133.756 31.016C134.087 30.632 134.295 30.1573 134.38 29.592H132.636C132.092 29.592 131.703 29.6933 131.468 29.896C131.234 30.088 131.116 30.328 131.116 30.616C131.116 30.9253 131.234 31.1653 131.468 31.336C131.703 31.5067 132.012 31.592 132.396 31.592ZM143.367 33.192C142.247 33.192 141.265 32.9467 140.423 32.456C139.591 31.9653 138.935 31.288 138.455 30.424C137.985 29.5493 137.751 28.5413 137.751 27.4C137.751 26.2587 137.985 25.256 138.455 24.392C138.935 23.5173 139.591 22.8347 140.423 22.344C141.265 21.8533 142.247 21.608 143.367 21.608C144.476 21.608 145.452 21.8533 146.295 22.344C147.137 22.8347 147.793 23.5173 148.263 24.392C148.732 25.256 148.967 26.2587 148.967 27.4C148.967 28.5413 148.732 29.5493 148.263 30.424C147.793 31.288 147.137 31.9653 146.295 32.456C145.452 32.9467 144.476 33.192 143.367 33.192ZM143.367 31.352C144.433 31.352 145.281 31 145.911 30.296C146.551 29.592 146.871 28.6267 146.871 27.4C146.871 26.1733 146.551 25.208 145.911 24.504C145.281 23.8 144.433 23.448 143.367 23.448C142.3 23.448 141.447 23.8 140.807 24.504C140.167 25.208 139.847 26.1733 139.847 27.4C139.847 28.6267 140.167 29.592 140.807 30.296C141.447 31 142.3 31.352 143.367 31.352ZM153.103 33.192C152.42 33.192 151.86 33.0853 151.423 32.872C150.986 32.648 150.66 32.3547 150.447 31.992C150.234 31.6293 150.127 31.2293 150.127 30.792C150.127 30.056 150.415 29.4587 150.991 29C151.567 28.5413 152.431 28.312 153.583 28.312H155.599V28.12C155.599 27.576 155.444 27.176 155.135 26.92C154.826 26.664 154.442 26.536 153.983 26.536C153.567 26.536 153.204 26.6373 152.895 26.84C152.586 27.032 152.394 27.32 152.319 27.704H150.319C150.372 27.128 150.564 26.6267 150.895 26.2C151.236 25.7733 151.674 25.448 152.207 25.224C152.74 24.9893 153.338 24.872 153.999 24.872C155.13 24.872 156.02 25.1547 156.671 25.72C157.322 26.2853 157.647 27.0853 157.647 28.12V33H155.903L155.711 31.72C155.476 32.1467 155.146 32.4987 154.719 32.776C154.303 33.0533 153.764 33.192 153.103 33.192ZM153.567 31.592C154.154 31.592 154.607 31.4 154.927 31.016C155.258 30.632 155.466 30.1573 155.551 29.592H153.807C153.263 29.592 152.874 29.6933 152.639 29.896C152.404 30.088 152.287 30.328 152.287 30.616C152.287 30.9253 152.404 31.1653 152.639 31.336C152.874 31.5067 153.183 31.592 153.567 31.592ZM162.521 33.192C161.817 33.192 161.199 33.08 160.665 32.856C160.132 32.6213 159.705 32.3013 159.385 31.896C159.065 31.4907 158.873 31.0213 158.809 30.488H160.873C160.937 30.7973 161.108 31.064 161.385 31.288C161.673 31.5013 162.041 31.608 162.489 31.608C162.937 31.608 163.263 31.5173 163.465 31.336C163.679 31.1547 163.785 30.9467 163.785 30.712C163.785 30.3707 163.636 30.1413 163.337 30.024C163.039 29.896 162.623 29.7733 162.089 29.656C161.748 29.5813 161.401 29.4907 161.049 29.384C160.697 29.2773 160.372 29.144 160.073 28.984C159.785 28.8133 159.551 28.6 159.369 28.344C159.188 28.0773 159.097 27.752 159.097 27.368C159.097 26.664 159.375 26.072 159.929 25.592C160.495 25.112 161.284 24.872 162.297 24.872C163.236 24.872 163.983 25.0907 164.537 25.528C165.103 25.9653 165.439 26.568 165.545 27.336H163.609C163.492 26.7493 163.049 26.456 162.281 26.456C161.897 26.456 161.599 26.5307 161.385 26.68C161.183 26.8293 161.081 27.016 161.081 27.24C161.081 27.4747 161.236 27.6613 161.545 27.8C161.855 27.9387 162.265 28.0667 162.777 28.184C163.332 28.312 163.839 28.456 164.297 28.616C164.767 28.7653 165.14 28.9947 165.417 29.304C165.695 29.6027 165.833 30.0347 165.833 30.6C165.844 31.0907 165.716 31.5333 165.449 31.928C165.183 32.3227 164.799 32.632 164.297 32.856C163.796 33.08 163.204 33.192 162.521 33.192ZM168.391 23.832C168.018 23.832 167.709 23.72 167.463 23.496C167.229 23.272 167.111 22.9893 167.111 22.648C167.111 22.3067 167.229 22.0293 167.463 21.816C167.709 21.592 168.018 21.48 168.391 21.48C168.765 21.48 169.069 21.592 169.303 21.816C169.549 22.0293 169.671 22.3067 169.671 22.648C169.671 22.9893 169.549 23.272 169.303 23.496C169.069 23.72 168.765 23.832 168.391 23.832ZM167.367 33V25.064H169.415V33H167.367ZM174.473 33.192C173.769 33.192 173.15 33.08 172.617 32.856C172.084 32.6213 171.657 32.3013 171.337 31.896C171.017 31.4907 170.825 31.0213 170.761 30.488H172.825C172.889 30.7973 173.06 31.064 173.337 31.288C173.625 31.5013 173.993 31.608 174.441 31.608C174.889 31.608 175.214 31.5173 175.417 31.336C175.63 31.1547 175.737 30.9467 175.737 30.712C175.737 30.3707 175.588 30.1413 175.289 30.024C174.99 29.896 174.574 29.7733 174.041 29.656C173.7 29.5813 173.353 29.4907 173.001 29.384C172.649 29.2773 172.324 29.144 172.025 28.984C171.737 28.8133 171.502 28.6 171.321 28.344C171.14 28.0773 171.049 27.752 171.049 27.368C171.049 26.664 171.326 26.072 171.881 25.592C172.446 25.112 173.236 24.872 174.249 24.872C175.188 24.872 175.934 25.0907 176.489 25.528C177.054 25.9653 177.39 26.568 177.497 27.336H175.561C175.444 26.7493 175.001 26.456 174.233 26.456C173.849 26.456 173.55 26.5307 173.337 26.68C173.134 26.8293 173.033 27.016 173.033 27.24C173.033 27.4747 173.188 27.6613 173.497 27.8C173.806 27.9387 174.217 28.0667 174.729 28.184C175.284 28.312 175.79 28.456 176.249 28.616C176.718 28.7653 177.092 28.9947 177.369 29.304C177.646 29.6027 177.785 30.0347 177.785 30.6C177.796 31.0907 177.668 31.5333 177.401 31.928C177.134 32.3227 176.75 32.632 176.249 32.856C175.748 33.08 175.156 33.192 174.473 33.192ZM182.74 33V21.8H186.564C187.876 21.8 188.953 22.0347 189.796 22.504C190.649 22.9627 191.279 23.6133 191.684 24.456C192.1 25.288 192.308 26.2693 192.308 27.4C192.308 28.5307 192.1 29.5173 191.684 30.36C191.279 31.192 190.649 31.8427 189.796 32.312C188.953 32.7707 187.876 33 186.564 33H182.74ZM184.788 31.24H186.468C187.407 31.24 188.148 31.0907 188.692 30.792C189.236 30.4827 189.625 30.0453 189.86 29.48C190.095 28.904 190.212 28.2107 190.212 27.4C190.212 26.6 190.095 25.912 189.86 25.336C189.625 24.76 189.236 24.3173 188.692 24.008C188.148 23.6987 187.407 23.544 186.468 23.544H184.788V31.24ZM192.316 33L196.412 21.8H198.716L202.812 33H200.636L199.74 30.408H195.372L194.46 33H192.316ZM195.932 28.808H199.18L197.548 24.152L195.932 28.808ZM208.502 33.192C207.382 33.192 206.401 32.9467 205.558 32.456C204.726 31.9653 204.07 31.288 203.59 30.424C203.121 29.5493 202.886 28.5413 202.886 27.4C202.886 26.2587 203.121 25.256 203.59 24.392C204.07 23.5173 204.726 22.8347 205.558 22.344C206.401 21.8533 207.382 21.608 208.502 21.608C209.612 21.608 210.588 21.8533 211.43 22.344C212.273 22.8347 212.929 23.5173 213.398 24.392C213.868 25.256 214.102 26.2587 214.102 27.4C214.102 28.5413 213.868 29.5493 213.398 30.424C212.929 31.288 212.273 31.9653 211.43 32.456C210.588 32.9467 209.612 33.192 208.502 33.192ZM208.502 31.352C209.569 31.352 210.417 31 211.046 30.296C211.686 29.592 212.006 28.6267 212.006 27.4C212.006 26.1733 211.686 25.208 211.046 24.504C210.417 23.8 209.569 23.448 208.502 23.448C207.436 23.448 206.582 23.8 205.942 24.504C205.302 25.208 204.982 26.1733 204.982 27.4C204.982 28.6267 205.302 29.592 205.942 30.296C206.582 31 207.436 31.352 208.502 31.352Z" fill="#12022F"/>
</svg>
