<svg width="190" height="56" viewBox="0 0 190 56" fill="none" xmlns="http://www.w3.org/2000/svg">
<rect x="0.5" width="189" height="56" rx="28" fill="#FFC233"/>
<g clip-path="url(#clip0_151_2597)">
<path d="M25.6904 26.3899C25.4118 26.4129 25.1519 26.5397 24.9625 26.7454C24.7731 26.951 24.668 27.2204 24.668 27.4999C24.668 27.7795 24.7731 28.0489 24.9625 28.2545C25.1519 28.4601 25.4118 28.587 25.6904 28.6099C25.8303 28.6042 25.9677 28.5708 26.0947 28.5119C26.2217 28.453 26.3358 28.3696 26.4306 28.2665C26.5253 28.1634 26.5988 28.0426 26.6468 27.9111C26.6948 27.7795 26.7164 27.6398 26.7104 27.4999C26.7173 27.3599 26.6963 27.2198 26.6485 27.0879C26.6008 26.956 26.5274 26.8349 26.4325 26.7316C26.3376 26.6284 26.2231 26.545 26.0957 26.4863C25.9683 26.4277 25.8306 26.3949 25.6904 26.3899ZM29.3404 26.3899C29.1169 26.3711 28.893 26.4201 28.6978 26.5306C28.5027 26.6411 28.3454 26.808 28.2467 27.0093C28.1479 27.2107 28.1123 27.4372 28.1444 27.6591C28.1765 27.8811 28.2748 28.0882 28.4266 28.2533C28.5783 28.4185 28.7764 28.5339 28.9948 28.5846C29.2133 28.6354 29.442 28.6189 29.6509 28.5375C29.8599 28.4561 30.0394 28.3135 30.166 28.1284C30.2926 27.9432 30.3604 27.7242 30.3604 27.4999C30.3664 27.3601 30.3448 27.2203 30.2968 27.0888C30.2488 26.9573 30.1753 26.8365 30.0806 26.7334C29.9858 26.6303 29.8717 26.5469 29.7447 26.488C29.6177 26.429 29.4803 26.3957 29.3404 26.3899Z" fill="black"/>
<path d="M34.2 18H20.8C20.5301 18.0007 20.263 18.0545 20.014 18.1583C19.7649 18.2622 19.5387 18.4141 19.3484 18.6054C19.158 18.7967 19.0072 19.0236 18.9045 19.2732C18.8019 19.5228 18.7493 19.7901 18.75 20.06V33.58C18.7493 33.8499 18.8019 34.1172 18.9045 34.3668C19.0072 34.6164 19.158 34.8433 19.3484 35.0346C19.5387 35.2259 19.7649 35.3778 20.014 35.4817C20.263 35.5855 20.5301 35.6393 20.8 35.64H32.14L31.61 33.79L32.89 34.98L34.1 36.105L36.25 38V20.06C36.2507 19.7901 36.1982 19.5228 36.0955 19.2732C35.9928 19.0236 35.842 18.7967 35.6516 18.6054C35.4613 18.4141 35.2351 18.2622 34.986 18.1583C34.737 18.0545 34.4699 18.0007 34.2 18V18ZM30.34 31.06C30.34 31.06 29.98 30.625 29.68 30.25C30.4049 30.0794 31.046 29.6578 31.49 29.06C31.1302 29.2995 30.7444 29.4974 30.34 29.65C29.8748 29.8486 29.3883 29.9929 28.89 30.08C28.0336 30.2378 27.1552 30.2344 26.3 30.07C25.7979 29.9718 25.3059 29.8278 24.83 29.64C24.4295 29.4857 24.0472 29.2879 23.69 29.05C24.118 29.6353 24.737 30.0527 25.44 30.23C25.14 30.605 24.77 31.06 24.77 31.06C24.176 31.076 23.5871 30.9458 23.0553 30.6807C22.5234 30.4157 22.0649 30.0239 21.72 29.54C21.7525 27.5127 22.2448 25.5193 23.16 23.71C23.9654 23.0775 24.9472 22.7106 25.97 22.66L26.07 22.785C25.1095 23.0239 24.2134 23.4712 23.445 24.095C23.445 24.095 23.665 23.97 24.035 23.805C24.7541 23.4786 25.5202 23.2677 26.305 23.18C26.361 23.1684 26.4179 23.1617 26.475 23.16C27.1429 23.0681 27.8193 23.0564 28.49 23.125C29.5463 23.2456 30.5689 23.5718 31.5 24.085C30.7688 23.492 29.9201 23.0608 29.01 22.82L29.15 22.66C30.1728 22.7106 31.1547 23.0775 31.96 23.71C32.8752 25.5193 33.3676 27.5127 33.4 29.54C33.0524 30.0235 32.5919 30.4147 32.0586 30.6796C31.5252 30.9445 30.9353 31.0751 30.34 31.06Z" fill="black"/>
</g>
<path d="M51.7241 33.192C50.6361 33.192 49.7615 32.888 49.1001 32.28C48.4495 31.6613 48.1241 30.7867 48.1241 29.656H50.1721C50.1828 30.1787 50.3055 30.5947 50.5401 30.904C50.7748 31.2133 51.1535 31.368 51.6761 31.368C52.1668 31.368 52.5241 31.224 52.7481 30.936C52.9721 30.6373 53.0841 30.248 53.0841 29.768V21.8H55.1321V29.768C55.1321 30.8667 54.8228 31.7147 54.2041 32.312C53.5961 32.8987 52.7695 33.192 51.7241 33.192ZM60.7118 33.192C59.9438 33.192 59.2504 33.016 58.6318 32.664C58.0238 32.312 57.5384 31.8267 57.1758 31.208C56.8238 30.5787 56.6478 29.8533 56.6478 29.032C56.6478 28.2107 56.8291 27.4907 57.1918 26.872C57.5544 26.2427 58.0398 25.752 58.6478 25.4C59.2664 25.048 59.9598 24.872 60.7278 24.872C61.4851 24.872 62.1678 25.048 62.7758 25.4C63.3944 25.752 63.8798 26.2427 64.2318 26.872C64.5944 27.4907 64.7758 28.2107 64.7758 29.032C64.7758 29.8533 64.5944 30.5787 64.2318 31.208C63.8798 31.8267 63.3944 32.312 62.7758 32.664C62.1571 33.016 61.4691 33.192 60.7118 33.192ZM60.7118 31.416C61.2451 31.416 61.7091 31.2187 62.1038 30.824C62.4984 30.4187 62.6958 29.8213 62.6958 29.032C62.6958 28.2427 62.4984 27.6507 62.1038 27.256C61.7091 26.8507 61.2504 26.648 60.7278 26.648C60.1838 26.648 59.7144 26.8507 59.3198 27.256C58.9358 27.6507 58.7438 28.2427 58.7438 29.032C58.7438 29.8213 58.9358 30.4187 59.3198 30.824C59.7144 31.2187 60.1784 31.416 60.7118 31.416ZM67.3509 23.832C66.9775 23.832 66.6682 23.72 66.4229 23.496C66.1882 23.272 66.0709 22.9893 66.0709 22.648C66.0709 22.3067 66.1882 22.0293 66.4229 21.816C66.6682 21.592 66.9775 21.48 67.3509 21.48C67.7242 21.48 68.0282 21.592 68.2629 21.816C68.5082 22.0293 68.6309 22.3067 68.6309 22.648C68.6309 22.9893 68.5082 23.272 68.2629 23.496C68.0282 23.72 67.7242 23.832 67.3509 23.832ZM66.3269 33V25.064H68.3749V33H66.3269ZM70.1525 33V25.064H71.9605L72.1205 26.408C72.3658 25.9387 72.7178 25.5653 73.1765 25.288C73.6458 25.0107 74.1952 24.872 74.8245 24.872C75.8058 24.872 76.5685 25.1813 77.1125 25.8C77.6565 26.4187 77.9285 27.3253 77.9285 28.52V33H75.8805V28.712C75.8805 28.0293 75.7418 27.5067 75.4645 27.144C75.1872 26.7813 74.7552 26.6 74.1685 26.6C73.5925 26.6 73.1178 26.8027 72.7445 27.208C72.3818 27.6133 72.2005 28.1787 72.2005 28.904V33H70.1525ZM86.7874 33.192C86.0194 33.192 85.326 33.016 84.7074 32.664C84.0994 32.312 83.614 31.8267 83.2514 31.208C82.8994 30.5787 82.7234 29.8533 82.7234 29.032C82.7234 28.2107 82.9047 27.4907 83.2674 26.872C83.63 26.2427 84.1154 25.752 84.7234 25.4C85.342 25.048 86.0354 24.872 86.8034 24.872C87.5607 24.872 88.2434 25.048 88.8514 25.4C89.47 25.752 89.9554 26.2427 90.3074 26.872C90.67 27.4907 90.8514 28.2107 90.8514 29.032C90.8514 29.8533 90.67 30.5787 90.3074 31.208C89.9554 31.8267 89.47 32.312 88.8514 32.664C88.2327 33.016 87.5447 33.192 86.7874 33.192ZM86.7874 31.416C87.3207 31.416 87.7847 31.2187 88.1794 30.824C88.574 30.4187 88.7714 29.8213 88.7714 29.032C88.7714 28.2427 88.574 27.6507 88.1794 27.256C87.7847 26.8507 87.326 26.648 86.8034 26.648C86.2594 26.648 85.79 26.8507 85.3954 27.256C85.0114 27.6507 84.8194 28.2427 84.8194 29.032C84.8194 29.8213 85.0114 30.4187 85.3954 30.824C85.79 31.2187 86.254 31.416 86.7874 31.416ZM95.2985 33.192C94.3065 33.192 93.5385 32.8827 92.9945 32.264C92.4612 31.6453 92.1945 30.7387 92.1945 29.544V25.064H94.2265V29.352C94.2265 30.0347 94.3652 30.5573 94.6425 30.92C94.9198 31.2827 95.3572 31.464 95.9545 31.464C96.5198 31.464 96.9838 31.2613 97.3465 30.856C97.7198 30.4507 97.9065 29.8853 97.9065 29.16V25.064H99.9545V33H98.1465L97.9865 31.656C97.7412 32.1253 97.3838 32.4987 96.9145 32.776C96.4558 33.0533 95.9172 33.192 95.2985 33.192ZM101.697 33V25.064H103.521L103.713 26.552C104.001 26.04 104.39 25.6347 104.881 25.336C105.382 25.0267 105.969 24.872 106.641 24.872V27.032H106.065C105.617 27.032 105.217 27.1013 104.865 27.24C104.513 27.3787 104.236 27.6187 104.033 27.96C103.841 28.3013 103.745 28.776 103.745 29.384V33H101.697ZM111.181 33V21.8H115.005C116.317 21.8 117.394 22.0347 118.237 22.504C119.09 22.9627 119.72 23.6133 120.125 24.456C120.541 25.288 120.749 26.2693 120.749 27.4C120.749 28.5307 120.541 29.5173 120.125 30.36C119.72 31.192 119.09 31.8427 118.237 32.312C117.394 32.7707 116.317 33 115.005 33H111.181ZM113.229 31.24H114.909C115.848 31.24 116.589 31.0907 117.133 30.792C117.677 30.4827 118.066 30.0453 118.301 29.48C118.536 28.904 118.653 28.2107 118.653 27.4C118.653 26.6 118.536 25.912 118.301 25.336C118.066 24.76 117.677 24.3173 117.133 24.008C116.589 23.6987 115.848 23.544 114.909 23.544H113.229V31.24ZM123.252 23.832C122.879 23.832 122.569 23.72 122.324 23.496C122.089 23.272 121.972 22.9893 121.972 22.648C121.972 22.3067 122.089 22.0293 122.324 21.816C122.569 21.592 122.879 21.48 123.252 21.48C123.625 21.48 123.929 21.592 124.164 21.816C124.409 22.0293 124.532 22.3067 124.532 22.648C124.532 22.9893 124.409 23.272 124.164 23.496C123.929 23.72 123.625 23.832 123.252 23.832ZM122.228 33V25.064H124.276V33H122.228ZM129.334 33.192C128.63 33.192 128.011 33.08 127.478 32.856C126.944 32.6213 126.518 32.3013 126.198 31.896C125.878 31.4907 125.686 31.0213 125.622 30.488H127.686C127.75 30.7973 127.92 31.064 128.198 31.288C128.486 31.5013 128.854 31.608 129.302 31.608C129.75 31.608 130.075 31.5173 130.278 31.336C130.491 31.1547 130.598 30.9467 130.598 30.712C130.598 30.3707 130.448 30.1413 130.15 30.024C129.851 29.896 129.435 29.7733 128.902 29.656C128.56 29.5813 128.214 29.4907 127.862 29.384C127.51 29.2773 127.184 29.144 126.886 28.984C126.598 28.8133 126.363 28.6 126.182 28.344C126 28.0773 125.91 27.752 125.91 27.368C125.91 26.664 126.187 26.072 126.742 25.592C127.307 25.112 128.096 24.872 129.11 24.872C130.048 24.872 130.795 25.0907 131.35 25.528C131.915 25.9653 132.251 26.568 132.358 27.336H130.422C130.304 26.7493 129.862 26.456 129.094 26.456C128.71 26.456 128.411 26.5307 128.198 26.68C127.995 26.8293 127.894 27.016 127.894 27.24C127.894 27.4747 128.048 27.6613 128.358 27.8C128.667 27.9387 129.078 28.0667 129.59 28.184C130.144 28.312 130.651 28.456 131.11 28.616C131.579 28.7653 131.952 28.9947 132.23 29.304C132.507 29.6027 132.646 30.0347 132.646 30.6C132.656 31.0907 132.528 31.5333 132.262 31.928C131.995 32.3227 131.611 32.632 131.11 32.856C130.608 33.08 130.016 33.192 129.334 33.192ZM137.988 33.192C137.177 33.192 136.463 33.016 135.844 32.664C135.225 32.312 134.735 31.8213 134.372 31.192C134.02 30.5627 133.844 29.8427 133.844 29.032C133.844 28.2213 134.02 27.5013 134.372 26.872C134.735 26.2427 135.225 25.752 135.844 25.4C136.463 25.048 137.177 24.872 137.988 24.872C139.001 24.872 139.855 25.1387 140.548 25.672C141.241 26.1947 141.684 26.92 141.876 27.848H139.716C139.609 27.464 139.396 27.1653 139.076 26.952C138.767 26.728 138.399 26.616 137.972 26.616C137.407 26.616 136.927 26.8293 136.532 27.256C136.137 27.6827 135.94 28.2747 135.94 29.032C135.94 29.7893 136.137 30.3813 136.532 30.808C136.927 31.2347 137.407 31.448 137.972 31.448C138.399 31.448 138.767 31.3413 139.076 31.128C139.396 30.9147 139.609 30.6107 139.716 30.216H141.876C141.684 31.112 141.241 31.832 140.548 32.376C139.855 32.92 139.001 33.192 137.988 33.192ZM147.142 33.192C146.374 33.192 145.68 33.016 145.062 32.664C144.454 32.312 143.968 31.8267 143.606 31.208C143.254 30.5787 143.078 29.8533 143.078 29.032C143.078 28.2107 143.259 27.4907 143.622 26.872C143.984 26.2427 144.47 25.752 145.078 25.4C145.696 25.048 146.39 24.872 147.158 24.872C147.915 24.872 148.598 25.048 149.206 25.4C149.824 25.752 150.31 26.2427 150.662 26.872C151.024 27.4907 151.206 28.2107 151.206 29.032C151.206 29.8533 151.024 30.5787 150.662 31.208C150.31 31.8267 149.824 32.312 149.206 32.664C148.587 33.016 147.899 33.192 147.142 33.192ZM147.142 31.416C147.675 31.416 148.139 31.2187 148.534 30.824C148.928 30.4187 149.126 29.8213 149.126 29.032C149.126 28.2427 148.928 27.6507 148.534 27.256C148.139 26.8507 147.68 26.648 147.158 26.648C146.614 26.648 146.144 26.8507 145.75 27.256C145.366 27.6507 145.174 28.2427 145.174 29.032C145.174 29.8213 145.366 30.4187 145.75 30.824C146.144 31.2187 146.608 31.416 147.142 31.416ZM152.677 33V25.064H154.501L154.693 26.552C154.981 26.04 155.37 25.6347 155.861 25.336C156.362 25.0267 156.949 24.872 157.621 24.872V27.032H157.045C156.597 27.032 156.197 27.1013 155.845 27.24C155.493 27.3787 155.216 27.6187 155.013 27.96C154.821 28.3013 154.725 28.776 154.725 29.384V33H152.677ZM162.168 33.192C161.421 33.192 160.755 33.0107 160.168 32.648C159.581 32.2853 159.117 31.7893 158.776 31.16C158.435 30.5307 158.264 29.816 158.264 29.016C158.264 28.216 158.435 27.5067 158.776 26.888C159.117 26.2587 159.581 25.768 160.168 25.416C160.755 25.0533 161.421 24.872 162.168 24.872C162.765 24.872 163.288 24.984 163.736 25.208C164.184 25.432 164.547 25.7467 164.824 26.152V21.48H166.872V33H165.048L164.824 31.864C164.568 32.216 164.227 32.5253 163.8 32.792C163.384 33.0587 162.84 33.192 162.168 33.192ZM162.6 31.4C163.261 31.4 163.8 31.1813 164.216 30.744C164.643 30.296 164.856 29.7253 164.856 29.032C164.856 28.3387 164.643 27.7733 164.216 27.336C163.8 26.888 163.261 26.664 162.6 26.664C161.949 26.664 161.411 26.8827 160.984 27.32C160.557 27.7573 160.344 28.3227 160.344 29.016C160.344 29.7093 160.557 30.28 160.984 30.728C161.411 31.176 161.949 31.4 162.6 31.4ZM169.029 29.464L168.805 21.8H170.997L170.757 29.464H169.029ZM169.941 33.112C169.557 33.112 169.243 32.9947 168.997 32.76C168.763 32.5253 168.645 32.2427 168.645 31.912C168.645 31.5707 168.763 31.2827 168.997 31.048C169.243 30.8133 169.557 30.696 169.941 30.696C170.304 30.696 170.603 30.8133 170.837 31.048C171.083 31.2827 171.205 31.5707 171.205 31.912C171.205 32.2427 171.083 32.5253 170.837 32.76C170.603 32.9947 170.304 33.112 169.941 33.112Z" fill="#12022F"/>
<defs>
<clipPath id="clip0_151_2597">
<rect width="20" height="20" fill="white" transform="translate(17.5 18)"/>
</clipPath>
</defs>
</svg>
