<svg width="346" height="227" viewBox="0 0 346 227" fill="none" xmlns="http://www.w3.org/2000/svg">
<rect x="157" y="77" width="189" height="56" rx="28" fill="#FFC233"/>
<g clip-path="url(#clip0_0_1)">
<path d="M182.19 103.39C181.912 103.413 181.652 103.54 181.463 103.746C181.273 103.951 181.168 104.221 181.168 104.5C181.168 104.78 181.273 105.049 181.463 105.255C181.652 105.46 181.912 105.587 182.19 105.61C182.33 105.604 182.468 105.571 182.595 105.512C182.722 105.453 182.836 105.37 182.931 105.267C183.025 105.164 183.099 105.043 183.147 104.911C183.195 104.78 183.216 104.64 183.21 104.5C183.217 104.36 183.196 104.22 183.149 104.088C183.101 103.956 183.027 103.835 182.933 103.732C182.838 103.629 182.723 103.545 182.596 103.487C182.468 103.428 182.331 103.395 182.19 103.39ZM185.84 103.39C185.617 103.371 185.393 103.42 185.198 103.531C185.003 103.641 184.845 103.808 184.747 104.01C184.648 104.211 184.612 104.437 184.644 104.659C184.676 104.881 184.775 105.088 184.927 105.254C185.078 105.419 185.276 105.534 185.495 105.585C185.713 105.636 185.942 105.619 186.151 105.538C186.36 105.456 186.539 105.314 186.666 105.129C186.793 104.943 186.86 104.724 186.86 104.5C186.866 104.36 186.845 104.221 186.797 104.089C186.749 103.958 186.675 103.837 186.581 103.734C186.486 103.631 186.372 103.547 186.245 103.488C186.118 103.429 185.98 103.396 185.84 103.39V103.39Z" fill="black"/>
<path d="M190.7 95H177.3C177.03 95.0007 176.763 95.0545 176.514 95.1583C176.265 95.2622 176.039 95.4141 175.848 95.6054C175.658 95.7967 175.507 96.0236 175.405 96.2732C175.302 96.5228 175.249 96.7901 175.25 97.06V110.58C175.249 110.85 175.302 111.117 175.405 111.367C175.507 111.616 175.658 111.843 175.848 112.035C176.039 112.226 176.265 112.378 176.514 112.482C176.763 112.586 177.03 112.639 177.3 112.64H188.64L188.11 110.79L189.39 111.98L190.6 113.105L192.75 115V97.06C192.751 96.7901 192.698 96.5228 192.595 96.2732C192.493 96.0236 192.342 95.7967 192.152 95.6054C191.961 95.4141 191.735 95.2622 191.486 95.1583C191.237 95.0545 190.97 95.0007 190.7 95V95ZM186.84 108.06C186.84 108.06 186.48 107.625 186.18 107.25C186.905 107.079 187.546 106.658 187.99 106.06C187.63 106.299 187.244 106.497 186.84 106.65C186.375 106.849 185.888 106.993 185.39 107.08C184.534 107.238 183.655 107.234 182.8 107.07C182.298 106.972 181.806 106.828 181.33 106.64C180.93 106.486 180.547 106.288 180.19 106.05C180.618 106.635 181.237 107.053 181.94 107.23C181.64 107.605 181.27 108.06 181.27 108.06C180.676 108.076 180.087 107.946 179.555 107.681C179.023 107.416 178.565 107.024 178.22 106.54C178.252 104.513 178.745 102.519 179.66 100.71C180.465 100.077 181.447 99.7106 182.47 99.66L182.57 99.785C181.61 100.024 180.713 100.471 179.945 101.095C179.945 101.095 180.165 100.97 180.535 100.805C181.254 100.479 182.02 100.268 182.805 100.18C182.861 100.168 182.918 100.162 182.975 100.16C183.643 100.068 184.319 100.056 184.99 100.125C186.046 100.246 187.069 100.572 188 101.085C187.269 100.492 186.42 100.061 185.51 99.82L185.65 99.66C186.673 99.7106 187.655 100.077 188.46 100.71C189.375 102.519 189.868 104.513 189.9 106.54C189.552 107.023 189.092 107.415 188.559 107.68C188.025 107.944 187.435 108.075 186.84 108.06Z" fill="black"/>
</g>
<path d="M208.224 110.192C207.136 110.192 206.261 109.888 205.6 109.28C204.949 108.661 204.624 107.787 204.624 106.656H206.672C206.683 107.179 206.805 107.595 207.04 107.904C207.275 108.213 207.653 108.368 208.176 108.368C208.667 108.368 209.024 108.224 209.248 107.936C209.472 107.637 209.584 107.248 209.584 106.768V98.8H211.632V106.768C211.632 107.867 211.323 108.715 210.704 109.312C210.096 109.899 209.269 110.192 208.224 110.192ZM217.212 110.192C216.444 110.192 215.75 110.016 215.132 109.664C214.524 109.312 214.038 108.827 213.676 108.208C213.324 107.579 213.148 106.853 213.148 106.032C213.148 105.211 213.329 104.491 213.692 103.872C214.054 103.243 214.54 102.752 215.148 102.4C215.766 102.048 216.46 101.872 217.228 101.872C217.985 101.872 218.668 102.048 219.276 102.4C219.894 102.752 220.38 103.243 220.732 103.872C221.094 104.491 221.276 105.211 221.276 106.032C221.276 106.853 221.094 107.579 220.732 108.208C220.38 108.827 219.894 109.312 219.276 109.664C218.657 110.016 217.969 110.192 217.212 110.192ZM217.212 108.416C217.745 108.416 218.209 108.219 218.604 107.824C218.998 107.419 219.196 106.821 219.196 106.032C219.196 105.243 218.998 104.651 218.604 104.256C218.209 103.851 217.75 103.648 217.228 103.648C216.684 103.648 216.214 103.851 215.82 104.256C215.436 104.651 215.244 105.243 215.244 106.032C215.244 106.821 215.436 107.419 215.82 107.824C216.214 108.219 216.678 108.416 217.212 108.416ZM223.851 100.832C223.478 100.832 223.168 100.72 222.923 100.496C222.688 100.272 222.571 99.9893 222.571 99.648C222.571 99.3067 222.688 99.0293 222.923 98.816C223.168 98.592 223.478 98.48 223.851 98.48C224.224 98.48 224.528 98.592 224.763 98.816C225.008 99.0293 225.131 99.3067 225.131 99.648C225.131 99.9893 225.008 100.272 224.763 100.496C224.528 100.72 224.224 100.832 223.851 100.832ZM222.827 110V102.064H224.875V110H222.827ZM226.653 110V102.064H228.461L228.621 103.408C228.866 102.939 229.218 102.565 229.677 102.288C230.146 102.011 230.695 101.872 231.325 101.872C232.306 101.872 233.069 102.181 233.613 102.8C234.157 103.419 234.429 104.325 234.429 105.52V110H232.381V105.712C232.381 105.029 232.242 104.507 231.965 104.144C231.687 103.781 231.255 103.6 230.669 103.6C230.093 103.6 229.618 103.803 229.245 104.208C228.882 104.613 228.701 105.179 228.701 105.904V110H226.653ZM243.287 110.192C242.519 110.192 241.826 110.016 241.207 109.664C240.599 109.312 240.114 108.827 239.751 108.208C239.399 107.579 239.223 106.853 239.223 106.032C239.223 105.211 239.405 104.491 239.767 103.872C240.13 103.243 240.615 102.752 241.223 102.4C241.842 102.048 242.535 101.872 243.303 101.872C244.061 101.872 244.743 102.048 245.351 102.4C245.97 102.752 246.455 103.243 246.807 103.872C247.17 104.491 247.351 105.211 247.351 106.032C247.351 106.853 247.17 107.579 246.807 108.208C246.455 108.827 245.97 109.312 245.351 109.664C244.733 110.016 244.045 110.192 243.287 110.192ZM243.287 108.416C243.821 108.416 244.285 108.219 244.679 107.824C245.074 107.419 245.271 106.821 245.271 106.032C245.271 105.243 245.074 104.651 244.679 104.256C244.285 103.851 243.826 103.648 243.303 103.648C242.759 103.648 242.29 103.851 241.895 104.256C241.511 104.651 241.319 105.243 241.319 106.032C241.319 106.821 241.511 107.419 241.895 107.824C242.29 108.219 242.754 108.416 243.287 108.416ZM251.799 110.192C250.807 110.192 250.039 109.883 249.495 109.264C248.961 108.645 248.695 107.739 248.695 106.544V102.064H250.727V106.352C250.727 107.035 250.865 107.557 251.143 107.92C251.42 108.283 251.857 108.464 252.455 108.464C253.02 108.464 253.484 108.261 253.847 107.856C254.22 107.451 254.407 106.885 254.407 106.16V102.064H256.455V110H254.647L254.487 108.656C254.241 109.125 253.884 109.499 253.415 109.776C252.956 110.053 252.417 110.192 251.799 110.192ZM258.197 110V102.064H260.021L260.213 103.552C260.501 103.04 260.89 102.635 261.381 102.336C261.882 102.027 262.469 101.872 263.141 101.872V104.032H262.565C262.117 104.032 261.717 104.101 261.365 104.24C261.013 104.379 260.736 104.619 260.533 104.96C260.341 105.301 260.245 105.776 260.245 106.384V110H258.197ZM267.681 110V98.8H271.505C272.817 98.8 273.894 99.0347 274.737 99.504C275.59 99.9627 276.22 100.613 276.625 101.456C277.041 102.288 277.249 103.269 277.249 104.4C277.249 105.531 277.041 106.517 276.625 107.36C276.22 108.192 275.59 108.843 274.737 109.312C273.894 109.771 272.817 110 271.505 110H267.681ZM269.729 108.24H271.409C272.348 108.24 273.089 108.091 273.633 107.792C274.177 107.483 274.566 107.045 274.801 106.48C275.036 105.904 275.153 105.211 275.153 104.4C275.153 103.6 275.036 102.912 274.801 102.336C274.566 101.76 274.177 101.317 273.633 101.008C273.089 100.699 272.348 100.544 271.409 100.544H269.729V108.24ZM279.752 100.832C279.379 100.832 279.069 100.72 278.824 100.496C278.589 100.272 278.472 99.9893 278.472 99.648C278.472 99.3067 278.589 99.0293 278.824 98.816C279.069 98.592 279.379 98.48 279.752 98.48C280.125 98.48 280.429 98.592 280.664 98.816C280.909 99.0293 281.032 99.3067 281.032 99.648C281.032 99.9893 280.909 100.272 280.664 100.496C280.429 100.72 280.125 100.832 279.752 100.832ZM278.728 110V102.064H280.776V110H278.728ZM285.834 110.192C285.13 110.192 284.511 110.08 283.978 109.856C283.444 109.621 283.018 109.301 282.698 108.896C282.378 108.491 282.186 108.021 282.122 107.488H284.186C284.25 107.797 284.42 108.064 284.698 108.288C284.986 108.501 285.354 108.608 285.802 108.608C286.25 108.608 286.575 108.517 286.778 108.336C286.991 108.155 287.098 107.947 287.098 107.712C287.098 107.371 286.948 107.141 286.65 107.024C286.351 106.896 285.935 106.773 285.402 106.656C285.06 106.581 284.714 106.491 284.362 106.384C284.01 106.277 283.684 106.144 283.386 105.984C283.098 105.813 282.863 105.6 282.682 105.344C282.5 105.077 282.41 104.752 282.41 104.368C282.41 103.664 282.687 103.072 283.242 102.592C283.807 102.112 284.596 101.872 285.61 101.872C286.548 101.872 287.295 102.091 287.85 102.528C288.415 102.965 288.751 103.568 288.858 104.336H286.922C286.804 103.749 286.362 103.456 285.594 103.456C285.21 103.456 284.911 103.531 284.698 103.68C284.495 103.829 284.394 104.016 284.394 104.24C284.394 104.475 284.548 104.661 284.858 104.8C285.167 104.939 285.578 105.067 286.09 105.184C286.644 105.312 287.151 105.456 287.61 105.616C288.079 105.765 288.452 105.995 288.73 106.304C289.007 106.603 289.146 107.035 289.146 107.6C289.156 108.091 289.028 108.533 288.762 108.928C288.495 109.323 288.111 109.632 287.61 109.856C287.108 110.08 286.516 110.192 285.834 110.192ZM294.488 110.192C293.677 110.192 292.963 110.016 292.344 109.664C291.725 109.312 291.235 108.821 290.872 108.192C290.52 107.563 290.344 106.843 290.344 106.032C290.344 105.221 290.52 104.501 290.872 103.872C291.235 103.243 291.725 102.752 292.344 102.4C292.963 102.048 293.677 101.872 294.488 101.872C295.501 101.872 296.355 102.139 297.048 102.672C297.741 103.195 298.184 103.92 298.376 104.848H296.216C296.109 104.464 295.896 104.165 295.576 103.952C295.267 103.728 294.899 103.616 294.472 103.616C293.907 103.616 293.427 103.829 293.032 104.256C292.637 104.683 292.44 105.275 292.44 106.032C292.44 106.789 292.637 107.381 293.032 107.808C293.427 108.235 293.907 108.448 294.472 108.448C294.899 108.448 295.267 108.341 295.576 108.128C295.896 107.915 296.109 107.611 296.216 107.216H298.376C298.184 108.112 297.741 108.832 297.048 109.376C296.355 109.92 295.501 110.192 294.488 110.192ZM303.642 110.192C302.874 110.192 302.18 110.016 301.562 109.664C300.954 109.312 300.468 108.827 300.106 108.208C299.754 107.579 299.578 106.853 299.578 106.032C299.578 105.211 299.759 104.491 300.122 103.872C300.484 103.243 300.97 102.752 301.578 102.4C302.196 102.048 302.89 101.872 303.658 101.872C304.415 101.872 305.098 102.048 305.706 102.4C306.324 102.752 306.81 103.243 307.162 103.872C307.524 104.491 307.706 105.211 307.706 106.032C307.706 106.853 307.524 107.579 307.162 108.208C306.81 108.827 306.324 109.312 305.706 109.664C305.087 110.016 304.399 110.192 303.642 110.192ZM303.642 108.416C304.175 108.416 304.639 108.219 305.034 107.824C305.428 107.419 305.626 106.821 305.626 106.032C305.626 105.243 305.428 104.651 305.034 104.256C304.639 103.851 304.18 103.648 303.658 103.648C303.114 103.648 302.644 103.851 302.25 104.256C301.866 104.651 301.674 105.243 301.674 106.032C301.674 106.821 301.866 107.419 302.25 107.824C302.644 108.219 303.108 108.416 303.642 108.416ZM309.177 110V102.064H311.001L311.193 103.552C311.481 103.04 311.87 102.635 312.361 102.336C312.862 102.027 313.449 101.872 314.121 101.872V104.032H313.545C313.097 104.032 312.697 104.101 312.345 104.24C311.993 104.379 311.716 104.619 311.513 104.96C311.321 105.301 311.225 105.776 311.225 106.384V110H309.177ZM318.668 110.192C317.921 110.192 317.255 110.011 316.668 109.648C316.081 109.285 315.617 108.789 315.276 108.16C314.935 107.531 314.764 106.816 314.764 106.016C314.764 105.216 314.935 104.507 315.276 103.888C315.617 103.259 316.081 102.768 316.668 102.416C317.255 102.053 317.921 101.872 318.668 101.872C319.265 101.872 319.788 101.984 320.236 102.208C320.684 102.432 321.047 102.747 321.324 103.152V98.48H323.372V110H321.548L321.324 108.864C321.068 109.216 320.727 109.525 320.3 109.792C319.884 110.059 319.34 110.192 318.668 110.192ZM319.1 108.4C319.761 108.4 320.3 108.181 320.716 107.744C321.143 107.296 321.356 106.725 321.356 106.032C321.356 105.339 321.143 104.773 320.716 104.336C320.3 103.888 319.761 103.664 319.1 103.664C318.449 103.664 317.911 103.883 317.484 104.32C317.057 104.757 316.844 105.323 316.844 106.016C316.844 106.709 317.057 107.28 317.484 107.728C317.911 108.176 318.449 108.4 319.1 108.4ZM325.529 106.464L325.305 98.8H327.497L327.257 106.464H325.529ZM326.441 110.112C326.057 110.112 325.743 109.995 325.497 109.76C325.263 109.525 325.145 109.243 325.145 108.912C325.145 108.571 325.263 108.283 325.497 108.048C325.743 107.813 326.057 107.696 326.441 107.696C326.804 107.696 327.103 107.813 327.337 108.048C327.583 108.283 327.705 108.571 327.705 108.912C327.705 109.243 327.583 109.525 327.337 109.76C327.103 109.995 326.804 110.112 326.441 110.112Z" fill="#12022F"/>
<path opacity="0.8" fill-rule="evenodd" clip-rule="evenodd" d="M98.6333 185.08C98.947 185.189 99.1764 185.145 99.303 184.953C99.4424 184.741 99.5505 184.84 99.693 185.31C99.8014 185.667 99.773 186.051 99.6297 186.163C99.2157 186.486 99.529 187.066 100.273 187.355C100.65 187.5 101.001 187.761 101.053 187.935C101.171 188.323 100.821 188.459 100.529 188.138C100.41 188.009 100.419 188.107 100.547 188.356C100.713 188.677 100.681 188.803 100.439 188.786C100.251 188.773 100.13 188.872 100.171 189.007C100.212 189.141 100.37 189.215 100.522 189.17C100.707 189.116 100.71 189.192 100.533 189.399C100.303 189.665 100.343 189.739 100.812 189.921C101.112 190.038 101.617 190.159 101.933 190.19C102.26 190.222 102.475 190.372 102.431 190.538C102.378 190.741 102.27 190.756 102.073 190.588C101.86 190.404 101.816 190.454 101.889 190.799C101.943 191.049 102.011 191.373 102.041 191.52C102.071 191.668 102.045 191.884 101.982 192.001C101.697 192.536 102.057 192.603 102.945 192.178C103.981 191.683 104.082 191.712 103.718 192.395C103.503 192.797 103.518 192.853 103.848 192.875C104.053 192.89 104.209 193.058 104.196 193.251C104.182 193.446 104.304 193.562 104.471 193.512C104.704 193.444 104.711 193.496 104.506 193.739C104.278 194.009 104.296 194.039 104.627 193.94C104.87 193.868 105.066 193.995 105.154 194.282C105.23 194.534 105.487 194.843 105.725 194.97C105.962 195.096 106.26 195.54 106.386 195.957C106.513 196.373 106.708 196.686 106.821 196.651C107.094 196.567 108.149 197.694 108.071 197.987C108.038 198.114 108.104 198.189 108.219 198.154C108.468 198.078 110.256 199.952 110.407 200.449C110.465 200.641 110.737 200.801 111.011 200.803C111.284 200.806 111.501 200.937 111.492 201.095C111.472 201.419 112.669 202.572 113.246 202.786C113.57 202.905 113.591 202.997 113.38 203.391C113.067 203.977 113.195 204.451 113.583 204.148C114.062 203.774 114.605 203.935 114.777 204.502C114.878 204.834 115.431 205.305 116.248 205.755C117.166 206.26 117.556 206.608 117.552 206.919C117.548 207.251 117.623 207.303 117.852 207.125C118.158 206.886 118.313 207.073 118.469 207.87C118.512 208.09 118.72 208.282 118.933 208.297C119.16 208.312 119.398 208.586 119.512 208.962C119.632 209.358 119.822 209.566 120.011 209.508C120.178 209.457 120.469 209.516 120.658 209.64C120.856 209.77 121.276 209.744 121.659 209.576C122.209 209.335 122.313 209.357 122.288 209.71C122.271 209.942 122.307 210.039 122.369 209.924C122.492 209.693 123.476 210.084 123.573 210.402C123.645 210.641 124.388 211.064 124.613 210.994C124.779 210.944 125.471 211.347 126.899 212.327C127.378 212.655 127.856 212.898 127.96 212.866C128.233 212.782 129.732 213.588 130.041 213.985C130.185 214.17 130.444 214.277 130.617 214.224C130.79 214.171 131.034 214.259 131.16 214.42C131.285 214.581 131.589 214.651 131.836 214.575C132.083 214.499 132.323 214.562 132.37 214.715C132.416 214.868 132.704 215.061 133.011 215.142C133.421 215.252 133.522 215.376 133.395 215.614C133.301 215.791 133.258 216.04 133.3 216.166C133.343 216.292 133.426 216.191 133.485 215.94C133.644 215.27 133.892 215.282 135.293 216.027C135.991 216.398 136.598 216.633 136.643 216.549C136.687 216.466 136.914 216.41 137.146 216.426C137.467 216.448 137.525 216.535 137.388 216.792C137.092 217.346 137.292 217.527 137.722 217.094C138.05 216.766 138.193 216.743 138.496 216.969C138.7 217.123 138.981 217.213 139.12 217.171C139.258 217.129 139.402 217.193 139.439 217.315C139.476 217.436 139.655 217.49 139.837 217.434C140.021 217.378 140.228 217.529 140.303 217.774C140.379 218.024 140.584 218.171 140.776 218.112C140.963 218.055 141.388 218.087 141.72 218.184C142.053 218.28 142.599 218.3 142.933 218.227C143.288 218.149 143.643 218.243 143.787 218.452C143.923 218.649 144.109 218.725 144.2 218.621C144.292 218.517 144.634 218.519 144.962 218.626C145.29 218.732 145.735 218.765 145.951 218.699C146.167 218.632 146.386 218.717 146.437 218.886C146.56 219.291 147.189 219.321 147.804 218.949C148.089 218.778 148.328 218.748 148.368 218.88C148.447 219.142 149.88 219.426 150.367 219.277C150.643 219.192 150.663 219.245 150.499 219.637C150.323 220.058 150.341 220.058 150.717 219.631C151.054 219.247 151.174 219.206 151.396 219.401C151.545 219.531 151.941 219.585 152.276 219.521C152.611 219.457 153.104 219.506 153.371 219.63C153.638 219.754 154.215 219.781 154.653 219.692C155.091 219.603 155.685 219.64 155.973 219.774C156.26 219.909 156.609 219.93 156.748 219.822C156.886 219.714 157.092 219.707 157.205 219.806C157.318 219.906 157.901 219.911 158.501 219.817C159.1 219.724 159.8 219.741 160.056 219.856C160.312 219.971 160.699 219.99 160.914 219.898C161.602 219.606 161.873 219.605 161.961 219.895C162.019 220.088 162.338 220.07 162.967 219.838C163.474 219.651 164.137 219.571 164.44 219.659C164.744 219.747 165.244 219.78 165.552 219.731C165.86 219.682 166.278 219.754 166.481 219.891C166.707 220.043 166.823 220.039 166.78 219.881C166.711 219.628 167.14 219.585 168.779 219.679C169.05 219.694 169.714 219.578 170.255 219.421C170.916 219.229 171.34 219.231 171.545 219.428C171.788 219.661 171.899 219.646 172.091 219.356C172.269 219.085 172.477 219.015 172.894 219.082C173.204 219.132 173.825 219.134 174.276 219.086C174.726 219.037 175.212 219.027 175.356 219.064C175.699 219.15 175.956 219.109 178.236 218.606C179.295 218.373 180.25 218.257 180.358 218.348C180.467 218.439 181.142 218.335 181.858 218.116C182.574 217.897 184.161 217.613 185.383 217.483C186.606 217.354 188.451 216.984 189.482 216.661C190.513 216.339 191.987 216.001 192.756 215.91C194.07 215.755 196.233 215.061 196.559 214.689C196.64 214.598 196.86 214.563 197.048 214.612C197.236 214.662 197.723 214.512 198.13 214.28C198.537 214.047 198.978 213.886 199.11 213.92C199.242 213.955 199.762 213.878 200.265 213.75C200.769 213.622 201.253 213.619 201.341 213.744C201.451 213.899 201.614 213.862 201.863 213.626C202.062 213.437 202.382 213.134 202.575 212.952C202.771 212.766 203.294 212.593 203.765 212.557C204.286 212.518 204.665 212.38 204.764 212.195C204.874 211.989 205.048 211.949 205.326 212.064C205.615 212.185 205.749 212.151 205.804 211.942C205.85 211.77 206.488 211.478 207.361 211.229C208.175 210.997 209.197 210.624 209.633 210.399C210.242 210.084 210.553 210.05 210.976 210.248C211.279 210.39 211.495 210.4 211.455 210.27C211.416 210.14 211.241 210.012 211.067 209.987C210.893 209.961 211.125 209.872 211.583 209.789C212.04 209.706 212.482 209.51 212.565 209.353C212.649 209.197 213.029 208.917 213.41 208.732C213.791 208.546 214.329 208.213 214.606 207.99C215.329 207.411 216.513 206.967 217.053 207.073C217.328 207.127 217.492 207.081 217.456 206.961C217.405 206.794 218.679 206.027 219.6 205.669C219.719 205.623 219.897 205.492 219.995 205.378C220.094 205.264 220.703 205.04 221.349 204.879C222.115 204.689 222.451 204.523 222.313 204.403C222.182 204.287 222.296 204.209 222.617 204.196C222.9 204.184 223.16 204.065 223.195 203.932C223.231 203.799 223.361 203.716 223.486 203.749C223.61 203.782 223.741 203.698 223.777 203.564C223.812 203.429 224.59 203.013 225.505 202.639C226.421 202.265 227.265 201.819 227.382 201.647C227.599 201.329 228.198 201.015 229.469 200.551C229.863 200.407 230.212 200.19 230.243 200.069C230.275 199.948 230.624 199.751 231.018 199.63C231.412 199.509 231.82 199.249 231.925 199.052C232.077 198.767 232.179 198.748 232.425 198.959C232.594 199.106 232.702 199.116 232.664 198.984C232.55 198.588 233.394 197.98 233.958 198.051C234.51 198.12 235.957 197.088 235.841 196.706C235.805 196.588 236.088 196.463 236.479 196.423C236.879 196.383 237.282 196.201 237.414 196C237.593 195.729 237.69 195.706 237.834 195.902C237.961 196.074 238.149 195.9 238.417 195.359C238.712 194.764 238.92 194.585 239.235 194.653C239.619 194.736 239.907 194.59 241.196 193.659C241.36 193.54 241.733 193.34 242.027 193.213C242.321 193.087 242.879 192.809 243.269 192.598C243.812 192.302 244.066 192.28 244.366 192.505C244.724 192.774 244.757 192.752 244.764 192.247C244.771 191.636 244.942 191.288 245.55 190.645C245.893 190.282 245.995 190.26 246.189 190.509C246.489 190.894 246.845 190.783 246.712 190.346C246.63 190.074 246.712 190.027 247.13 190.109C247.544 190.19 247.753 190.079 248.149 189.564C248.423 189.208 248.994 188.81 249.417 188.681C250 188.502 250.181 188.33 250.167 187.968C250.148 187.468 250.578 187.164 250.706 187.587C250.747 187.722 250.906 187.733 251.06 187.613C251.215 187.492 251.425 187.498 251.528 187.625C251.631 187.752 251.667 187.668 251.608 187.439C251.523 187.108 251.64 187 252.169 186.919C252.655 186.845 252.783 186.747 252.637 186.559C252.502 186.386 252.567 186.31 252.834 186.329C253.104 186.347 253.194 186.235 253.116 185.978C253.041 185.732 253.131 185.608 253.371 185.625C253.575 185.639 253.713 185.558 253.679 185.446C253.645 185.334 253.947 185.07 254.349 184.859C254.752 184.648 255.106 184.381 255.137 184.266C255.167 184.15 255.585 183.859 256.065 183.618C256.544 183.378 257.081 182.932 257.258 182.628C257.434 182.324 257.808 182.005 258.089 181.919C258.37 181.833 258.57 181.663 258.533 181.541C258.496 181.42 258.615 181.275 258.797 181.219C258.98 181.163 259.156 181.208 259.19 181.319C259.224 181.43 259.515 181.317 259.837 181.068C260.16 180.82 260.381 180.517 260.329 180.395C260.09 179.836 260.149 179.622 260.534 179.649C260.81 179.668 260.867 179.609 260.707 179.468C260.556 179.335 260.627 179.21 260.9 179.126C261.137 179.053 261.343 178.837 261.356 178.644C261.37 178.452 261.896 178.013 262.524 177.668C263.347 177.217 263.668 176.91 263.672 176.569C263.678 176.07 264.636 174.982 264.988 175.075C265.226 175.137 265.71 174.15 265.608 173.813C265.57 173.69 265.747 173.406 266.001 173.182C266.275 172.94 266.376 172.665 266.251 172.504C265.951 172.118 266.299 171.436 266.888 171.256C267.164 171.171 267.402 170.936 267.417 170.733C267.444 170.349 268.336 170.05 268.681 170.31C268.788 170.39 268.911 170.325 268.953 170.166C268.996 170.006 268.925 169.907 268.796 169.947C268.668 169.986 268.514 169.859 268.455 169.663C268.384 169.431 268.24 169.391 268.04 169.548C267.871 169.68 267.533 169.749 267.288 169.7C267.035 169.651 266.735 169.736 266.593 169.897C266.451 170.059 266.151 170.144 265.897 170.094C265.625 170.041 265.266 170.149 264.981 170.37C264.419 170.806 263.61 170.705 263.997 170.247C264.136 170.082 263.767 170.14 263.08 170.389C262.447 170.619 261.927 170.925 261.923 171.069C261.919 171.213 261.775 171.374 261.603 171.427C261.43 171.48 261.335 171.672 261.39 171.854C261.467 172.109 261.208 172.272 260.275 172.558C259.266 172.867 259.039 172.865 258.939 172.545C258.871 172.327 258.777 172.277 258.723 172.43C258.671 172.579 258.476 172.933 258.292 173.218C257.989 173.684 257.884 173.722 257.224 173.601C256.571 173.481 256.462 173.517 256.211 173.937C255.979 174.324 255.765 174.412 255.008 174.432C253.669 174.468 253.27 174.643 253.291 175.188C253.306 175.559 253.189 175.669 252.793 175.661C252.509 175.655 252.106 175.715 251.897 175.793C251.689 175.872 251.474 175.793 251.421 175.618C251.297 175.209 251.096 175.279 250.752 175.852C250.601 176.105 250.246 176.411 249.963 176.531C249.681 176.652 249.352 176.862 249.233 176.997C249.091 177.159 248.969 177.09 248.88 176.796C248.787 176.489 248.652 176.42 248.453 176.576C248.292 176.702 248.243 176.876 248.343 176.964C248.443 177.052 248.075 177.262 247.525 177.431C246.752 177.668 246.442 177.654 246.155 177.368C245.718 176.932 245.196 177.029 245.158 177.553C245.141 177.79 245.269 177.888 245.516 177.824C245.728 177.77 245.804 177.805 245.685 177.903C245.566 178.001 244.995 178.064 244.415 178.045C243.836 178.025 243.297 178.083 243.216 178.175C243.135 178.267 243.026 178.199 242.973 178.025C242.92 177.85 242.679 177.625 242.437 177.524C242.074 177.372 242.036 177.284 242.223 177.017C242.347 176.839 242.523 176.269 242.615 175.751C242.787 174.785 243.15 174.309 243.621 174.432C243.788 174.476 243.797 174.607 243.646 174.784C243.448 175.013 243.466 175.047 243.738 174.967C243.922 174.912 244.136 174.631 244.214 174.342C244.293 174.052 244.517 173.766 244.713 173.706C244.994 173.62 245.035 173.679 244.907 173.985C244.799 174.241 244.829 174.376 244.995 174.381C245.481 174.393 247.413 173.554 247.353 173.356C247.32 173.247 247.136 173.205 246.945 173.263C246.633 173.359 246.622 173.325 246.834 172.927C247.027 172.565 247.164 172.51 247.591 172.624C248.024 172.74 248.166 172.675 248.428 172.238C248.729 171.734 248.757 171.725 249.081 172.036C249.363 172.307 249.463 172.296 249.677 171.972C249.818 171.757 250.053 171.613 250.2 171.651C250.346 171.69 250.71 171.483 251.008 171.192C251.418 170.791 251.748 170.659 252.358 170.647C253.359 170.629 253.297 170.656 253.187 170.295C253.084 169.955 254.892 169.028 255.567 169.075C255.856 169.095 255.907 169.02 255.745 168.812C255.583 168.605 255.696 168.438 256.143 168.226C256.596 168.011 256.761 168.019 256.744 168.254C256.728 168.47 256.912 168.519 257.297 168.401C257.614 168.304 257.841 168.119 257.802 167.991C257.763 167.862 257.866 167.792 258.031 167.835C258.24 167.89 258.24 167.741 258.034 167.348L257.737 166.782L259.001 166.472C260.132 166.196 260.296 166.217 260.539 166.663C260.99 167.49 261.454 167.289 261.18 166.386C260.912 165.505 261.021 165.418 262.244 165.539C262.98 165.611 263.064 165.585 262.875 165.343C262.722 165.147 262.777 165.071 263.054 165.091C263.288 165.107 263.418 165.005 263.369 164.844C263.248 164.448 265.025 164.196 265.703 164.514C266.017 164.662 266.212 164.661 266.167 164.513C266.124 164.373 265.97 164.295 265.824 164.339C265.631 164.398 265.605 164.334 265.728 164.104C266.159 163.296 272.418 162.655 273.318 163.326C273.422 163.403 273.662 163.442 273.853 163.412C274.34 163.338 275.749 163.97 276.478 164.59C276.815 164.877 277.255 165.174 277.456 165.251C277.738 165.358 277.872 165.708 278.037 166.763C278.23 167.999 278.199 168.151 277.727 168.296C277.208 168.455 277.15 169.015 277.529 170.227C277.595 170.439 277.486 170.777 277.286 170.978C277.086 171.179 276.999 171.411 277.092 171.493C277.186 171.575 277.152 171.811 277.016 172.017C276.881 172.222 276.812 172.527 276.862 172.694C276.913 172.862 276.828 173.038 276.673 173.085C276.501 173.138 276.477 173.497 276.611 174.009C276.968 175.374 276.957 175.683 276.525 176.509C276.24 177.053 276.195 177.43 276.379 177.729C276.526 177.968 276.56 178.456 276.454 178.817C276.348 179.177 276.333 179.704 276.419 179.989C276.506 180.273 276.489 180.744 276.382 181.035C276.275 181.325 276.267 181.837 276.365 182.172C276.479 182.563 276.423 182.818 276.211 182.883C276.028 182.939 275.921 183.123 275.973 183.293C276.024 183.462 275.928 183.708 275.76 183.84C275.557 183.998 275.546 184.213 275.726 184.475C275.916 184.751 275.873 185.108 275.584 185.649C275.352 186.083 275.235 186.723 275.318 187.102C275.4 187.474 275.34 187.947 275.186 188.153C275.031 188.359 274.981 188.781 275.075 189.091C275.183 189.446 275.064 189.936 274.753 190.415C274.481 190.833 274.306 191.331 274.364 191.521C274.421 191.711 274.319 191.912 274.137 191.968C273.953 192.025 273.865 192.266 273.94 192.512C274.013 192.755 273.987 192.98 273.882 193.012C273.506 193.127 273.978 195.004 274.454 195.289C274.855 195.528 274.881 195.627 274.7 196.241C274.474 197.015 274.615 197.086 274.989 196.386C275.409 195.599 275.545 196.014 275.216 197.075C275.044 197.626 274.931 198.166 274.964 198.275C274.997 198.384 274.801 198.429 274.528 198.375C274.254 198.322 273.815 198.371 273.551 198.485C273.152 198.658 272.997 198.557 272.623 197.881C272.328 197.35 272.231 196.964 272.34 196.761C272.459 196.54 272.498 196.581 272.475 196.908C272.45 197.268 272.526 197.318 272.835 197.145C273.05 197.025 273.168 196.819 273.096 196.687C273.025 196.556 273.108 196.458 273.281 196.47C273.472 196.483 273.541 196.315 273.457 196.039C273.359 195.714 273.201 195.641 272.901 195.781C272.574 195.933 272.331 195.772 271.785 195.04C271.106 194.13 271.097 194.094 271.438 193.657C271.631 193.411 271.689 193.123 271.568 193.016C271.448 192.91 271.492 192.779 271.667 192.725C271.843 192.671 271.977 192.402 271.967 192.126C271.956 191.85 272.073 191.658 272.227 191.698C272.382 191.739 272.476 191.667 272.437 191.538C272.398 191.41 272.278 191.331 272.17 191.364C272.063 191.397 271.863 191.241 271.725 191.018C271.588 190.794 271.566 190.584 271.676 190.55C271.786 190.516 271.816 190.29 271.742 190.047C271.669 189.804 271.714 189.573 271.842 189.533C271.971 189.494 271.985 189.381 271.873 189.282C271.761 189.184 271.775 189.071 271.903 189.032C272.032 188.992 272.068 188.734 271.985 188.457C271.901 188.18 271.907 187.717 271.999 187.427C272.091 187.136 272.18 186.324 272.196 185.623C272.212 184.921 272.317 184.318 272.428 184.284C272.54 184.25 272.542 183.926 272.432 183.566C272.201 182.802 272.658 179.895 273.059 179.582C273.42 179.3 273.256 178.807 272.79 178.775C272.223 178.736 272.135 178.049 272.546 176.872C272.75 176.285 272.889 175.461 272.854 175.04C272.819 174.619 272.889 174.245 273.009 174.208C273.129 174.171 273.107 173.966 272.959 173.751C272.533 173.131 272.476 171.741 272.843 170.886C273.198 170.055 272.949 169.398 272.348 169.582C272.158 169.641 271.804 169.601 271.562 169.493C271.32 169.386 270.654 169.371 270.084 169.46C269.348 169.575 269.162 169.657 269.445 169.744C269.8 169.853 269.816 169.904 269.583 170.198C269.351 170.493 269.357 170.515 269.642 170.393C270.273 170.124 270.533 170.144 270.632 170.47C270.687 170.653 270.826 170.773 270.939 170.738C271.231 170.649 271.429 172.346 271.171 172.719C271.054 172.888 270.976 173.461 270.997 173.994C271.033 174.903 270.484 176.189 269.995 176.339C269.875 176.376 269.811 176.531 269.853 176.684C269.944 177.012 269.352 177.843 268.715 178.282C268.46 178.457 268.32 178.77 268.391 179.003C268.461 179.237 268.321 179.549 268.066 179.725C267.441 180.155 266.837 180.992 266.924 181.308C267.007 181.611 266.293 182.199 265.436 182.534C265.239 182.611 265.162 182.72 265.268 182.776C265.373 182.832 265.228 183.256 264.947 183.719C264.389 184.637 263.787 184.992 263.831 184.378C263.854 184.061 263.793 184.067 263.445 184.412C263.217 184.638 262.999 184.897 262.961 184.989C262.697 185.614 261.664 186.617 261.109 186.787C260.477 186.981 259.773 187.494 258.349 188.802C257.955 189.163 257.206 189.531 256.404 189.757C255.078 190.13 254.845 190.405 255.673 190.621C256.071 190.725 256.057 190.756 255.564 190.86C254.913 190.996 254.154 191.786 254.279 192.198C254.326 192.35 254.261 192.507 254.135 192.546C253.977 192.594 253.937 192.461 254.005 192.119C254.139 191.446 254.02 191.132 253.672 191.239C253.512 191.288 253.418 191.775 253.46 192.33C253.551 193.521 253.087 193.888 252.103 193.404C251.438 193.077 251.437 193.077 251.7 193.506C251.902 193.833 251.863 193.966 251.539 194.066C251.305 194.137 250.965 194.401 250.783 194.652C250.357 195.238 250.15 195.304 250.024 194.892C249.969 194.71 249.824 194.591 249.703 194.628C249.581 194.665 249.527 194.845 249.582 195.027C249.638 195.209 249.534 195.404 249.352 195.46C249.169 195.516 249.05 195.661 249.087 195.783C249.124 195.904 249.005 196.049 248.823 196.105C248.64 196.161 248.461 196.106 248.424 195.984C248.383 195.852 248.204 195.931 247.985 196.179C247.672 196.531 247.551 196.549 247.209 196.298C246.987 196.134 246.741 196.019 246.664 196.042C246.586 196.066 246.575 196.26 246.639 196.472C246.723 196.749 246.56 196.934 246.07 197.123C245.692 197.269 245.345 197.533 245.298 197.71C245.251 197.887 244.855 198.131 244.418 198.251C243.943 198.382 243.655 198.576 243.702 198.731C243.853 199.228 243.146 200.031 242.53 200.062C242.169 200.081 241.97 200.188 242.015 200.338C242.056 200.472 241.867 200.655 241.595 200.743C241.323 200.831 240.895 201.121 240.643 201.388C240.023 202.047 239.11 202.306 238.517 201.991C238.055 201.745 238.044 201.754 238.321 202.158C238.576 202.529 238.516 202.639 237.866 202.979C237.454 203.195 237.035 203.328 236.936 203.275C236.836 203.222 236.6 203.447 236.412 203.775C236.177 204.185 235.734 204.488 234.997 204.745C234.408 204.95 233.892 205.219 233.851 205.342C233.786 205.541 232.088 206.34 231.083 206.645C230.879 206.707 230.636 206.936 230.544 207.155C230.453 207.373 230.054 207.651 229.658 207.772C229.262 207.893 228.626 208.252 228.244 208.568C227.862 208.885 226.855 209.458 226.005 209.842C225.155 210.226 224.043 210.779 223.534 211.071C223.024 211.362 222.267 211.644 221.851 211.696C221.355 211.758 220.943 211.972 220.658 212.314C220.418 212.601 219.796 212.969 219.276 213.13C218.756 213.291 217.965 213.691 217.518 214.018C216.706 214.613 215.99 214.837 215.172 214.753C214.933 214.728 214.765 214.604 214.799 214.476C214.833 214.348 214.724 214.35 214.557 214.48C214.39 214.611 214.278 214.796 214.307 214.893C214.386 215.151 213.213 215.988 212.223 216.381C211.748 216.569 210.36 217.097 209.137 217.554C206.926 218.381 206.913 218.383 206.746 217.883C206.58 217.389 206.577 217.389 206.531 217.904C206.47 218.581 205.973 218.96 205.318 218.831C205.032 218.775 204.555 218.877 204.257 219.058C203.602 219.455 200.324 220.484 200.097 220.363C200.009 220.316 199.78 220.434 199.59 220.625C199.359 220.858 199.222 220.899 199.177 220.749C199.137 220.619 198.849 220.666 198.482 220.864C197.932 221.16 197.86 221.145 197.887 220.738C197.917 220.297 197.906 220.299 197.646 220.781C197.496 221.059 197.125 221.363 196.822 221.456C196.519 221.549 196.11 221.787 195.913 221.985C195.645 222.254 195.533 222.273 195.468 222.061C195.402 221.844 194.575 222.013 191.951 222.781C190.061 223.334 188.294 223.74 188.015 223.686C187.737 223.631 187.254 223.664 186.942 223.76C186.551 223.88 186.338 223.814 186.254 223.548C186.151 223.219 186.117 223.221 186.024 223.558C185.939 223.868 185.482 224.078 183.925 224.523C182.831 224.835 181.69 225.043 181.39 224.984C181.089 224.925 180.343 225.026 179.731 225.208C178.988 225.43 178.546 225.45 178.405 225.268C178.288 225.118 178.115 225.084 178.02 225.192C177.925 225.299 177.492 225.428 177.056 225.477C176.445 225.545 176.266 225.471 176.271 225.15C176.276 224.821 176.251 224.813 176.151 225.111C176.003 225.554 174.366 225.912 172.257 225.964C171.532 225.982 170.549 226.05 170.072 226.116C169.596 226.182 169.052 226.134 168.863 226.01C168.675 225.886 168.296 225.853 168.022 225.937C167.749 226.021 167.069 226.07 166.511 226.047C165.954 226.024 165.368 226.106 165.21 226.229C164.877 226.489 162.494 226.426 162.412 226.155C162.381 226.056 162.126 226.113 161.844 226.284C161.556 226.457 161.157 226.52 160.936 226.428C160.719 226.337 160.366 226.337 160.154 226.427C159.484 226.711 159.36 226.671 159.543 226.234C159.7 225.861 159.657 225.86 159.194 226.219C158.76 226.556 158.559 226.575 158.054 226.329C157.716 226.165 157.045 226.086 156.563 226.153C156.08 226.221 155.662 226.2 155.634 226.108C155.606 226.016 155.461 225.985 155.312 226.041C155.162 226.096 154.592 226.191 154.043 226.251C153.347 226.327 153.086 226.266 153.177 226.049C153.269 225.829 153.026 225.818 152.339 226.013C151.806 226.163 151.069 226.199 150.701 226.092C150.333 225.985 149.874 225.946 149.681 226.005C149.104 226.182 147.83 225.861 147.724 225.512C147.669 225.333 147.484 225.23 147.312 225.283C147.14 225.335 146.911 225.27 146.803 225.137C146.647 224.943 146.622 224.951 146.675 225.176C146.752 225.505 146.11 225.765 146.012 225.444C145.976 225.325 145.687 225.241 145.369 225.257C145.052 225.274 144.705 225.176 144.599 225.04C144.493 224.904 144.006 224.849 143.516 224.917C143.025 224.986 142.427 224.892 142.186 224.709C141.945 224.526 141.63 224.468 141.486 224.581C141.326 224.706 141.167 224.627 141.081 224.381C141.003 224.159 140.927 224.11 140.912 224.273C140.878 224.64 140.207 224.621 140.094 224.25C140.049 224.102 139.728 223.94 139.381 223.891C139.035 223.842 138.442 223.761 138.066 223.71C137.689 223.66 137.169 223.521 136.909 223.401C135.129 222.58 134.689 222.418 134.223 222.414C133.812 222.41 133.691 222.284 133.669 221.836C133.641 221.258 133.236 221.131 133.219 221.695C133.212 221.933 133.06 221.971 132.526 221.867C132.033 221.771 131.79 221.56 131.653 221.108C131.51 220.638 131.357 220.515 131.037 220.614C130.803 220.686 130.416 220.641 130.179 220.515C129.941 220.388 129.682 220.305 129.604 220.329C129.525 220.353 128.555 219.89 127.447 219.3C126.34 218.709 125.341 218.255 125.227 218.29C125.113 218.325 124.995 218.271 124.964 218.17C124.933 218.069 124.619 217.93 124.266 217.86C123.913 217.791 123.586 217.609 123.539 217.455C123.493 217.302 123.227 217.174 122.949 217.171C122.552 217.167 122.438 217.039 122.415 216.571C122.382 215.882 121.841 215.433 121.43 215.754C121.273 215.876 120.812 215.796 120.394 215.574C119.98 215.354 119.548 215.202 119.434 215.237C119.32 215.272 119.211 215.116 119.191 214.889C119.171 214.663 118.956 214.376 118.713 214.251C118.183 213.979 117.876 213.307 118.222 213.179C118.358 213.129 118.219 213.067 117.912 213.041C117.605 213.014 117.308 212.841 117.251 212.655C117.191 212.455 117.351 212.248 117.642 212.15C118.122 211.988 118.119 211.982 117.509 211.912C117.165 211.872 116.757 211.903 116.602 211.98C116.188 212.184 115.472 211.578 115.472 211.022C115.472 210.603 115.437 210.593 115.207 210.942C114.812 211.542 114.352 211.301 114.236 210.432C114.169 209.941 114.045 209.709 113.879 209.766C113.015 210.057 112.821 209.997 112.634 209.38C112.524 209.016 112.281 208.73 112.07 208.716C111.867 208.702 111.624 208.439 111.531 208.131C111.424 207.781 111.237 207.61 111.029 207.674C110.818 207.738 110.633 207.562 110.519 207.185C110.42 206.861 110.125 206.467 109.863 206.31C109.601 206.154 109.285 205.741 109.16 205.394C109.035 205.047 108.742 204.637 108.51 204.484C108.142 204.243 108.123 204.14 108.364 203.71C108.627 203.241 108.642 203.246 108.66 203.813C108.675 204.27 108.71 204.316 108.81 204.008C108.908 203.709 108.966 203.68 109.034 203.896C109.15 204.262 110.04 203.868 110.05 203.447C110.055 203.247 109.943 203.232 109.723 203.404C109.505 203.574 109.215 203.54 108.887 203.304C108.587 203.088 108.088 203.012 107.64 203.114C106.981 203.264 106.89 203.219 106.867 202.731C106.838 202.136 106.325 201.752 105.781 201.919C105.423 202.029 105.207 201.236 105.503 200.898C105.714 200.658 105.255 200.054 104.55 199.645C103.729 199.169 103.405 198.475 103.705 197.838C103.958 197.301 103.948 197.29 103.355 197.472C102.869 197.621 102.751 197.573 102.776 197.234C102.792 197.001 102.759 196.898 102.701 197.006C102.492 197.398 101.306 195.845 100.857 194.592C100.604 193.886 100.346 193.325 100.283 193.344C100.22 193.363 99.9556 192.77 99.6944 192.027C99.4336 191.284 99.1166 190.648 98.9903 190.613C98.6495 190.521 97.9816 188.936 98.0788 188.449C98.1283 188.2 97.9695 187.722 97.6907 187.282C97.2538 186.592 97.2535 186.476 97.6875 185.725C98.09 185.029 98.2237 184.937 98.6333 185.08ZM104.554 196.285C104.568 196.333 104.729 196.327 104.912 196.271C105.094 196.215 105.214 196.073 105.178 195.955C105.143 195.838 104.981 195.844 104.82 195.97C104.659 196.096 104.539 196.238 104.554 196.285ZM107.954 199.517C107.982 199.616 108.085 199.605 108.184 199.492C108.283 199.38 108.311 199.121 108.247 198.916C108.146 198.595 108.114 198.598 108.017 198.94C107.954 199.159 107.926 199.418 107.954 199.517ZM107.803 201.42C107.84 201.541 107.969 201.61 108.091 201.573C108.213 201.536 108.282 201.406 108.245 201.284C108.208 201.163 108.078 201.094 107.957 201.131C107.835 201.169 107.766 201.298 107.803 201.42ZM117.513 208.342C117.474 208.487 117.604 208.556 117.801 208.495C117.997 208.435 118.067 208.305 117.955 208.207C117.843 208.108 117.713 208.039 117.667 208.054C117.62 208.068 117.551 208.198 117.513 208.342ZM115.36 209.606C115.415 209.788 115.622 209.887 115.819 209.827C116.112 209.737 116.11 209.672 115.802 209.47C115.595 209.334 115.389 209.235 115.343 209.249C115.297 209.263 115.304 209.423 115.36 209.606ZM116.92 209.972C116.957 210.094 117.093 210.161 117.221 210.121C117.35 210.082 117.364 209.969 117.252 209.871C117.14 209.772 117.004 209.705 116.951 209.721C116.897 209.738 116.883 209.851 116.92 209.972ZM118.266 209.921C118.391 210.081 118.574 210.12 118.673 210.007C118.784 209.881 118.715 209.765 118.495 209.704C118.016 209.573 118.004 209.584 118.266 209.921ZM117.956 210.997C118.013 211.186 118.141 211.249 118.24 211.137C118.339 211.025 118.391 210.839 118.357 210.725C118.322 210.611 118.194 210.548 118.072 210.585C117.951 210.622 117.899 210.808 117.956 210.997ZM259.943 168.481C260.173 168.471 260.394 168.572 260.434 168.705C260.474 168.837 260.549 168.868 260.6 168.773C260.753 168.485 260.282 168.208 259.892 168.358C259.562 168.484 259.567 168.496 259.943 168.481ZM263.801 168.943C263.926 169.103 264.057 169.226 264.092 169.216C264.126 169.205 264.167 169.03 264.182 168.826C264.198 168.603 264.082 168.494 263.89 168.553C263.699 168.612 263.663 168.766 263.801 168.943ZM248.632 173.591C248.487 173.937 248.532 173.984 248.903 173.87C249.148 173.795 249.36 173.567 249.375 173.364C249.391 173.147 249.278 173.031 249.104 173.084C248.941 173.135 248.728 173.363 248.632 173.591ZM118.679 213.779C118.641 213.925 118.835 213.971 119.119 213.882C119.529 213.753 119.551 213.7 119.232 213.609C118.74 213.47 118.763 213.463 118.679 213.779ZM248.172 175.365C248.416 175.495 248.47 175.444 248.385 175.164C248.322 174.957 248.376 174.756 248.505 174.717C248.633 174.677 248.647 174.564 248.534 174.464C248.407 174.353 248.235 174.459 248.087 174.738C247.906 175.076 247.928 175.236 248.172 175.365ZM268.26 168.808C268.356 168.859 268.549 168.808 268.689 168.696C268.844 168.571 268.776 168.535 268.515 168.603C268.279 168.665 268.165 168.757 268.26 168.808ZM277.355 166.358C277.392 166.48 277.521 166.548 277.643 166.511C277.764 166.474 277.834 166.344 277.797 166.223C277.76 166.101 277.63 166.032 277.509 166.07C277.387 166.107 277.318 166.237 277.355 166.358ZM250.216 175.294C250.762 175.584 250.747 175.411 250.184 174.921C249.959 174.725 249.771 174.674 249.768 174.808C249.764 174.942 249.966 175.16 250.216 175.294ZM249.928 176.016C250.052 176.17 250.088 176.102 250.021 175.841C249.959 175.606 249.868 175.491 249.817 175.587C249.766 175.683 249.815 175.876 249.928 176.016ZM256.913 173.816C256.948 173.93 256.895 174.115 256.796 174.228C256.698 174.34 256.57 174.277 256.512 174.087C256.455 173.898 256.507 173.713 256.629 173.675C256.75 173.638 256.878 173.701 256.913 173.816ZM267.621 170.896C267.637 170.95 267.769 171.024 267.913 171.062C268.057 171.1 268.143 171.026 268.104 170.897C268.065 170.769 267.934 170.694 267.812 170.731C267.691 170.768 267.605 170.842 267.621 170.896ZM254.024 175.228C253.92 175.425 253.762 175.547 253.674 175.5C253.585 175.453 253.67 175.292 253.863 175.142C254.142 174.926 254.175 174.943 254.024 175.228ZM245.292 191.635C245.254 191.779 245.322 191.867 245.443 191.83C245.565 191.792 245.696 191.644 245.734 191.499C245.772 191.355 245.704 191.267 245.582 191.304C245.461 191.341 245.33 191.49 245.292 191.635ZM154.211 225.145C154.335 225.3 154.371 225.231 154.304 224.971C154.242 224.735 154.151 224.621 154.1 224.716C154.048 224.812 154.098 225.005 154.211 225.145ZM161.059 223.871C161.155 223.922 161.348 223.871 161.488 223.759C161.643 223.634 161.575 223.598 161.314 223.666C161.078 223.728 160.964 223.82 161.059 223.871ZM158.999 224.463C159.07 224.696 159.524 224.664 159.588 224.421C159.627 224.274 159.504 224.202 159.314 224.26C159.125 224.318 158.983 224.409 158.999 224.463ZM183.417 218.561C183.378 218.709 183.478 218.719 183.652 218.584C183.99 218.319 184.012 218.14 183.694 218.237C183.58 218.272 183.455 218.418 183.417 218.561ZM272.886 193.815C272.962 194.065 273.101 194.181 273.196 194.074C273.29 193.967 273.267 193.75 273.144 193.593C272.831 193.19 272.724 193.281 272.886 193.815ZM182.098 221.382C182.06 221.526 182.184 221.597 182.373 221.539C182.562 221.481 182.687 221.334 182.651 221.212C182.614 221.091 182.49 221.02 182.376 221.055C182.261 221.09 182.136 221.237 182.098 221.382ZM272.131 194.943C272.319 195.051 272.825 194.468 272.665 194.328C272.566 194.241 272.388 194.334 272.271 194.534C272.153 194.735 272.09 194.919 272.131 194.943ZM272.092 195.975C272.129 196.096 272.054 196.228 271.925 196.267C271.797 196.307 271.723 196.221 271.761 196.076C271.799 195.932 271.874 195.8 271.928 195.784C271.981 195.767 272.055 195.853 272.092 195.975ZM200.377 219.134C200.41 219.242 200.598 219.342 200.795 219.356C201.034 219.372 201.079 219.287 200.932 219.098C200.692 218.79 200.281 218.816 200.377 219.134ZM205.005 218.466C205.042 218.587 205.172 218.656 205.293 218.619C205.415 218.581 205.484 218.452 205.447 218.33C205.41 218.209 205.281 218.14 205.159 218.177C205.038 218.214 204.968 218.344 205.005 218.466ZM274.163 198.022C274.259 198.339 274.615 198.131 274.643 197.74C274.66 197.501 274.575 197.456 274.386 197.603C274.23 197.725 274.13 197.913 274.163 198.022ZM274.29 199.087C274.15 199.2 273.957 199.251 273.861 199.2C273.766 199.149 273.88 199.057 274.116 198.995C274.377 198.927 274.445 198.963 274.29 199.087Z" fill="#FFC234"/>
<path opacity="0.8" fill-rule="evenodd" clip-rule="evenodd" d="M95.5788 0.173305C95.0877 0.260913 94.5557 0.412533 94.3962 0.510433C94.2368 0.608334 94.0353 0.573441 93.9478 0.433117C93.7447 0.106781 92.8085 0.098999 92.8085 0.423828C92.8085 0.572939 92.5597 0.556624 92.1747 0.382411C91.6788 0.157741 91.3954 0.172551 90.8704 0.450689C90.3662 0.717531 90.1745 0.730836 90.0979 0.504912C90.0204 0.275473 89.8458 0.271958 89.3633 0.490603C88.9311 0.686154 88.6762 0.694688 88.559 0.51696C88.4647 0.373874 87.9102 0.240077 87.3267 0.219744C86.4925 0.190625 86.1821 0.301329 85.8741 0.738367C85.6589 1.04387 85.4826 1.17591 85.4826 1.03207C85.4826 0.743387 82.5598 0.583733 82.1286 0.848567C81.9823 0.938435 81.1302 0.985377 80.2349 0.953246C78.8531 0.903542 78.5171 0.97885 78.0103 1.45179C77.5468 1.88456 77.3356 1.94481 77.0648 1.72139C76.5628 1.3072 74.554 1.43622 74.2052 1.90514C73.971 2.22018 73.8452 2.23374 73.5349 1.97819C73.2626 1.75327 73.1262 1.74398 73.0588 1.94556C72.9986 2.12429 72.1796 2.22947 70.8236 2.23273C69.6466 2.23549 68.0582 2.41523 67.294 2.63237C66.5298 2.84951 65.5294 2.99812 65.0709 2.96297C64.6124 2.92758 64.0956 3.01569 63.9225 3.15827C63.7495 3.30111 63.3857 3.42185 63.1142 3.42662C62.0819 3.44494 60.5819 3.77454 60.0953 4.08983C59.817 4.27032 59.123 4.41115 58.5536 4.40261C57.984 4.39433 57.3019 4.50227 57.0379 4.6426C56.7737 4.78317 56.0178 4.97847 55.3577 5.07687C54.6976 5.17528 54.1578 5.35576 54.1578 5.47827C54.1578 5.60052 53.9557 5.70068 53.7089 5.70068C53.4618 5.70068 53.0162 5.87012 52.7189 6.07722C52.4213 6.28432 51.9989 6.38548 51.7801 6.30189C51.5614 6.21855 50.9311 6.38397 50.3796 6.66964C49.7531 6.99422 49.3173 7.09363 49.2186 6.93473C49.1223 6.78009 48.9455 6.7693 48.7671 6.90762C48.6057 7.03263 47.5248 7.4905 46.3647 7.92528C45.2047 8.35981 43.9755 8.93466 43.6329 9.20226C43.2906 9.4701 42.847 9.62674 42.6474 9.55068C42.3991 9.45605 42.2847 9.58884 42.2847 9.97191C42.2847 10.3906 42.2051 10.4664 41.9689 10.2724C41.7491 10.0919 41.3465 10.1195 40.6427 10.3635C40.0869 10.556 39.6036 10.7155 39.569 10.7175C39.5344 10.7195 39.5041 10.9755 39.5021 11.286C39.4993 11.694 39.4384 11.7572 39.2833 11.514C39.104 11.2328 38.9789 11.2326 38.5292 11.5115C38.2327 11.6955 37.9902 11.9174 37.9902 12.0047C37.9902 12.0918 37.5071 12.2379 36.9165 12.3293C35.3543 12.5708 33.6956 13.2468 33.6956 13.6422C33.6956 13.8305 33.5309 13.9846 33.3298 13.9846C33.1285 13.9846 32.6594 14.265 32.2875 14.6074C31.9154 14.95 31.5148 15.1712 31.397 15.0989C31.2793 15.0266 30.984 15.198 30.741 15.48C30.4982 15.7621 30.0405 15.9928 29.7239 15.9928C29.3766 15.9928 29.1485 16.1447 29.1485 16.3756C29.1485 16.586 28.8643 16.8656 28.5169 16.9969C28.1696 17.1282 27.8836 17.436 27.8816 17.681C27.8786 18.0108 27.8237 18.0419 27.6699 17.801C27.5042 17.5416 27.3006 17.567 26.665 17.9265C26.2264 18.1747 25.867 18.5189 25.8659 18.6913C25.8652 18.8641 25.6371 19.0051 25.3592 19.0051C25.0813 19.0051 24.854 19.0955 24.854 19.2062C24.854 19.3167 24.3424 19.654 23.7172 19.956C23.0919 20.2578 22.5804 20.6192 22.5804 20.7591C22.5804 20.8989 22.4099 21.0133 22.2014 21.0133C21.991 21.0133 21.8225 21.2365 21.8225 21.5154C21.8225 21.7943 21.654 22.0175 21.4436 22.0175C21.2352 22.0175 21.0647 22.1304 21.0647 22.2685C21.0647 22.4066 20.9227 22.5198 20.7489 22.52C20.2772 22.521 18.5887 24.0222 19.0437 24.0362C19.2521 24.0425 19.0248 24.1901 18.5385 24.3641C18.0522 24.5378 17.3251 24.9849 16.9227 25.3571C16.5203 25.7294 16.0941 26.0339 15.9754 26.0339C15.8567 26.0339 15.7597 26.2003 15.7597 26.4039C15.7597 26.6075 15.4429 26.9368 15.0554 27.1359C14.6681 27.335 13.9069 28.0158 13.3641 28.6486C12.8212 29.2814 12.2541 29.7993 12.1038 29.7993C11.7597 29.7993 10.4552 31.258 10.4531 31.6451C10.4521 31.8035 10.1151 32.1231 9.70438 32.3555C9.29336 32.5877 8.88387 33.0679 8.79419 33.4224C8.70476 33.7768 8.50797 34.0668 8.3569 34.0668C7.9133 34.0668 6.66537 35.3779 6.66537 35.8441C6.66537 36.0795 6.49485 36.3373 6.28644 36.4169C6.07803 36.4962 5.90751 36.7493 5.90751 36.9789C5.90751 37.2089 5.7087 37.5807 5.46543 37.8053C4.86166 38.3634 4.39179 39.2359 4.39179 39.7985C4.39179 40.0555 4.17151 40.5179 3.90222 40.8264C3.63318 41.135 3.47049 41.5363 3.54072 41.7183C3.61852 41.9197 3.49929 42.0349 3.23631 42.0118C2.57293 41.9541 2.53908 42.482 3.18478 42.8191C3.50131 42.9843 3.57811 43.0691 3.3553 43.0081C3.00643 42.9122 2.11822 43.6174 2.11822 43.9901C2.11822 44.0604 1.81962 44.5881 1.45459 45.1624C0.904384 46.0285 0.841987 46.2888 1.09006 46.6834C1.30479 47.0248 1.31262 47.2515 1.11785 47.4847C0.82683 47.8329 1.01427 48.6264 1.38739 48.6264C1.51143 48.6264 1.61298 48.7288 1.61298 48.8538C1.61298 48.9791 1.38562 49.0222 1.10774 48.9502C0.76898 48.8621 0.602504 48.9424 0.602504 49.1939C0.602504 49.4003 0.433502 49.7083 0.227112 49.8785C-0.101293 50.1494 -0.0856309 50.2668 0.353421 50.8216C0.900847 51.5129 1.02286 52.3918 0.571684 52.3918C0.367315 52.3918 0.364284 52.4832 0.561074 52.7186C0.71113 52.8984 0.769737 53.2897 0.691173 53.5882C0.501203 54.3101 1.18706 54.9907 1.88303 54.771C2.19855 54.6716 2.3529 54.4648 2.2708 54.2519C2.19476 54.0548 2.28545 53.8979 2.47568 53.8979C2.84501 53.8979 3.11202 54.583 2.94024 55.0903C2.88189 55.263 2.67297 55.4041 2.47618 55.4041C2.02071 55.4041 2.00934 55.811 2.46001 55.9827C2.64796 56.0545 2.989 55.8959 3.21787 55.6303C3.67183 55.1034 3.77439 54.4 3.39698 54.4C3.11076 54.4 3.14537 53.3296 3.43815 53.1265C3.55234 53.0472 3.69785 52.7141 3.76125 52.386C3.82491 52.0579 4.04975 51.6934 4.26068 51.5762C4.47162 51.4587 4.64441 51.0508 4.64441 50.6697C4.64441 50.2297 4.93745 49.6789 5.44698 49.1611C6.01967 48.5789 6.25511 48.0977 6.268 47.4824C6.28189 46.8353 6.39683 46.6194 6.72852 46.6189C7.13145 46.6181 7.27216 46.3724 7.10745 45.9567C7.07259 45.8688 7.28605 45.7082 7.58136 45.5997C7.99263 45.4484 8.08938 45.2505 7.99414 44.755C7.90169 44.2753 7.9752 44.1079 8.27784 44.1079C8.50267 44.1079 8.68632 43.9949 8.68632 43.8568C8.68632 43.7188 8.85684 43.6058 9.06525 43.6058C9.27366 43.6058 9.44418 43.4848 9.44418 43.337C9.44418 43.1889 9.62202 42.8911 9.83927 42.6753C10.1187 42.3976 10.1558 42.2043 9.96558 42.0153C9.55962 41.6119 9.64274 41.3154 10.1389 41.3983C10.3963 41.4412 10.581 41.3149 10.581 41.0955C10.581 40.8884 10.8083 40.6525 11.0862 40.5711C11.3641 40.4901 11.5631 40.2923 11.5283 40.1319C11.4937 39.9717 11.6159 39.8404 11.8001 39.8404C11.9843 39.8404 12.3922 39.5683 12.7068 39.2357C13.24 38.6714 13.2474 38.6227 12.8139 38.5117C12.4913 38.4289 12.5552 38.3837 13.0228 38.3634C13.4944 38.343 13.9486 38.0157 14.5385 37.2719C15.8029 35.6769 16.2394 35.2968 16.7161 35.3756C17.001 35.4228 17.1766 35.2544 17.2299 34.8826C17.2784 34.542 17.4863 34.3178 17.7538 34.3178C18.0087 34.3178 18.4086 33.9182 18.6959 33.3764C18.9702 32.8588 19.3029 32.4198 19.435 32.4012C20.2879 32.2815 20.8871 31.9029 21.1248 31.3338C21.2756 30.9731 21.3804 30.5931 21.358 30.4896C21.3357 30.3862 21.4593 30.284 21.6331 30.2632C21.8066 30.2421 22.0625 30.1987 22.2014 30.1666C22.3404 30.1344 22.6663 30.0953 22.9257 30.0792C23.2678 30.0584 23.361 29.9125 23.265 29.5483C23.1599 29.1489 23.2574 29.0462 23.7409 29.0462C24.0751 29.0462 24.3487 28.918 24.3487 28.7613C24.3487 28.3923 25.4405 27.3899 26.3527 26.9213C26.7451 26.7195 27.1333 26.3808 27.2152 26.1687C27.2973 25.9566 27.5886 25.7829 27.8626 25.7829C28.1365 25.7829 28.4149 25.696 28.4808 25.5901C28.5467 25.4839 28.1271 25.4277 27.5484 25.4651C26.6084 25.5256 26.5571 25.5017 27.0687 25.2412C27.4633 25.0401 27.5954 24.8059 27.4936 24.4876C27.3132 23.9225 27.5739 23.8949 28.1547 24.4173C28.5528 24.7752 28.6463 24.7529 29.2483 24.1547C29.6103 23.795 29.9063 23.619 29.9063 23.7634C29.9063 24.1063 30.5957 24.1043 30.7109 23.7611C30.7597 23.6155 31.0249 23.4629 31.3003 23.4222C31.6133 23.3758 31.801 23.1541 31.801 22.8308C31.801 22.1121 32.0976 21.8882 32.5528 22.2635C32.8089 22.4746 32.9378 22.4881 32.9378 22.3039C32.9378 22.1518 33.222 21.9562 33.5693 21.8696C33.9167 21.783 34.2009 21.5548 34.2009 21.3628C34.2009 21.1401 34.4823 21.0133 34.9764 21.0133C35.729 21.0133 37.5329 19.9804 38.2228 19.1545C38.4042 18.9374 38.6462 18.8171 38.7604 18.8871C38.8746 18.9574 39.3732 18.7885 39.8684 18.5121C40.3638 18.2357 40.769 18.067 40.769 18.1373C40.769 18.3974 42.4226 17.4078 42.7439 16.9552C42.9273 16.6974 43.188 16.5546 43.3234 16.6377C43.4591 16.721 43.7069 16.6791 43.8747 16.5448C44.0422 16.4105 44.6909 16.2212 45.3161 16.1243C45.9413 16.0272 46.8768 15.6755 47.3949 15.3429C47.9128 15.01 48.5701 14.7377 48.8556 14.7377C49.1408 14.7377 49.7968 14.5509 50.3134 14.3225C50.83 14.094 51.3535 13.9296 51.4767 13.9572C51.6 13.9848 51.9547 13.7705 52.2649 13.481C52.6731 13.1 53.0086 12.9993 53.4795 13.1168C53.8963 13.2207 54.3371 13.1351 54.7055 12.8788C55.0217 12.6587 55.7705 12.4784 56.3692 12.4784C57.0773 12.4784 57.5058 12.3537 57.5957 12.1212C57.6715 11.9249 57.9011 11.7002 58.106 11.6222C58.3131 11.5431 58.4109 11.589 58.326 11.7253C58.2396 11.8644 58.3432 11.9058 58.5655 11.8212C58.7812 11.7389 58.9666 11.4861 58.9775 11.2592C58.9884 11.0322 59.0462 10.9627 59.1058 11.1043C59.2347 11.4098 61.2311 11.2685 61.2311 10.9537C61.2311 10.8344 61.4102 10.8053 61.6295 10.8889C61.9647 11.0167 62.8931 10.7965 65.273 10.0246C65.7939 9.85568 66.6347 9.75176 68.5278 9.62223C69.415 9.56173 70.2107 9.40283 70.2961 9.26928C70.4439 9.03859 71.0797 8.97131 73.9884 8.87868C74.6831 8.85659 75.3278 8.73334 75.421 8.60481C75.5142 8.47629 76.0826 8.34123 76.6841 8.30483C77.2856 8.26818 77.8454 8.23229 77.9277 8.22476C78.0104 8.21723 78.3976 7.93808 78.7882 7.60447C79.3828 7.09664 79.5536 7.05296 79.8381 7.33562C80.0247 7.52113 80.1776 7.78747 80.1776 7.92729C80.1776 8.28601 83.7163 7.97097 84.3218 7.55853C84.6719 7.3198 84.9367 7.30198 85.2956 7.49276C85.5786 7.64338 86.1803 7.67827 86.709 7.57485C87.2156 7.47594 90.415 7.35947 93.819 7.31629C97.2231 7.27286 100.265 7.22943 100.579 7.21964C100.893 7.2096 101.405 6.94853 101.716 6.63952L102.282 6.07722L102.366 6.6714C102.442 7.20182 102.547 7.25002 103.345 7.12149C103.837 7.04217 104.452 6.78562 104.713 6.55116C105.162 6.14776 105.187 6.15202 105.187 6.63299C105.187 7.04618 105.364 7.14835 106.134 7.17948C108.359 7.26935 109.578 7.18852 109.891 6.93046C110.139 6.72587 110.325 6.75449 110.614 7.04142C111.097 7.52088 115.806 7.58639 116.109 7.11773C116.228 6.93372 116.296 6.9882 116.298 7.2696C116.302 7.74053 117.029 7.8324 117.944 7.4777C118.271 7.35093 118.538 7.40063 118.702 7.61853C118.841 7.80353 119.637 8.01917 120.47 8.09774C121.304 8.17631 122.326 8.28099 122.742 8.33044C123.158 8.37989 123.567 8.30835 123.653 8.17154C123.749 8.01691 123.941 8.04854 124.16 8.25513C124.572 8.64422 126.407 8.82346 126.407 8.47453C126.407 8.34374 126.825 8.41027 127.336 8.62238C127.847 8.8345 128.686 8.9683 129.2 8.9196C129.876 8.85559 130.101 8.9191 130.012 9.14854C129.903 9.43069 130.414 9.59888 131.042 9.48768C131.16 9.46684 131.956 9.63729 132.81 9.86648C133.665 10.0957 134.933 10.3128 135.627 10.349C136.322 10.3851 137.118 10.489 137.396 10.5804C137.796 10.7117 138.002 10.5588 138.389 9.84288C138.784 9.1139 138.92 9.01524 139.098 9.33053C139.219 9.54541 139.248 9.83309 139.163 9.97015C139.078 10.1072 139.142 10.2192 139.306 10.2192C139.531 10.2192 139.534 10.3045 139.316 10.5651C139.088 10.8385 139.147 10.9429 139.601 11.0636C140.492 11.3008 140.599 11.2589 140.433 10.7378C140.301 10.3274 140.397 10.2556 141.047 10.2739C141.68 10.2917 141.817 10.4002 141.817 10.8849C141.817 11.754 142.691 12.5218 143.462 12.3296C143.813 12.2422 144.522 12.3444 145.066 12.561C145.792 12.8497 146.115 12.8763 146.328 12.6649C146.54 12.4536 146.746 12.5221 147.131 12.9328C147.525 13.3525 147.857 13.4589 148.52 13.3771C149.024 13.3151 149.472 13.3939 149.583 13.5644C149.688 13.7265 150.172 14.0014 150.658 14.1756C151.404 14.4425 151.585 14.4339 151.817 14.1214C152.025 13.8395 152.161 13.8209 152.385 14.0436C152.547 14.2045 152.679 14.4703 152.679 14.6347C152.679 15.063 154.766 15.978 156.163 16.162C156.817 16.2481 157.577 16.4713 157.851 16.6578C158.125 16.8443 158.516 16.9969 158.719 16.9969C158.922 16.9969 159.607 17.2499 160.241 17.5592C160.974 17.9164 161.865 18.1225 162.681 18.124C163.667 18.126 163.963 18.2149 163.945 18.5031C163.93 18.735 164.188 18.9102 164.616 18.9589C164.998 19.0026 165.31 19.1316 165.31 19.2456C165.31 19.529 167.203 20.2603 167.937 20.2603C168.264 20.2603 168.674 20.4297 168.847 20.6368C169.19 21.0475 170.11 21.1542 170.11 20.7832C170.11 20.6566 169.968 20.4962 169.794 20.4264C169.6 20.3486 169.643 20.2921 169.906 20.2801C170.142 20.2693 170.537 20.6014 170.785 21.0184C171.033 21.4353 171.38 21.7212 171.557 21.6537C171.734 21.5864 171.878 21.6294 171.878 21.7494C171.878 21.8696 172.297 21.956 172.808 21.9416C173.33 21.9268 173.783 22.0481 173.84 22.2175C173.896 22.3835 174.089 22.5195 174.268 22.5195C174.448 22.5195 174.737 22.689 174.91 22.8961C175.083 23.1032 175.438 23.2726 175.698 23.2726C175.959 23.2726 176.411 23.5096 176.703 23.7993C177.044 24.1386 177.445 24.2855 177.831 24.2122C178.16 24.1497 178.481 24.2235 178.545 24.3759C178.622 24.5616 178.74 24.5403 178.902 24.3111C179.106 24.0222 179.168 24.0222 179.3 24.3111C179.421 24.5739 179.491 24.5812 179.603 24.3417C179.716 24.1022 179.835 24.1145 180.116 24.3937C180.317 24.5938 180.678 24.6952 180.917 24.6189C181.25 24.5127 181.272 24.5373 181.009 24.7238C180.72 24.9286 180.72 25.0017 181.009 25.1867C181.197 25.3074 181.522 25.4179 181.731 25.4319C181.939 25.446 182.309 25.4744 182.552 25.4947C182.795 25.515 182.994 25.7013 182.994 25.9084C182.994 26.1705 183.259 26.2849 183.865 26.2849C184.393 26.2849 184.824 26.4398 184.958 26.6773C185.079 26.8929 185.358 27.0957 185.576 27.1276C185.795 27.1595 186.151 27.3312 186.366 27.5089C186.582 27.6869 186.975 27.7642 187.24 27.6806C187.525 27.591 187.853 27.6854 188.041 27.9108C188.217 28.1212 188.545 28.2939 188.772 28.2949C188.998 28.2957 189.524 28.5208 189.941 28.7952C190.357 29.0696 190.898 29.2947 191.141 29.2955C191.384 29.2965 191.583 29.3861 191.583 29.4946C191.583 29.6914 192.174 29.7933 193.33 29.7963C193.666 29.7973 194.142 29.9788 194.388 30.1997C194.634 30.4209 194.935 30.5401 195.057 30.465C195.18 30.3897 195.439 30.5481 195.634 30.817C195.829 31.0856 196.12 31.3055 196.281 31.3055C196.442 31.3055 196.715 31.4749 196.888 31.682C197.293 32.1675 197.898 32.1675 197.898 31.682C197.898 31.4749 197.784 31.3055 197.646 31.3055C197.507 31.3055 197.393 31.2031 197.393 31.078C197.393 30.953 197.668 30.9799 198.005 31.1378C198.459 31.3507 198.549 31.5073 198.353 31.7418C198.208 31.916 198.188 32.0701 198.309 32.0844C198.43 32.0987 198.962 32.1464 199.49 32.1903C200.532 32.2767 201.182 32.6721 201.182 33.2188C201.182 33.4091 201.3 33.5647 201.444 33.5647C201.588 33.5647 202.002 33.7583 202.366 33.9947C202.729 34.2315 203.197 34.4498 203.405 34.4802C203.614 34.5106 203.869 34.6725 203.973 34.8397C204.077 35.0071 204.346 35.0741 204.569 34.9891C204.822 34.8924 205.093 35.0207 205.287 35.3289C205.458 35.6013 205.786 35.824 206.015 35.824C206.249 35.824 206.502 36.0991 206.591 36.4515C206.678 36.7967 206.926 37.0791 207.141 37.0791C207.49 37.0791 207.492 37.121 207.155 37.4556C206.946 37.6627 206.654 37.8322 206.505 37.8322C206.356 37.8322 206.235 37.9482 206.235 38.0897C206.235 38.2361 205.907 38.1786 205.474 37.9564C204.928 37.6758 204.582 37.6361 204.244 37.8156C203.986 37.9532 203.697 37.9881 203.602 37.8934C203.506 37.7988 203.327 37.8842 203.203 38.0835C203.007 38.3978 202.959 38.3967 202.836 38.0762C202.717 37.7664 202.112 37.727 199.096 37.8322C197.117 37.9012 195.343 38.0569 195.154 38.1781C194.933 38.3199 194.732 38.2753 194.59 38.0526C194.414 37.777 194.369 37.774 194.365 38.0383C194.363 38.2208 194.214 38.517 194.033 38.6965C193.764 38.9641 193.607 38.944 193.16 38.5845C192.722 38.2321 192.404 38.1871 191.531 38.3551C190.934 38.4695 190.361 38.5682 190.256 38.5742C190.152 38.5802 190.067 38.7547 190.067 38.9618C190.067 39.1689 189.95 39.3384 189.806 39.3384C189.663 39.3384 189.48 39.1689 189.401 38.9618C189.228 38.5147 188.764 38.4738 188.365 38.8704C188.031 39.2025 188.574 39.8936 189.114 39.8231C189.862 39.7252 190.101 39.8723 190.057 40.4052C189.95 41.7166 190.056 42.0881 190.49 41.9227C190.81 41.8004 190.873 41.8632 190.75 42.1815C190.654 42.4323 190.712 42.6032 190.896 42.6052C191.065 42.607 191.46 42.6768 191.772 42.7599C192.19 42.8713 192.341 42.8038 192.341 42.5056C192.341 42.0429 192.672 41.9897 193.34 42.3447C193.704 42.5384 193.828 42.4862 193.931 42.0936C194.003 41.8208 194.193 41.5976 194.355 41.5976C194.533 41.5976 194.585 41.7944 194.488 42.0981C194.362 42.4923 194.418 42.5646 194.749 42.438C194.981 42.3497 195.258 42.418 195.364 42.5894C195.471 42.7609 195.971 42.9205 196.476 42.9441C197.2 42.978 197.393 42.8939 197.393 42.5432C197.393 41.9377 198.06 41.9802 198.222 42.5962C198.341 43.0458 198.526 43.0827 200.19 42.9888C201.439 42.9183 202.243 42.9958 202.7 43.2305C203.272 43.5242 203.474 43.524 204.046 43.2293C204.416 43.0385 204.719 42.9692 204.719 43.0751C204.719 43.1811 205.06 43.218 205.477 43.1572C205.894 43.0965 206.235 42.9022 206.235 42.7255C206.235 42.245 206.928 42.0738 207.098 42.5126C207.305 43.05 207.282 43.1562 206.995 42.98C206.849 42.8904 206.812 42.9973 206.904 43.2373C207.031 43.5664 207.106 43.5815 207.28 43.3131C207.458 43.039 207.543 43.0465 207.75 43.3548C207.96 43.6671 208.041 43.6731 208.224 43.3907C208.373 43.1613 208.5 43.1382 208.613 43.3199C208.705 43.4683 209.146 43.58 209.592 43.5677C210.038 43.5556 210.516 43.5727 210.655 43.6056C211.18 43.7296 211.339 43.594 211.061 43.2607C210.829 42.9838 210.894 42.9155 211.387 42.9155C211.776 42.9155 212.048 43.0884 212.126 43.3862C212.297 44.0338 212.744 43.9778 212.877 43.292L212.987 42.7272L213.021 43.292C213.068 44.0597 214.318 44.1202 214.318 43.3548C214.318 43.0787 214.421 42.8527 214.547 42.8527C214.673 42.8527 214.722 43.0583 214.656 43.3096C214.51 43.8631 215.134 44.4322 215.759 44.3155C216.009 44.2688 216.325 43.9781 216.461 43.6696C216.598 43.3611 216.825 43.1208 216.967 43.1359C217.615 43.2049 217.803 43.0505 217.948 42.3268C218.072 41.7108 217.987 41.4558 217.538 41.0938C217.029 40.6839 217.001 40.5566 217.271 39.8464C217.537 39.1451 217.508 38.9939 217.022 38.5102C216.72 38.2102 216.505 37.7373 216.544 37.4592C216.597 37.0819 216.556 37.0402 216.382 37.2942C216.22 37.532 216.098 37.551 215.977 37.357C215.882 37.2041 215.596 37.0791 215.341 37.0791C214.808 37.0791 214.571 36.6037 214.571 35.5375C214.571 35.1266 214.478 34.8475 214.363 34.9178C214.131 35.0603 213.308 34.1986 213.308 33.813C213.308 33.6764 213.153 33.5647 212.964 33.5647C212.734 33.5647 212.66 33.3584 212.74 32.9444C212.831 32.4692 212.662 32.1607 212.02 31.6265C210.444 30.3149 209.746 29.5407 209.907 29.2824C210.124 28.933 209.345 27.7911 208.889 27.7911C208.668 27.7911 208.581 27.6422 208.669 27.4146C208.766 27.1643 208.657 27.0352 208.346 27.03C207.603 27.0174 206.992 26.4135 206.992 25.6902C206.992 25.0868 206.945 25.0546 206.484 25.3413C206.037 25.6187 205.897 25.5657 205.334 24.904C204.982 24.4901 204.527 23.7839 204.324 23.3354C203.909 22.4201 203.598 22.3119 203.235 22.9568C202.879 23.5891 202.577 23.1403 202.606 22.0217C202.626 21.2797 202.548 21.0864 202.271 21.1918C202.046 21.2777 201.857 21.1281 201.769 20.795C201.692 20.5008 201.482 20.2603 201.303 20.2603C201.092 20.2603 201.026 20.4598 201.116 20.8251L201.255 21.3899L200.721 20.7952C199.993 19.9846 199.787 19.2481 200.208 18.9519C200.459 18.7752 200.404 18.7423 200.001 18.8294C199.607 18.9148 199.49 18.8497 199.586 18.6002C199.66 18.4087 199.586 18.252 199.421 18.252C199.256 18.252 198.679 17.7944 198.138 17.2351C197.598 16.6758 197.01 16.2376 196.832 16.2609C195.656 16.4153 195.372 16.2461 195.372 15.3888C195.372 14.6699 195.295 14.5537 194.888 14.6593C194.559 14.7449 194.266 14.575 193.97 14.1259C193.731 13.7634 193.598 13.4045 193.675 13.3281C193.85 13.1534 193.07 12.3677 192.297 11.9415C191.713 11.6199 191.562 11.5659 191.077 11.5057C190.938 11.4884 190.825 11.2484 190.825 10.9723C190.825 10.6866 190.656 10.4702 190.434 10.4702C190.219 10.4702 189.85 10.1321 189.613 9.71862C189.088 8.80162 188.659 8.75493 188.447 9.5916C188.36 9.93676 188.113 10.2192 187.898 10.2192C187.622 10.2192 187.554 10.0716 187.667 9.71862C187.786 9.34559 187.732 9.25422 187.456 9.3594C186.852 9.58984 186.763 10.4539 187.309 10.7925C187.575 10.9577 187.793 11.2542 187.793 11.451C187.793 11.648 187.867 11.7359 187.957 11.6465C188.139 11.466 189.544 13.2034 189.555 13.6226C189.562 13.8927 191.258 14.7377 191.794 14.7377C191.956 14.7377 192.088 14.5544 192.088 14.3305C192.088 13.9969 192.156 13.9796 192.467 14.2356C192.675 14.4076 192.848 14.7319 192.85 14.9566C192.853 15.306 192.887 15.3118 193.089 14.996C193.218 14.7929 193.412 14.7143 193.519 14.8213C193.763 15.063 193.082 15.5103 192.766 15.3165C192.553 15.1857 192.101 15.6622 192.092 16.0262C192.09 16.1138 192.315 16.2441 192.592 16.3161C192.869 16.3882 193.176 16.6555 193.274 16.9103C193.552 17.6303 194.432 18.2651 195.022 18.17C195.434 18.1034 195.528 18.1885 195.434 18.5445C195.368 18.7978 195.21 19.0051 195.084 19.0051C194.958 19.0051 195.046 19.2943 195.279 19.6478C195.541 20.0454 195.768 20.1857 195.873 20.0158C196.186 19.5127 196.857 20.0374 196.936 20.8464C197.007 21.5671 197.102 21.6482 197.962 21.719C198.838 21.7908 198.888 21.837 198.627 22.3217C198.384 22.7741 198.405 22.8235 198.783 22.6794C199.119 22.5516 199.194 22.6184 199.104 22.9626C198.957 23.5176 199.559 24.1203 200.066 23.9268C200.31 23.8339 200.526 24.0089 200.687 24.4281C200.996 25.2361 200.766 25.6669 200.252 25.2429C200.043 25.0707 199.513 24.9136 199.075 24.8937C197.781 24.8352 197.646 24.7946 197.646 24.4632C197.646 24.1605 196.03 23.5236 195.262 23.5236C195.058 23.5236 194.8 23.3597 194.687 23.1596C194.568 22.9485 193.976 22.7522 193.278 22.6927C192.616 22.6362 192.006 22.5215 191.922 22.4379C191.838 22.3546 191.573 22.3902 191.334 22.5175C190.967 22.7126 190.918 22.6526 191.018 22.1322C191.089 21.7602 191.019 21.5154 190.839 21.5154C190.676 21.5154 190.613 21.6284 190.698 21.7664C191.112 22.4309 190.119 21.9226 188.965 20.8788C188.626 20.5723 186.822 20.0241 186.278 20.062C185.032 20.1486 184.257 19.9809 184.257 19.6249C184.257 19.4133 184.058 19.1703 183.815 19.0847C183.572 18.9989 183.202 18.787 182.994 18.6135C182.785 18.4403 182.274 18.2618 181.857 18.2172C181.44 18.1725 180.719 17.932 180.254 17.6827C179.789 17.4334 179.192 17.2976 178.927 17.381C178.66 17.4656 178.446 17.4141 178.446 17.2648C178.446 17.1174 178.162 16.9969 177.815 16.9969C177.468 16.9969 177.183 16.8772 177.183 16.7311C177.183 16.585 177.069 16.5355 176.929 16.6214C176.789 16.7072 176.345 16.5446 175.943 16.2596C175.54 15.9747 175.086 15.7418 174.934 15.7418C174.782 15.7418 174.657 15.6288 174.657 15.4907C174.657 15.3527 174.396 15.2397 174.076 15.2397C173.757 15.2397 173.387 15.1391 173.255 15.0158C173.123 14.8928 172.054 14.5032 170.878 14.15C169.184 13.6409 168.664 13.5704 168.367 13.8091C168.068 14.0491 168.033 14.0426 168.194 13.777C168.433 13.3826 167.604 12.5136 167.137 12.6684C166.966 12.7247 166.444 12.5357 165.976 12.2482C165.507 11.9605 164.809 11.7253 164.424 11.7253C164.039 11.7253 163.598 11.5579 163.443 11.3536C163.289 11.149 162.936 10.9401 162.658 10.8892C162.38 10.8382 161.982 10.733 161.774 10.6555C160.495 10.1795 159.723 10.0229 159.253 10.1449C158.916 10.2325 158.604 10.127 158.407 9.8597C158.235 9.62524 157.731 9.42542 157.282 9.41262C156.835 9.40007 156.469 9.28183 156.469 9.15004C156.469 9.01825 156.31 8.97056 156.117 9.04436C155.924 9.11791 155.518 8.94822 155.214 8.66707C154.818 8.30107 154.459 8.19614 153.946 8.29806C153.468 8.39295 153.186 8.32667 153.098 8.09874C153.026 7.91072 152.134 7.56983 151.118 7.34114C150.101 7.11271 149.01 6.75826 148.693 6.55367C148.377 6.34908 148.021 6.24114 147.903 6.31369C147.785 6.38623 147.338 6.27202 146.909 6.05965C146.147 5.6816 144.704 5.68787 143.774 6.0732C143.419 6.2203 143.332 6.12767 143.332 5.60202C143.332 5.18758 143.193 4.94759 142.953 4.94759C142.745 4.94759 142.575 4.85296 142.575 4.73723C142.575 4.62151 142.163 4.51156 141.661 4.49273C141.159 4.47391 140.598 4.33559 140.416 4.18497C140.036 3.87169 138.749 3.63372 137.668 3.6774C137.262 3.69371 136.848 3.57673 136.749 3.41758C136.65 3.25818 135.959 3.07794 135.214 3.01694C133.24 2.85528 132.912 2.86105 132.265 3.06916C131.806 3.21676 131.654 3.15124 131.552 2.7619C131.418 2.25482 131.399 2.25106 128.175 2.06329C126.87 1.98748 126.243 1.85669 125.993 1.60793C125.897 1.51178 125.291 1.43321 124.647 1.43321C124.003 1.43321 123.369 1.32677 123.237 1.19649C123.039 1.0022 121.437 0.898272 119.334 0.943708C119.125 0.948226 118.443 0.830242 117.818 0.681634C116.129 0.27999 114.701 0.198658 114.348 0.483826C114.172 0.625405 113.839 0.647996 113.59 0.535034C112.994 0.265932 108.218 0.179832 108.218 0.438139C108.218 0.550097 107.902 0.484829 107.515 0.293044C107.08 0.0774116 106.188 -0.0312837 105.178 0.00787659C103.488 0.0736458 102.8 0.295303 103.049 0.694688C103.128 0.821456 103.016 0.858108 102.8 0.776022C102.584 0.693685 102.408 0.51169 102.408 0.371617C102.408 0.224515 102.248 0.248863 102.029 0.429101C101.721 0.68289 101.65 0.671845 101.65 0.369106C101.65 0.0631034 101.283 0.012395 99.5898 0.0846909C98.4566 0.133139 97.4754 0.226522 97.4092 0.292041C97.3433 0.35781 97.1053 0.321912 96.8805 0.212715C96.6554 0.103519 96.0699 0.0856961 95.5788 0.173305ZM185.33 6.38347C185.157 6.44522 185.028 6.85339 185.044 7.29043C185.064 7.82487 185.114 7.92076 185.197 7.58338C185.266 7.30725 185.439 6.93749 185.583 6.76152C185.888 6.38799 185.779 6.22432 185.33 6.38347ZM115.544 6.95581C115.544 7.09388 115.424 7.20684 115.277 7.20684C115.13 7.20684 115.079 7.09388 115.165 6.95581C115.251 6.81775 115.371 6.70479 115.433 6.70479C115.494 6.70479 115.544 6.81775 115.544 6.95581ZM186.53 7.63786C186.53 8.12937 186.977 8.71301 187.354 8.71301C187.473 8.71301 187.482 8.57193 187.373 8.39922C187.264 8.22677 187.172 7.92578 187.168 7.73048C187.158 7.18601 186.53 7.09488 186.53 7.63786ZM71.0148 8.11154C70.9309 8.19488 70.7129 8.20392 70.5308 8.13137C70.3292 8.0513 70.3891 7.9918 70.6834 7.97976C70.9496 7.96896 71.0987 8.0282 71.0148 8.11154ZM185.899 8.46198C185.813 8.60004 185.92 8.71301 186.136 8.71301C186.353 8.71301 186.53 8.60004 186.53 8.46198C186.53 8.32391 186.423 8.21095 186.293 8.21095C186.162 8.21095 185.985 8.32391 185.899 8.46198ZM66.7888 9.22987C66.7888 9.3599 66.6751 9.46609 66.5361 9.46609C66.3972 9.46609 66.2835 9.28987 66.2835 9.07474C66.2835 8.85961 66.3972 8.75317 66.5361 8.83852C66.6751 8.92387 66.7888 9.09984 66.7888 9.22987ZM53.9052 9.32576C53.9052 9.38676 53.7915 9.50625 53.6525 9.5916C53.5136 9.67695 53.3999 9.627 53.3999 9.4809C53.3999 9.3348 53.5136 9.21506 53.6525 9.21506C53.7915 9.21506 53.9052 9.26476 53.9052 9.32576ZM53.3145 11.7881C53.2446 11.9608 53.1872 11.8195 53.1872 11.4743C53.1872 11.1291 53.2446 10.9881 53.3145 11.1605C53.3848 11.3332 53.3848 11.6156 53.3145 11.7881ZM50.3685 13.7336C50.3685 13.8716 50.1694 13.9828 49.9264 13.9808C49.5485 13.9776 49.5394 13.9414 49.8633 13.7336C50.34 13.4273 50.3685 13.4273 50.3685 13.7336ZM165.09 15.5588C164.679 15.9669 164.445 15.5849 164.843 15.1554C165.031 14.9525 165.225 14.8986 165.275 15.0354C165.326 15.1719 165.243 15.4074 165.09 15.5588ZM45.695 15.2397C45.7809 15.3778 45.7307 15.4907 45.5836 15.4907C45.4366 15.4907 45.3161 15.3778 45.3161 15.2397C45.3161 15.1017 45.3661 14.9887 45.4275 14.9887C45.4889 14.9887 45.6092 15.1017 45.695 15.2397ZM194.361 17.1224C194.361 17.3295 194.248 17.499 194.109 17.499C193.97 17.499 193.856 17.3295 193.856 17.1224C193.856 16.9153 193.97 16.7459 194.109 16.7459C194.248 16.7459 194.361 16.9153 194.361 17.1224ZM202.951 26.2849C202.951 26.423 202.901 26.536 202.839 26.536C202.778 26.536 202.657 26.423 202.572 26.2849C202.486 26.1469 202.536 26.0339 202.683 26.0339C202.83 26.0339 202.951 26.1469 202.951 26.2849ZM201.687 38.9618C201.687 39.1689 201.574 39.3384 201.435 39.3384C201.296 39.3384 201.182 39.1689 201.182 38.9618C201.182 38.7547 201.296 38.5853 201.435 38.5853C201.574 38.5853 201.687 38.7547 201.687 38.9618ZM9.19156 39.4491C9.19156 39.5101 9.07788 39.6295 8.93894 39.7149C8.8 39.8002 8.68632 39.7503 8.68632 39.6042C8.68632 39.4581 8.8 39.3384 8.93894 39.3384C9.07788 39.3384 9.19156 39.3881 9.19156 39.4491ZM203.203 39.7149C203.203 39.922 203.089 40.0914 202.951 40.0914C202.812 40.0914 202.698 40.2797 202.698 40.5099C202.698 40.7398 202.627 40.8581 202.541 40.7725C202.314 40.5465 202.663 39.3384 202.955 39.3384C203.092 39.3384 203.203 39.5078 203.203 39.7149ZM194.119 40.8385C193.611 41.1503 193.289 40.8907 193.669 40.4758C193.87 40.2561 194.072 40.2197 194.233 40.3738C194.398 40.5317 194.358 40.6914 194.119 40.8385ZM196.356 40.4361C196.66 40.7998 196.486 41.5976 196.103 41.5976C195.979 41.5976 195.877 41.4282 195.877 41.2211C195.877 41.014 195.693 40.8445 195.467 40.8445C195.132 40.8445 195.114 40.7765 195.372 40.468C195.762 40.0013 195.987 39.994 196.356 40.4361ZM212.834 40.6605C212.584 40.9065 212.556 40.8777 212.693 40.5199C212.788 40.2724 212.929 40.1331 213.007 40.2104C213.084 40.2875 213.007 40.4901 212.834 40.6605ZM191.575 41.0328C191.568 41.625 191.531 41.6604 191.309 41.2818C191.166 41.0391 191.12 40.7285 191.205 40.5915C191.466 40.1715 191.583 40.3108 191.575 41.0328ZM199.666 41.6124C199.666 41.8966 199.553 42.0595 199.414 41.9741C199.275 41.8888 199.161 41.6563 199.161 41.4573C199.161 41.2582 199.275 41.0955 199.414 41.0955C199.553 41.0955 199.666 41.3282 199.666 41.6124ZM205.477 41.9741C205.477 42.1812 205.31 42.3507 205.106 42.3507C204.88 42.3507 204.792 42.2036 204.88 41.9741C204.96 41.767 205.127 41.5976 205.251 41.5976C205.375 41.5976 205.477 41.767 205.477 41.9741ZM4.63936 43.2353C4.46354 43.4457 4.26776 43.5662 4.2041 43.5031C4.02903 43.3289 4.38497 42.8527 4.69014 42.8527C4.85788 42.8527 4.83868 42.9968 4.63936 43.2353ZM6.91799 45.2227C6.91799 45.2837 6.80431 45.4032 6.66537 45.4885C6.52643 45.5739 6.41275 45.5239 6.41275 45.3778C6.41275 45.2317 6.52643 45.112 6.66537 45.112C6.80431 45.112 6.91799 45.1617 6.91799 45.2227Z" fill="#FFC234"/>
<defs>
<clipPath id="clip0_0_1">
<rect width="20" height="20" fill="white" transform="translate(174 95)"/>
</clipPath>
</defs>
</svg>
