<svg width="52" height="22" viewBox="0 0 52 22" fill="none" xmlns="http://www.w3.org/2000/svg">
<path d="M22.1882 6.10441H19.2238V9.23905H16.1286V12.3302H12.9898V15.4648H9.80743V18.5124H22.1882V21.6905H0.478256V15.5519H3.44267V12.4172H6.58146V9.32612H9.67665V6.19148H12.859V3.18745H0.478256V0.00927734H22.1882V6.10441Z" fill="white"/>
<path d="M36.7378 12.6893H35.0086V14.5178H33.203V16.321H31.3721V18.1495H29.5157V19.9273H36.7378V21.7812H24.0737V18.2003H25.8029V16.3718H27.6339V14.5686H29.4394V12.7401H31.2958V10.9877H24.0737V9.13379H36.7378V12.6893Z" fill="white"/>
<path d="M51.2693 19.9526H49.54V21.7812H40.4361V20.0542H38.6051V10.9369H40.3344V9.13379H49.4637V10.8607H51.2693V19.9526ZM47.6328 19.9526V10.9369H42.2416V19.9526H47.6328Z" fill="white"/>
</svg>
