<svg width="764" height="103" viewBox="0 0 764 103" fill="none" xmlns="http://www.w3.org/2000/svg">
<path d="M701.61 1.89616C502.888 4.12404 326.843 38.5111 432.453 84.4031C513.492 119.618 711.342 97.8939 755.037 53.9844C785.53 23.3411 712.248 8.50123 607.237 17.0649" stroke="#FFC233" stroke-width="2" stroke-linecap="round"/>
<path d="M19 76L0.5 6H14.2L26.8 61.7L41.6 6H55.7L70.1 61.7L82.7 6H96.5L77.5 76H62.3L48.4 24.1L34.1 76H19ZM103.877 76V4H116.677V34C118.343 31.2667 120.577 29.1333 123.377 27.6C126.243 26 129.51 25.2 133.177 25.2C139.31 25.2 144.043 27.1333 147.377 31C150.777 34.8667 152.477 40.5333 152.477 48V76H139.777V49.2C139.777 44.9333 138.91 41.6667 137.177 39.4C135.51 37.1333 132.843 36 129.177 36C125.577 36 122.577 37.2667 120.177 39.8C117.843 42.3333 116.677 45.8667 116.677 50.4V76H103.877ZM187.216 77.2C182.216 77.2 177.783 76.1333 173.916 74C170.05 71.8667 167.016 68.8667 164.816 65C162.616 61.1333 161.516 56.6667 161.516 51.6C161.516 46.4667 162.583 41.9 164.716 37.9C166.916 33.9 169.916 30.8 173.716 28.6C177.583 26.3333 182.116 25.2 187.316 25.2C192.183 25.2 196.483 26.2667 200.216 28.4C203.95 30.5333 206.85 33.4667 208.916 37.2C211.05 40.8667 212.116 44.9667 212.116 49.5C212.116 50.2333 212.083 51 212.016 51.8C212.016 52.6 211.983 53.4333 211.916 54.3H174.216C174.483 58.1667 175.816 61.2 178.216 63.4C180.683 65.6 183.65 66.7 187.116 66.7C189.716 66.7 191.883 66.1333 193.616 65C195.416 63.8 196.75 62.2667 197.616 60.4H210.616C209.683 63.5333 208.116 66.4 205.916 69C203.783 71.5333 201.116 73.5333 197.916 75C194.783 76.4667 191.216 77.2 187.216 77.2ZM187.316 35.6C184.183 35.6 181.416 36.5 179.016 38.3C176.616 40.0333 175.083 42.7 174.416 46.3H199.116C198.916 43.0333 197.716 40.4333 195.516 38.5C193.316 36.5667 190.583 35.6 187.316 35.6ZM221.282 76V26.4H232.582L233.582 34.8C235.115 31.8667 237.315 29.5333 240.182 27.8C243.115 26.0667 246.549 25.2 250.482 25.2C256.615 25.2 261.382 27.1333 264.782 31C268.182 34.8667 269.882 40.5333 269.882 48V76H257.082V49.2C257.082 44.9333 256.215 41.6667 254.482 39.4C252.749 37.1333 250.049 36 246.382 36C242.782 36 239.815 37.2667 237.482 39.8C235.215 42.3333 234.082 45.8667 234.082 50.4V76H221.282ZM324.85 76C319.65 76 315.483 74.7333 312.35 72.2C309.217 69.6667 307.65 65.1667 307.65 58.7V37.1H299.15V26.4H307.65L309.15 13.1H320.45V26.4H333.85V37.1H320.45V58.8C320.45 61.2 320.95 62.8667 321.95 63.8C323.017 64.6667 324.817 65.1 327.35 65.1H333.55V76H324.85ZM365.77 77.2C360.97 77.2 356.637 76.1 352.77 73.9C348.97 71.7 345.937 68.6667 343.67 64.8C341.47 60.8667 340.37 56.3333 340.37 51.2C340.37 46.0667 341.504 41.5667 343.77 37.7C346.037 33.7667 349.07 30.7 352.87 28.5C356.737 26.3 361.07 25.2 365.87 25.2C370.604 25.2 374.87 26.3 378.67 28.5C382.537 30.7 385.57 33.7667 387.77 37.7C390.037 41.5667 391.17 46.0667 391.17 51.2C391.17 56.3333 390.037 60.8667 387.77 64.8C385.57 68.6667 382.537 71.7 378.67 73.9C374.804 76.1 370.504 77.2 365.77 77.2ZM365.77 66.1C369.104 66.1 372.004 64.8667 374.47 62.4C376.937 59.8667 378.17 56.1333 378.17 51.2C378.17 46.2667 376.937 42.5667 374.47 40.1C372.004 37.5667 369.137 36.3 365.87 36.3C362.47 36.3 359.537 37.5667 357.07 40.1C354.67 42.5667 353.47 46.2667 353.47 51.2C353.47 56.1333 354.67 59.8667 357.07 62.4C359.537 64.8667 362.437 66.1 365.77 66.1ZM423.243 76V26.4H434.643L435.843 35.7C437.643 32.5 440.076 29.9667 443.143 28.1C446.276 26.1667 449.943 25.2 454.143 25.2V38.7H450.543C447.743 38.7 445.243 39.1333 443.043 40C440.843 40.8667 439.11 42.3667 437.843 44.5C436.643 46.6333 436.043 49.6 436.043 53.4V76H423.243ZM484.513 77.2C479.513 77.2 475.079 76.1333 471.213 74C467.346 71.8667 464.313 68.8667 462.113 65C459.913 61.1333 458.813 56.6667 458.813 51.6C458.813 46.4667 459.879 41.9 462.013 37.9C464.213 33.9 467.213 30.8 471.013 28.6C474.879 26.3333 479.413 25.2 484.613 25.2C489.479 25.2 493.779 26.2667 497.513 28.4C501.246 30.5333 504.146 33.4667 506.213 37.2C508.346 40.8667 509.413 44.9667 509.413 49.5C509.413 50.2333 509.379 51 509.313 51.8C509.313 52.6 509.279 53.4333 509.213 54.3H471.513C471.779 58.1667 473.113 61.2 475.513 63.4C477.979 65.6 480.946 66.7 484.413 66.7C487.013 66.7 489.179 66.1333 490.913 65C492.713 63.8 494.046 62.2667 494.913 60.4H507.913C506.979 63.5333 505.413 66.4 503.213 69C501.079 71.5333 498.413 73.5333 495.213 75C492.079 76.4667 488.513 77.2 484.513 77.2ZM484.613 35.6C481.479 35.6 478.713 36.5 476.313 38.3C473.913 40.0333 472.379 42.7 471.713 46.3H496.413C496.213 43.0333 495.013 40.4333 492.813 38.5C490.613 36.5667 487.879 35.6 484.613 35.6ZM530.025 76L511.825 26.4H525.225L537.825 63.9L550.425 26.4H563.825L545.525 76H530.025ZM591.957 77.2C586.957 77.2 582.524 76.1333 578.657 74C574.79 71.8667 571.757 68.8667 569.557 65C567.357 61.1333 566.257 56.6667 566.257 51.6C566.257 46.4667 567.324 41.9 569.457 37.9C571.657 33.9 574.657 30.8 578.457 28.6C582.324 26.3333 586.857 25.2 592.057 25.2C596.924 25.2 601.224 26.2667 604.957 28.4C608.69 30.5333 611.59 33.4667 613.657 37.2C615.79 40.8667 616.857 44.9667 616.857 49.5C616.857 50.2333 616.824 51 616.757 51.8C616.757 52.6 616.724 53.4333 616.657 54.3H578.957C579.224 58.1667 580.557 61.2 582.957 63.4C585.424 65.6 588.39 66.7 591.857 66.7C594.457 66.7 596.624 66.1333 598.357 65C600.157 63.8 601.49 62.2667 602.357 60.4H615.357C614.424 63.5333 612.857 66.4 610.657 69C608.524 71.5333 605.857 73.5333 602.657 75C599.524 76.4667 595.957 77.2 591.957 77.2ZM592.057 35.6C588.924 35.6 586.157 36.5 583.757 38.3C581.357 40.0333 579.824 42.7 579.157 46.3H603.857C603.657 43.0333 602.457 40.4333 600.257 38.5C598.057 36.5667 595.324 35.6 592.057 35.6ZM643.123 77.2C638.856 77.2 635.356 76.5333 632.623 75.2C629.889 73.8 627.856 71.9667 626.523 69.7C625.189 67.4333 624.523 64.9333 624.523 62.2C624.523 57.6 626.323 53.8667 629.923 51C633.523 48.1333 638.923 46.7 646.123 46.7H658.723V45.5C658.723 42.1 657.756 39.6 655.823 38C653.889 36.4 651.489 35.6 648.623 35.6C646.023 35.6 643.756 36.2333 641.823 37.5C639.889 38.7 638.689 40.5 638.223 42.9H625.723C626.056 39.3 627.256 36.1667 629.323 33.5C631.456 30.8333 634.189 28.8 637.523 27.4C640.856 25.9333 644.589 25.2 648.723 25.2C655.789 25.2 661.356 26.9667 665.423 30.5C669.489 34.0333 671.523 39.0333 671.523 45.5V76H660.623L659.423 68C657.956 70.6667 655.889 72.8667 653.223 74.6C650.623 76.3333 647.256 77.2 643.123 77.2ZM646.023 67.2C649.689 67.2 652.523 66 654.523 63.6C656.589 61.2 657.889 58.2333 658.423 54.7H647.523C644.123 54.7 641.689 55.3333 640.223 56.6C638.756 57.8 638.023 59.3 638.023 61.1C638.023 63.0333 638.756 64.5333 640.223 65.6C641.689 66.6667 643.623 67.2 646.023 67.2ZM682.138 76V4H694.938V76H682.138ZM713.616 54.2L713.216 37.7H717.816C721.216 37.7 724.316 37.4 727.116 36.8C729.916 36.2 732.15 35.0333 733.816 33.3C735.483 31.5667 736.316 29.0333 736.316 25.7C736.316 22.5 735.35 20 733.416 18.2C731.483 16.3333 728.916 15.4 725.716 15.4C722.383 15.4 719.783 16.3333 717.916 18.2C716.05 20 715.116 22.4667 715.116 25.6H703.016C702.95 21.6 703.816 18.0333 705.616 14.9C707.416 11.7667 710.016 9.29999 713.416 7.49999C716.883 5.7 721.016 4.8 725.816 4.8C730.283 4.8 734.216 5.63333 737.616 7.3C741.083 8.96666 743.783 11.3667 745.716 14.5C747.716 17.5667 748.716 21.3333 748.716 25.8C748.716 30.4 747.683 34.2 745.616 37.2C743.616 40.2 740.85 42.4333 737.316 43.9C733.85 45.3667 729.816 46.1333 725.216 46.2L724.916 54.2H713.616ZM719.316 76.7C716.983 76.7 715.05 75.9667 713.516 74.5C712.05 73.0333 711.316 71.2667 711.316 69.2C711.316 67.0667 712.05 65.2667 713.516 63.8C715.05 62.3333 716.983 61.6 719.316 61.6C721.65 61.6 723.55 62.3333 725.016 63.8C726.483 65.2667 727.216 67.0667 727.216 69.2C727.216 71.2667 726.483 73.0333 725.016 74.5C723.55 75.9667 721.65 76.7 719.316 76.7Z" fill="#FFC234"/>
</svg>
