<svg width="24" height="24" viewBox="0 0 24 24" fill="none" xmlns="http://www.w3.org/2000/svg">
<path d="M15.456 9.67809L15.314 9.53609C14.6448 8.89081 13.8223 8.42656 12.924 8.18709C10.017 7.40909 7.225 9.05609 6.432 12.0171C6.389 12.1771 6.366 12.3571 6.328 12.8081C6.174 14.6781 5.734 16.0731 4.528 17.4881C6.788 18.3761 9.466 19.0021 11.502 19.0021C12.7123 19.0006 13.8883 18.6003 14.8482 17.8631C15.8081 17.126 16.4983 16.093 16.812 14.9241C17.0583 14.007 17.0629 13.0418 16.8253 12.1224C16.5876 11.203 16.1159 10.3609 15.456 9.67809ZM13.29 6.21609L18.229 2.37509C18.4213 2.22571 18.6615 2.15162 18.9045 2.16672C19.1475 2.18182 19.3767 2.28506 19.549 2.45709L22.544 5.45109C22.7163 5.62347 22.8197 5.85283 22.8348 6.09609C22.8499 6.33934 22.7757 6.57973 22.626 6.77209L18.786 11.7101C19.0568 12.8145 19.073 13.966 18.8335 15.0776C18.5941 16.1892 18.1052 17.2319 17.4037 18.1268C16.7022 19.0218 15.8066 19.7457 14.7843 20.2438C13.7621 20.7419 12.6401 21.0012 11.503 21.0021C8 21.0021 3.5 19.5001 1 18.0001C4.98 15.0001 4.047 13.1901 4.5 11.5001C5.558 7.55009 9.342 5.24309 13.289 6.21609H13.29ZM16.703 8.09509C16.768 8.15809 16.833 8.22309 16.896 8.28909L18.031 9.42309L20.506 6.24109L18.76 4.49509L15.578 6.97009L16.703 8.09509Z" fill="white"/>
</svg>
