<svg width="30" height="30" viewBox="0 0 30 30" fill="none" xmlns="http://www.w3.org/2000/svg">
<path d="M15 27.5C8.09625 27.5 2.5 21.9037 2.5 15C2.5 8.09625 8.09625 2.5 15 2.5C21.9037 2.5 27.5 8.09625 27.5 15C27.5 21.9037 21.9037 27.5 15 27.5ZM15 25C17.6522 25 20.1957 23.9464 22.0711 22.0711C23.9464 20.1957 25 17.6522 25 15C25 12.3478 23.9464 9.8043 22.0711 7.92893C20.1957 6.05357 17.6522 5 15 5C12.3478 5 9.8043 6.05357 7.92893 7.92893C6.05357 9.8043 5 12.3478 5 15C5 17.6522 6.05357 20.1957 7.92893 22.0711C9.8043 23.9464 12.3478 25 15 25ZM8.75 16.25H11.25C11.25 17.2446 11.6451 18.1984 12.3483 18.9017C13.0516 19.6049 14.0054 20 15 20C15.9946 20 16.9484 19.6049 17.6517 18.9017C18.3549 18.1984 18.75 17.2446 18.75 16.25H21.25C21.25 17.9076 20.5915 19.4973 19.4194 20.6694C18.2473 21.8415 16.6576 22.5 15 22.5C13.3424 22.5 11.7527 21.8415 10.5806 20.6694C9.40848 19.4973 8.75 17.9076 8.75 16.25ZM10 13.75C9.50272 13.75 9.02581 13.5525 8.67417 13.2008C8.32254 12.8492 8.125 12.3723 8.125 11.875C8.125 11.3777 8.32254 10.9008 8.67417 10.5492C9.02581 10.1975 9.50272 10 10 10C10.4973 10 10.9742 10.1975 11.3258 10.5492C11.6775 10.9008 11.875 11.3777 11.875 11.875C11.875 12.3723 11.6775 12.8492 11.3258 13.2008C10.9742 13.5525 10.4973 13.75 10 13.75ZM20 13.75C19.5027 13.75 19.0258 13.5525 18.6742 13.2008C18.3225 12.8492 18.125 12.3723 18.125 11.875C18.125 11.3777 18.3225 10.9008 18.6742 10.5492C19.0258 10.1975 19.5027 10 20 10C20.4973 10 20.9742 10.1975 21.3258 10.5492C21.6775 10.9008 21.875 11.3777 21.875 11.875C21.875 12.3723 21.6775 12.8492 21.3258 13.2008C20.9742 13.5525 20.4973 13.75 20 13.75Z" fill="white"/>
</svg>
