<svg width="30" height="30" viewBox="0 0 30 30" fill="none" xmlns="http://www.w3.org/2000/svg">
<path d="M15 5C22.5938 5 28.75 8.3575 28.75 12.5V17.5C28.75 21.6425 22.5938 25 15 25C7.54125 25 1.47 21.7612 1.25625 17.7213L1.25 17.5V12.5C1.25 8.3575 7.40625 5 15 5ZM15 20C10.35 20 6.2375 18.7413 3.75 16.8125V17.5C3.75 19.8525 8.60375 22.5 15 22.5C21.2625 22.5 26.0475 19.9625 26.2438 17.6475L26.25 17.5L26.2512 16.8125C23.7638 18.74 19.6513 20 15 20ZM15 7.5C8.60375 7.5 3.75 10.1475 3.75 12.5C3.75 14.8525 8.60375 17.5 15 17.5C21.3962 17.5 26.25 14.8525 26.25 12.5C26.25 10.1475 21.3962 7.5 15 7.5Z" fill="white"/>
</svg>
