<svg width="30" height="30" viewBox="0 0 30 30" fill="none" xmlns="http://www.w3.org/2000/svg">
<path d="M18.125 2.5C18.8633 2.49975 19.5897 2.68635 20.2364 3.04242C20.8832 3.39848 21.4294 3.91244 21.824 4.53642C22.2187 5.1604 22.449 5.87411 22.4935 6.61107C22.5381 7.34804 22.3954 8.08429 22.0788 8.75125L26.25 8.75C26.5815 8.75 26.8995 8.8817 27.1339 9.11612C27.3683 9.35054 27.5 9.66848 27.5 10V15C27.5 15.3315 27.3683 15.6495 27.1339 15.8839C26.8995 16.1183 26.5815 16.25 26.25 16.25H25V26.25C25 26.5815 24.8683 26.8995 24.6339 27.1339C24.3995 27.3683 24.0815 27.5 23.75 27.5H6.25C5.91848 27.5 5.60054 27.3683 5.36612 27.1339C5.1317 26.8995 5 26.5815 5 26.25V16.25H3.75C3.41848 16.25 3.10054 16.1183 2.86612 15.8839C2.6317 15.6495 2.5 15.3315 2.5 15V10C2.5 9.66848 2.6317 9.35054 2.86612 9.11612C3.10054 8.8817 3.41848 8.75 3.75 8.75L7.92125 8.75125C7.47594 7.81584 7.37703 6.75276 7.64213 5.75125C7.90722 4.74975 8.51911 3.87481 9.36887 3.2822C10.2186 2.68958 11.2511 2.41775 12.2825 2.51509C13.314 2.61243 14.2774 3.07263 15.0013 3.81375C15.4075 3.39691 15.8934 3.06585 16.4299 2.84019C16.9665 2.61452 17.5429 2.49884 18.125 2.5ZM22.5 16.25H7.5V25H22.5V16.25ZM25 11.25H5V13.75H25V11.25ZM11.875 5C11.3935 5.00024 10.9305 5.18573 10.582 5.51802C10.2335 5.85031 10.0262 6.30393 10.0031 6.7849C9.97995 7.26586 10.1427 7.73729 10.4577 8.10151C10.7727 8.46572 11.2157 8.69479 11.695 8.74125L11.875 8.75H13.75V6.875C13.75 6.4089 13.5764 5.95952 13.263 5.61448C12.9496 5.26945 12.519 5.0535 12.055 5.00875L11.875 5ZM18.125 5L17.945 5.00875C17.5117 5.05027 17.1064 5.24123 16.7985 5.54889C16.4906 5.85656 16.2993 6.26176 16.2575 6.695L16.25 6.875V8.75H18.125L18.305 8.74125C18.7688 8.69629 19.1992 8.48025 19.5124 8.13524C19.8256 7.79023 19.9991 7.34096 19.9991 6.875C19.9991 6.40905 19.8256 5.95978 19.5124 5.61477C19.1992 5.26976 18.7688 5.05372 18.305 5.00875L18.125 5Z" fill="white"/>
</svg>
