<svg width="121" height="121" viewBox="0 0 121 121" fill="none" xmlns="http://www.w3.org/2000/svg">
<path d="M60.5 0C72.6277 1.44621e-07 84.4755 3.64486 94.5061 10.4616L86.0045 22.9712C78.4816 17.8586 69.5958 15.125 60.5 15.125V0Z" fill="white"/>
<path d="M96.0669 11.5588C105.878 18.6884 113.319 28.602 117.426 40.0132L103.194 45.1349C100.114 36.5765 94.5332 29.1413 87.1752 23.7941L96.0669 11.5588Z" fill="white"/>
<path d="M117.95 41.5333C121.752 53.0496 122.005 65.4427 118.677 77.1047L104.133 72.9535C106.629 64.2071 106.439 54.9122 103.588 46.2749L117.95 41.5333Z" fill="white"/>
<path d="M118.148 78.8571C114.468 90.4131 107.4 100.596 97.8611 108.086L88.5208 96.1893C95.675 90.5723 100.976 82.9348 103.736 74.2679L118.148 78.8571Z" fill="white"/>
<path d="M96.361 109.226C86.5934 116.415 74.8909 120.502 62.7717 120.957L62.2038 105.843C71.2931 105.501 80.0701 102.436 87.3957 97.0446L96.361 109.226Z" fill="white"/>
<path d="M60.5 121C48.3723 121 36.5245 117.355 26.494 110.538L34.9955 98.0288C42.5184 103.141 51.4042 105.875 60.5 105.875V121Z" fill="white"/>
<path d="M25.2562 109.674C15.3988 102.61 7.89222 92.7452 3.71042 81.3613L17.9078 76.146C21.0442 84.6839 26.6741 92.0822 34.0672 97.3808L25.2562 109.674Z" fill="white"/>
<path d="M3.08711 79.579C-0.737434 68.0702 -1.01483 55.6775 2.2909 44.0091L16.8432 48.1318C14.3639 56.8831 14.5719 66.1776 17.4403 74.8093L3.08711 79.579Z" fill="white" fill-opacity="0.18"/>
<path d="M2.80665 42.2866C6.45766 30.7215 13.5002 20.5207 23.0204 13.0076L32.3903 24.8807C25.2501 30.5155 19.9682 38.1662 17.23 46.84L2.80665 42.2866Z" fill="white" fill-opacity="0.18"/>
<path d="M24.6019 11.8012C34.3639 4.60512 46.0634 0.509042 58.1822 0.0444156L58.7616 15.1583C49.6725 15.5068 40.898 18.5788 33.5764 23.9759L24.6019 11.8012Z" fill="white" fill-opacity="0.18"/>
<path d="M41.3562 61L46.6362 49.18H39.7362V47H49.2762V48.82L44.0162 61H41.3562ZM56.4831 61.24C55.1898 61.24 54.0831 60.94 53.1631 60.34C52.2431 59.7267 51.5298 58.88 51.0231 57.8C50.5298 56.7067 50.2831 55.44 50.2831 54C50.2831 52.5733 50.5298 51.3133 51.0231 50.22C51.5298 49.1267 52.2431 48.28 53.1631 47.68C54.0831 47.0667 55.1898 46.76 56.4831 46.76C57.7765 46.76 58.8831 47.0667 59.8031 47.68C60.7231 48.28 61.4298 49.1267 61.9231 50.22C62.4298 51.3133 62.6831 52.5733 62.6831 54C62.6831 55.44 62.4298 56.7067 61.9231 57.8C61.4298 58.88 60.7231 59.7267 59.8031 60.34C58.8831 60.94 57.7765 61.24 56.4831 61.24ZM56.4831 58.94C57.5365 58.94 58.3965 58.5 59.0631 57.62C59.7298 56.74 60.0631 55.5333 60.0631 54C60.0631 52.4667 59.7298 51.26 59.0631 50.38C58.3965 49.5 57.5365 49.06 56.4831 49.06C55.4165 49.06 54.5498 49.5 53.8831 50.38C53.2298 51.26 52.9031 52.4667 52.9031 54C52.9031 55.5333 53.2298 56.74 53.8831 57.62C54.5498 58.5 55.4165 58.94 56.4831 58.94ZM67.4623 53.88C66.8223 53.88 66.2423 53.74 65.7223 53.46C65.2023 53.1667 64.789 52.7533 64.4823 52.22C64.1757 51.6867 64.0223 51.0533 64.0223 50.32C64.0223 49.5867 64.1757 48.9533 64.4823 48.42C64.789 47.8867 65.2023 47.48 65.7223 47.2C66.2423 46.9067 66.829 46.76 67.4823 46.76C68.1223 46.76 68.6957 46.9067 69.2023 47.2C69.7223 47.48 70.1357 47.8867 70.4423 48.42C70.749 48.9533 70.9023 49.5867 70.9023 50.32C70.9023 51.0533 70.749 51.6867 70.4423 52.22C70.1357 52.7533 69.7223 53.1667 69.2023 53.46C68.6823 53.74 68.1023 53.88 67.4623 53.88ZM66.7023 61L74.6023 47H77.1023L69.2023 61H66.7023ZM67.4623 52.1C67.849 52.1 68.1823 51.9533 68.4623 51.66C68.7423 51.3533 68.8823 50.9067 68.8823 50.32C68.8823 49.7333 68.7423 49.2867 68.4623 48.98C68.1957 48.6733 67.8623 48.52 67.4623 48.52C67.0623 48.52 66.7223 48.6733 66.4423 48.98C66.1757 49.2867 66.0423 49.7333 66.0423 50.32C66.0423 50.9067 66.1757 51.3533 66.4423 51.66C66.7223 51.9533 67.0623 52.1 67.4623 52.1ZM76.4223 61.24C75.7823 61.24 75.2023 61.1 74.6823 60.82C74.1623 60.5267 73.749 60.1133 73.4423 59.58C73.1357 59.0467 72.9823 58.4133 72.9823 57.68C72.9823 56.9467 73.1357 56.32 73.4423 55.8C73.749 55.2667 74.1623 54.86 74.6823 54.58C75.2023 54.2867 75.789 54.14 76.4423 54.14C77.0823 54.14 77.6557 54.2867 78.1623 54.58C78.6823 54.86 79.0957 55.2667 79.4023 55.8C79.709 56.32 79.8623 56.9467 79.8623 57.68C79.8623 58.4133 79.709 59.0467 79.4023 59.58C79.0957 60.1133 78.6823 60.5267 78.1623 60.82C77.6557 61.1 77.0757 61.24 76.4223 61.24ZM76.4223 59.46C76.8223 59.46 77.1557 59.3133 77.4223 59.02C77.7023 58.7133 77.8423 58.2667 77.8423 57.68C77.8423 57.0933 77.7023 56.6467 77.4223 56.34C77.1557 56.0333 76.8223 55.88 76.4223 55.88C76.0223 55.88 75.6823 56.0333 75.4023 56.34C75.1357 56.6467 75.0023 57.0933 75.0023 57.68C75.0023 58.2667 75.1357 58.7133 75.4023 59.02C75.6823 59.3133 76.0223 59.46 76.4223 59.46Z" fill="white"/>
<path d="M41.4948 76.108C40.8768 76.108 40.3428 75.973 39.8928 75.703C39.4488 75.427 39.1038 75.046 38.8578 74.56C38.6118 74.068 38.4888 73.498 38.4888 72.85C38.4888 72.208 38.6118 71.644 38.8578 71.158C39.1038 70.666 39.4488 70.282 39.8928 70.006C40.3428 69.73 40.8768 69.592 41.4948 69.592C42.2148 69.592 42.7998 69.766 43.2498 70.114C43.7058 70.456 43.9968 70.936 44.1228 71.554H43.2858C43.1898 71.164 42.9918 70.852 42.6918 70.618C42.3978 70.378 41.9988 70.258 41.4948 70.258C41.0448 70.258 40.6518 70.363 40.3158 70.573C39.9798 70.777 39.7188 71.074 39.5328 71.464C39.3528 71.848 39.2628 72.31 39.2628 72.85C39.2628 73.39 39.3528 73.855 39.5328 74.245C39.7188 74.629 39.9798 74.926 40.3158 75.136C40.6518 75.34 41.0448 75.442 41.4948 75.442C41.9988 75.442 42.3978 75.328 42.6918 75.1C42.9918 74.866 43.1898 74.557 43.2858 74.173H44.1228C43.9968 74.779 43.7058 75.253 43.2498 75.595C42.7998 75.937 42.2148 76.108 41.4948 76.108ZM46.8383 76.108C46.4183 76.108 46.0403 76.012 45.7043 75.82C45.3683 75.628 45.1013 75.358 44.9033 75.01C44.7113 74.656 44.6153 74.242 44.6153 73.768C44.6153 73.294 44.7143 72.883 44.9123 72.535C45.1103 72.181 45.3773 71.908 45.7133 71.716C46.0553 71.524 46.4363 71.428 46.8563 71.428C47.2763 71.428 47.6543 71.524 47.9903 71.716C48.3263 71.908 48.5903 72.181 48.7823 72.535C48.9803 72.883 49.0793 73.294 49.0793 73.768C49.0793 74.242 48.9803 74.656 48.7823 75.01C48.5843 75.358 48.3143 75.628 47.9723 75.82C47.6363 76.012 47.2583 76.108 46.8383 76.108ZM46.8383 75.46C47.0963 75.46 47.3363 75.397 47.5583 75.271C47.7803 75.145 47.9603 74.956 48.0983 74.704C48.2363 74.452 48.3053 74.14 48.3053 73.768C48.3053 73.396 48.2363 73.084 48.0983 72.832C47.9663 72.58 47.7893 72.391 47.5673 72.265C47.3453 72.139 47.1083 72.076 46.8563 72.076C46.5983 72.076 46.3583 72.139 46.1363 72.265C45.9143 72.391 45.7343 72.58 45.5963 72.832C45.4583 73.084 45.3893 73.396 45.3893 73.768C45.3893 74.14 45.4583 74.452 45.5963 74.704C45.7343 74.956 45.9113 75.145 46.1273 75.271C46.3493 75.397 46.5863 75.46 46.8383 75.46ZM49.7705 76V71.536H50.4545L50.5085 72.184C50.6525 71.944 50.8445 71.758 51.0845 71.626C51.3245 71.494 51.5945 71.428 51.8945 71.428C52.2485 71.428 52.5515 71.5 52.8035 71.644C53.0615 71.788 53.2595 72.007 53.3975 72.301C53.5535 72.031 53.7665 71.818 54.0365 71.662C54.3125 71.506 54.6095 71.428 54.9275 71.428C55.4615 71.428 55.8875 71.59 56.2055 71.914C56.5235 72.232 56.6825 72.724 56.6825 73.39V76H55.9355V73.471C55.9355 73.009 55.8425 72.661 55.6565 72.427C55.4705 72.193 55.2035 72.076 54.8555 72.076C54.4955 72.076 54.1955 72.217 53.9555 72.499C53.7215 72.775 53.6045 73.171 53.6045 73.687V76H52.8485V73.471C52.8485 73.009 52.7555 72.661 52.5695 72.427C52.3835 72.193 52.1165 72.076 51.7685 72.076C51.4145 72.076 51.1175 72.217 50.8775 72.499C50.6435 72.775 50.5265 73.171 50.5265 73.687V76H49.7705ZM57.4613 77.98V71.536H58.1453L58.2173 72.274C58.3613 72.058 58.5653 71.863 58.8293 71.689C59.0993 71.515 59.4413 71.428 59.8553 71.428C60.2993 71.428 60.6863 71.53 61.0163 71.734C61.3463 71.938 61.6013 72.217 61.7813 72.571C61.9673 72.925 62.0603 73.327 62.0603 73.777C62.0603 74.227 61.9673 74.629 61.7813 74.983C61.6013 75.331 61.3433 75.607 61.0073 75.811C60.6773 76.009 60.2903 76.108 59.8463 76.108C59.4803 76.108 59.1533 76.033 58.8653 75.883C58.5833 75.733 58.3673 75.523 58.2173 75.253V77.98H57.4613ZM59.7653 75.451C60.0653 75.451 60.3293 75.382 60.5573 75.244C60.7853 75.1 60.9653 74.902 61.0973 74.65C61.2293 74.398 61.2953 74.104 61.2953 73.768C61.2953 73.432 61.2293 73.138 61.0973 72.886C60.9653 72.634 60.7853 72.439 60.5573 72.301C60.3293 72.157 60.0653 72.085 59.7653 72.085C59.4653 72.085 59.2013 72.157 58.9733 72.301C58.7453 72.439 58.5653 72.634 58.4333 72.886C58.3013 73.138 58.2353 73.432 58.2353 73.768C58.2353 74.104 58.3013 74.398 58.4333 74.65C58.5653 74.902 58.7453 75.1 58.9733 75.244C59.2013 75.382 59.4653 75.451 59.7653 75.451ZM62.7527 76V69.52H63.5087V76H62.7527ZM66.3948 76.108C65.9688 76.108 65.5908 76.012 65.2608 75.82C64.9308 75.622 64.6698 75.349 64.4778 75.001C64.2918 74.653 64.1988 74.242 64.1988 73.768C64.1988 73.3 64.2918 72.892 64.4778 72.544C64.6638 72.19 64.9218 71.917 65.2518 71.725C65.5878 71.527 65.9748 71.428 66.4128 71.428C66.8448 71.428 67.2168 71.527 67.5288 71.725C67.8468 71.917 68.0898 72.172 68.2578 72.49C68.4258 72.808 68.5098 73.15 68.5098 73.516C68.5098 73.582 68.5068 73.648 68.5008 73.714C68.5008 73.78 68.5008 73.855 68.5008 73.939H64.9458C64.9638 74.281 65.0418 74.566 65.1798 74.794C65.3238 75.016 65.5008 75.184 65.7108 75.298C65.9268 75.412 66.1548 75.469 66.3948 75.469C66.7068 75.469 66.9678 75.397 67.1778 75.253C67.3878 75.109 67.5408 74.914 67.6368 74.668H68.3838C68.2638 75.082 68.0328 75.427 67.6908 75.703C67.3548 75.973 66.9228 76.108 66.3948 76.108ZM66.3948 72.067C66.0348 72.067 65.7138 72.178 65.4318 72.4C65.1558 72.616 64.9968 72.934 64.9548 73.354H67.7628C67.7448 72.952 67.6068 72.637 67.3488 72.409C67.0908 72.181 66.7728 72.067 66.3948 72.067ZM70.7664 76C70.3584 76 70.0374 75.901 69.8034 75.703C69.5694 75.505 69.4524 75.148 69.4524 74.632V72.175H68.6784V71.536H69.4524L69.5514 70.465H70.2084V71.536H71.5224V72.175H70.2084V74.632C70.2084 74.914 70.2654 75.106 70.3794 75.208C70.4934 75.304 70.6944 75.352 70.9824 75.352H71.4504V76H70.7664ZM74.0068 76.108C73.5808 76.108 73.2028 76.012 72.8728 75.82C72.5428 75.622 72.2818 75.349 72.0898 75.001C71.9038 74.653 71.8108 74.242 71.8108 73.768C71.8108 73.3 71.9038 72.892 72.0898 72.544C72.2758 72.19 72.5338 71.917 72.8638 71.725C73.1998 71.527 73.5868 71.428 74.0248 71.428C74.4568 71.428 74.8288 71.527 75.1408 71.725C75.4588 71.917 75.7018 72.172 75.8698 72.49C76.0378 72.808 76.1218 73.15 76.1218 73.516C76.1218 73.582 76.1188 73.648 76.1128 73.714C76.1128 73.78 76.1128 73.855 76.1128 73.939H72.5578C72.5758 74.281 72.6538 74.566 72.7918 74.794C72.9358 75.016 73.1128 75.184 73.3228 75.298C73.5388 75.412 73.7668 75.469 74.0068 75.469C74.3188 75.469 74.5798 75.397 74.7898 75.253C74.9998 75.109 75.1528 74.914 75.2488 74.668H75.9958C75.8758 75.082 75.6448 75.427 75.3028 75.703C74.9668 75.973 74.5348 76.108 74.0068 76.108ZM74.0068 72.067C73.6468 72.067 73.3258 72.178 73.0438 72.4C72.7678 72.616 72.6088 72.934 72.5668 73.354H75.3748C75.3568 72.952 75.2188 72.637 74.9608 72.409C74.7028 72.181 74.3848 72.067 74.0068 72.067ZM78.7888 76.108C78.3448 76.108 77.9548 76.006 77.6188 75.802C77.2888 75.598 77.0308 75.319 76.8448 74.965C76.6648 74.611 76.5748 74.209 76.5748 73.759C76.5748 73.309 76.6678 72.91 76.8538 72.562C77.0398 72.208 77.2978 71.932 77.6278 71.734C77.9578 71.53 78.3478 71.428 78.7978 71.428C79.1638 71.428 79.4878 71.503 79.7698 71.653C80.0518 71.803 80.2708 72.013 80.4268 72.283V69.52H81.1828V76H80.4988L80.4268 75.262C80.2828 75.478 80.0758 75.673 79.8058 75.847C79.5358 76.021 79.1968 76.108 78.7888 76.108ZM78.8698 75.451C79.1698 75.451 79.4338 75.382 79.6618 75.244C79.8958 75.1 80.0758 74.902 80.2018 74.65C80.3338 74.398 80.3998 74.104 80.3998 73.768C80.3998 73.432 80.3338 73.138 80.2018 72.886C80.0758 72.634 79.8958 72.439 79.6618 72.301C79.4338 72.157 79.1698 72.085 78.8698 72.085C78.5758 72.085 78.3118 72.157 78.0778 72.301C77.8498 72.439 77.6698 72.634 77.5378 72.886C77.4118 73.138 77.3488 73.432 77.3488 73.768C77.3488 74.104 77.4118 74.398 77.5378 74.65C77.6698 74.902 77.8498 75.1 78.0778 75.244C78.3118 75.382 78.5758 75.451 78.8698 75.451Z" fill="white"/>
</svg>
