<svg width="60" height="14" viewBox="0 0 60 14" fill="none" xmlns="http://www.w3.org/2000/svg">
<path d="M46.7635 6.77905C46.7635 6.43294 46.7635 6.10737 46.7522 5.8067C46.7446 5.52305 46.7165 5.24033 46.6682 4.96072C46.623 4.7054 46.5432 4.45744 46.431 4.22368C46.3126 3.98266 46.1543 3.76336 45.9629 3.57503C45.6914 3.29685 45.3683 3.07421 45.0117 2.91954C44.626 2.76327 44.2128 2.6858 43.7966 2.6917C43.3788 2.6863 42.9642 2.76374 42.5765 2.91954C42.2178 3.0721 41.8927 3.29377 41.6197 3.57192C41.4286 3.76014 41.271 3.97948 41.1535 4.22057C41.0422 4.45438 40.9637 4.70239 40.92 4.95761C40.8728 5.2373 40.8457 5.52002 40.8391 5.80359C40.8316 6.10426 40.8279 6.42983 40.8298 6.77594C40.8316 7.12205 40.8298 7.44513 40.8391 7.74766C40.8457 8.03123 40.8728 8.31396 40.92 8.59365C40.9637 8.84887 41.0422 9.09688 41.1535 9.33069C41.2714 9.5715 41.4291 9.79076 41.6197 9.97934C41.8923 10.2577 42.2175 10.4791 42.5765 10.6305C42.9639 10.7873 43.3787 10.8652 43.7966 10.8596C44.2129 10.8657 44.6262 10.7878 45.0117 10.6305C45.3684 10.4779 45.6916 10.2566 45.9629 9.97934C46.1539 9.79064 46.3121 9.57142 46.431 9.33069C46.5432 9.09693 46.623 8.84896 46.6682 8.59365C46.716 8.31483 46.7437 8.03294 46.751 7.75015C46.7603 7.44762 46.7647 7.12392 46.7622 6.77843L46.7635 6.77905ZM45.1947 6.77905C45.1947 7.16251 45.1891 7.48186 45.1761 7.73584C45.1687 7.94446 45.1479 8.15239 45.1138 8.35834C45.0905 8.49555 45.0486 8.62895 44.9893 8.75487C44.9412 8.85637 44.8783 8.95014 44.8026 9.03313C44.6857 9.1669 44.5407 9.27319 44.378 9.34438C44.1949 9.42274 43.9976 9.46257 43.7985 9.46144C43.5983 9.4623 43.4001 9.42248 43.2158 9.34438C43.0491 9.27451 42.9002 9.16815 42.7801 9.03313C42.7039 8.95052 42.6409 8.85666 42.5933 8.75487C42.5357 8.62882 42.4959 8.49536 42.475 8.35834C42.4418 8.15228 42.421 7.9444 42.4128 7.73584C42.4016 7.48186 42.396 7.16293 42.396 6.77905C42.396 6.39559 42.4016 6.07562 42.4128 5.82164C42.421 5.61308 42.4418 5.40521 42.475 5.19914C42.4959 5.06212 42.5357 4.92866 42.5933 4.80261C42.6411 4.7009 42.704 4.60707 42.7801 4.52435C42.9004 4.38952 43.0492 4.28319 43.2158 4.2131C43.3998 4.13411 43.5982 4.09426 43.7985 4.09607C43.9977 4.094 44.1952 4.13387 44.378 4.2131C44.5406 4.28451 44.6856 4.39076 44.8026 4.52435C44.8781 4.60744 44.941 4.7012 44.9893 4.80261C45.0486 4.92853 45.0905 5.06193 45.1138 5.19914C45.1479 5.40509 45.1687 5.61302 45.1761 5.82164C45.1898 6.075 45.1947 6.39497 45.1947 6.77905Z" fill="#23AF91"/>
<path d="M59.2633 2.89962C59.2626 2.82392 59.2014 2.76272 59.1257 2.76204H57.8315C57.7557 2.76238 57.6943 2.82378 57.694 2.89962V7.68043L54.5379 2.80064C54.5167 2.76765 54.498 2.76204 54.4513 2.76204H53.2512C53.1756 2.76305 53.1146 2.82406 53.1136 2.89962V10.6572C53.1146 10.7327 53.1757 10.7935 53.2512 10.7942H54.5447C54.6202 10.7938 54.6813 10.7327 54.6817 10.6572V5.86397L57.8384 10.755C57.8602 10.788 57.8776 10.7936 57.9249 10.7936H59.1245C59.2001 10.7932 59.2614 10.7322 59.262 10.6566L59.2633 2.89962Z" fill="#23AF91"/>
<path d="M50.5881 2.89962C50.5878 2.82378 50.5264 2.76238 50.4505 2.76204H49.1576C49.0818 2.76238 49.0204 2.82378 49.02 2.89962V10.6566C49.0204 10.7325 49.0818 10.7938 49.1576 10.7942H50.4505C50.5264 10.7938 50.5878 10.7325 50.5881 10.6566V2.89962Z" fill="#23AF91"/>
<path d="M35.1102 6.77905C35.1102 6.3931 35.1146 6.07189 35.1258 5.81604C35.1334 5.60744 35.1542 5.39952 35.188 5.19354C35.3075 4.50256 35.8367 4.09482 36.5121 4.09482C36.9528 4.09856 37.3525 4.26165 37.6077 4.63266C37.7233 4.80587 37.8076 4.99803 37.8567 5.20039C37.8605 5.2217 37.88 5.23657 37.9015 5.23462H39.4235C39.4453 5.23462 39.4534 5.21968 39.4497 5.19852C39.2835 4.25667 38.7811 3.41069 37.8934 2.99175C37.4571 2.78975 36.981 2.68869 36.5003 2.69606C35.6433 2.69606 34.9214 2.98947 34.3346 3.57628C33.9995 3.9028 33.7709 4.32283 33.6785 4.78144C33.5888 5.23296 33.5436 5.89863 33.5427 6.77843C33.5419 7.65823 33.5872 8.32369 33.6785 8.77479C33.7701 9.23399 33.9981 9.65487 34.3327 9.98245C34.9191 10.5688 35.641 10.862 36.4984 10.862C36.979 10.8693 37.4551 10.7685 37.8916 10.567C38.7792 10.148 39.2816 9.30205 39.4478 8.36021C39.4515 8.33842 39.4434 8.3241 39.4217 8.3241H37.899C37.8774 8.32184 37.8577 8.33686 37.8542 8.35834C37.8049 8.56046 37.7207 8.75239 37.6052 8.92544C37.35 9.29894 36.9503 9.46017 36.5096 9.46328C35.8342 9.46328 35.3051 9.05617 35.1855 8.36519C35.1517 8.1592 35.1309 7.95129 35.1233 7.74269C35.1146 7.48559 35.1102 7.16376 35.1102 6.77905Z" fill="#23AF91"/>
<path d="M19.0347 2.89962C19.0344 2.82378 18.973 2.76238 18.8971 2.76204H17.6042C17.5283 2.76238 17.467 2.82378 17.4666 2.89962V10.6572C17.4673 10.7328 17.5286 10.7939 17.6042 10.7943H18.8971C18.9727 10.7939 19.034 10.7328 19.0347 10.6572V8.38013L20.0724 7.13948L22.2039 10.7531C22.2203 10.7798 22.2498 10.7955 22.281 10.7943H23.8522C23.9245 10.7943 23.9375 10.7494 23.9014 10.6877L21.1107 5.95673L23.6711 2.8853C23.7228 2.82305 23.701 2.76391 23.62 2.76391H21.9026C21.8817 2.76268 21.8616 2.77204 21.849 2.78881L19.0347 6.16402V2.89962Z" fill="#23AF91"/>
<path d="M28.4544 9.46328C27.7267 9.46328 27.0669 8.78973 27.0669 7.98546V2.89962C27.0665 2.82378 27.0051 2.76238 26.9293 2.76204H25.6364C25.5605 2.76238 25.4991 2.82378 25.4988 2.89962V7.96554C25.4988 9.73656 26.8235 10.862 28.4544 10.862C30.0854 10.862 31.4101 9.73656 31.4101 7.96554V2.89962C31.4094 2.82392 31.3482 2.76272 31.2725 2.76204H29.9789C29.9033 2.76272 29.8423 2.82402 29.842 2.89962V7.98546C29.842 8.78911 29.1815 9.46328 28.4544 9.46328Z" fill="#23AF91"/>
<path fill-rule="evenodd" clip-rule="evenodd" d="M4.47003 6.77905L8.48393 10.7936L11.0175 8.25998C11.4706 7.85206 12.1637 7.87021 12.5947 8.30128C13.0258 8.73235 13.0439 9.42545 12.636 9.87849L9.29256 13.2226C8.84345 13.6643 8.12316 13.6643 7.67405 13.2226L2.85028 8.39756V11.2654C2.85028 11.8984 2.33719 12.4115 1.70425 12.4115C1.07132 12.4115 0.558228 11.8984 0.558228 11.2654V2.28894C0.558228 1.65601 1.07132 1.14291 1.70425 1.14291C2.33719 1.14291 2.85028 1.65601 2.85028 2.28894V5.15681L7.67343 0.333038C8.1224 -0.108973 8.84297 -0.108973 9.29194 0.333038L12.6379 3.6765C13.0458 4.12954 13.0277 4.82264 12.5966 5.25371C12.1655 5.68478 11.4724 5.70293 11.0194 5.29501L8.4858 2.76142L4.47003 6.77905ZM8.4858 5.63178C8.02171 5.63153 7.60318 5.91089 7.42541 6.33958C7.24764 6.76826 7.34564 7.26183 7.67371 7.59007C8.00178 7.91832 8.49529 8.01659 8.92407 7.83905C9.35285 7.66151 9.63245 7.24314 9.63245 6.77905C9.63261 6.47478 9.5119 6.1829 9.29686 5.96762C9.08182 5.75235 8.79007 5.63132 8.4858 5.63116V5.63178Z" fill="#23AF91"/>
</svg>
