<svg width="50" height="12" viewBox="0 0 50 12" fill="none" xmlns="http://www.w3.org/2000/svg">
<g opacity="0.9">
<path d="M5.97086 9.01038V7.52022H2.28349L5.97086 1.77591V0.453991H0.470033V1.94415H3.98815L0.312866 7.66443V9.01038H5.97086ZM11.6996 9.01038V7.60434H8.87062L11.6996 3.93904V2.74932H7.05716V4.15535H9.69272L6.89999 7.82066V9.01038H11.6996ZM18.1741 5.87384C18.1741 4.7442 18.029 4.03518 17.4608 3.44632C17.074 3.03773 16.4332 2.67721 15.5023 2.67721C14.5714 2.67721 13.9427 3.03773 13.5558 3.44632C12.9876 4.03518 12.8425 4.7442 12.8425 5.87384C12.8425 7.01549 12.9876 7.72452 13.5558 8.31337C13.9427 8.72196 14.5714 9.08248 15.5023 9.08248C16.4332 9.08248 17.074 8.72196 17.4608 8.31337C18.029 7.72452 18.1741 7.01549 18.1741 5.87384ZM16.6025 5.87384C16.6025 6.52278 16.5662 7.07558 16.2398 7.40005C16.0584 7.58031 15.8166 7.67645 15.5023 7.67645C15.188 7.67645 14.9582 7.58031 14.7769 7.40005C14.4505 7.07558 14.4142 6.52278 14.4142 5.87384C14.4142 5.2249 14.4505 4.68412 14.7769 4.35965C14.9582 4.17938 15.188 4.08325 15.5023 4.08325C15.8166 4.08325 16.0584 4.17938 16.2398 4.35965C16.5662 4.68412 16.6025 5.2249 16.6025 5.87384ZM24.7385 5.87384C24.7385 4.7442 24.5934 4.03518 24.0252 3.44632C23.6383 3.03773 22.9976 2.67721 22.0667 2.67721C21.1358 2.67721 20.5071 3.03773 20.1202 3.44632C19.552 4.03518 19.4069 4.7442 19.4069 5.87384C19.4069 7.01549 19.552 7.72452 20.1202 8.31337C20.5071 8.72196 21.1358 9.08248 22.0667 9.08248C22.9976 9.08248 23.6383 8.72196 24.0252 8.31337C24.5934 7.72452 24.7385 7.01549 24.7385 5.87384ZM23.1668 5.87384C23.1668 6.52278 23.1306 7.07558 22.8041 7.40005C22.6228 7.58031 22.381 7.67645 22.0667 7.67645C21.7523 7.67645 21.5226 7.58031 21.3413 7.40005C21.0149 7.07558 20.9786 6.52278 20.9786 5.87384C20.9786 5.2249 21.0149 4.68412 21.3413 4.35965C21.5226 4.17938 21.7523 4.08325 22.0667 4.08325C22.381 4.08325 22.6228 4.17938 22.8041 4.35965C23.1306 4.68412 23.1668 5.2249 23.1668 5.87384ZM31.5082 5.87384C31.5082 4.93648 31.4961 3.86693 30.8676 3.24203C30.517 2.89352 29.9488 2.67721 29.3322 2.67721C28.6673 2.67721 28.1958 2.85747 27.7606 3.33817V2.74932H26.2372V11.3057H27.8089V8.45758C28.22 8.91424 28.6915 9.08248 29.3322 9.08248C29.9488 9.08248 30.517 8.86617 30.8676 8.51767C31.4961 7.89276 31.5082 6.8112 31.5082 5.87384ZM29.9367 5.87384C29.9367 6.89532 29.8158 7.67645 28.8728 7.67645C27.9298 7.67645 27.8089 6.89532 27.8089 5.87384C27.8089 4.85236 27.9298 4.08325 28.8728 4.08325C29.8158 4.08325 29.9367 4.85236 29.9367 5.87384ZM38.1767 6.36655V5.66954C38.1767 3.95105 37.1853 2.67721 35.4323 2.67721C33.8002 2.67721 32.6879 3.83088 32.6879 5.87384C32.6879 8.40951 34.1145 9.08248 35.6015 9.08248C36.738 9.08248 37.3546 8.73398 37.9953 8.09706L37.0402 7.17172C36.6413 7.56829 36.3027 7.76057 35.6136 7.76057C34.7311 7.76057 34.2354 7.17172 34.2354 6.36655H38.1767ZM36.6292 5.297H34.2354C34.2475 5.0206 34.2838 4.85236 34.3805 4.62403C34.5497 4.25149 34.9003 3.97509 35.4323 3.97509C35.9642 3.97509 36.3148 4.25149 36.4841 4.62403C36.5808 4.85236 36.6171 5.0206 36.6292 5.297ZM44.232 3.26606C43.7968 2.83344 43.3616 2.67721 42.745 2.67721C42.068 2.67721 41.4635 2.98966 41.1612 3.35018V2.74932H39.6258V9.01038H41.1975V5.23692C41.1975 4.44377 41.7294 4.08325 42.213 4.08325C42.5999 4.08325 42.8054 4.21544 43.0472 4.45578L44.232 3.26606ZM49.7484 7.03953C49.7484 5.98199 49.1198 5.32104 47.8745 5.20086L46.8832 5.10473C46.327 5.05666 46.2303 4.79227 46.2303 4.56394C46.2303 4.25149 46.4963 3.96307 47.125 3.96307C47.669 3.96307 48.2251 4.05921 48.5878 4.38368L49.555 3.41027C48.9505 2.84545 48.1284 2.67721 47.1491 2.67721C45.8676 2.67721 44.7191 3.37422 44.7191 4.6721C44.7191 5.82577 45.4203 6.31848 46.5568 6.42664L47.5481 6.52278C48.0438 6.57085 48.213 6.78716 48.213 7.09961C48.213 7.56829 47.6448 7.74855 47.1008 7.74855C46.6172 7.74855 45.9402 7.67645 45.4203 7.1597L44.3927 8.18118C45.1906 8.97433 46.0853 9.08248 47.0766 9.08248C48.5636 9.08248 49.7484 8.42153 49.7484 7.03953Z" fill="black"/>
</g>
</svg>
